IBM Plex Serif-Text Italic.ufo
<glyph name="exclam" format="2">
	<unicode hex="0021"/>
	<advance width="263"/>
	<outline>
		<contour>
			<point name="ab01" x="72" y="-12" type="qcurve"/>
			<point x="43" y="-12"/>
			<point x="13" y="21"/>
			<point x="13" y="42" type="qcurve"/>
			<point x="13" y="47"/>
			<point x="14" y="56"/>
			<point x="16" y="66" type="qcurve"/>
			<point x="22" y="92"/>
			<point x="63" y="123"/>
			<point name="sv01" x="91" y="123" type="qcurve"/>
			<point x="120" y="123"/>
			<point x="150" y="90"/>
			<point x="150" y="69" type="qcurve"/>
			<point x="150" y="64"/>
			<point x="149" y="55"/>
			<point x="147" y="45" type="qcurve"/>
			<point x="141" y="19"/>
			<point x="100" y="-12"/>
		</contour>
		<contour>
			<point x="142" y="498" type="line"/>
			<point name="at01" x="193" y="698" type="line"/>
			<point x="289" y="698" type="line"/>
			<point x="238" y="498" type="line"/>
			<point x="133" y="190" type="line"/>
			<point name="sv02" x="94" y="190" type="line"/>
		</contour>
	</outline>
</glyph>
<glyph name="numbersign" format="2">
	<unicode hex="0023"/>
	<advance width="625"/>
	<outline>
		<contour>
			<point name="hr00" x="141" y="210" type="line"/>
			<point name="sv01" x="28" y="210" type="line"/>
			<point name="iv01" x="41" y="260" type="line"/>
			<point x="161" y="260" type="line"/>
			<point x="235" y="439" type="line"/>
			<point name="sv02" x="123" y="439" type="line"/>
			<point name="iv02" x="136" y="489" type="line"/>
			<point x="255" y="489" type="line"/>
			<point name="at01" x="340" y="698" type="line"/>
			<point x="401" y="698" type="line"/>
			<point name="sv03" x="316" y="489" type="line"/>
			<point x="463" y="489" type="line"/>
			<point name="at02" x="548" y="698" type="line"/>
			<point x="609" y="698" type="line"/>
			<point name="sv04" x="524" y="489" type="line"/>
			<point x="637" y="489" type="line"/>
			<point x="624" y="439" type="line"/>
			<point name="sv06" x="504" y="439" type="line"/>
			<point name="sv08" x="430" y="260" type="line"/>
			<point x="542" y="260" type="line"/>
			<point x="529" y="210" type="line"/>
			<point name="sv10" x="410" y="210" type="line"/>
			<point x="325" y="0" type="line"/>
			<point name="ab02" x="264" y="0" type="line"/>
			<point x="349" y="210" type="line"/>
			<point name="sv09" x="202" y="210" type="line"/>
			<point x="117" y="0" type="line"/>
			<point name="ab01" x="56" y="0" type="line"/>
		</contour>
		<contour>
			<point name="sv07" x="222" y="260" type="line"/>
			<point x="369" y="260" type="line"/>
			<point x="443" y="439" type="line"/>
			<point name="sv05" x="296" y="439" type="line"/>
		</contour>
	</outline>
</glyph>
<glyph name="dollar" format="2">
	<unicode hex="0024"/>
	<advance width="543"/>
	<outline>
		<contour>
			<point name="ab01" x="181" y="-3" type="line"/>
			<point x="106" y="1"/>
			<point x="19" y="58"/>
			<point x="19" y="111" type="qcurve"/>
			<point x="19" y="127"/>
			<point x="29" y="156"/>
			<point x="47" y="179"/>
			<point x="73" y="193"/>
			<point name="iv02" x="89" y="193" type="qcurve"/>
			<point x="115" y="193"/>
			<point x="143" y="163"/>
			<point x="143" y="140" type="qcurve"/>
			<point x="143" y="114"/>
			<point x="113" y="75"/>
			<point x="84" y="67" type="qcurve"/>
			<point x="84" y="61" type="line"/>
			<point x="102" y="52"/>
			<point x="150" y="42"/>
			<point name="sv01" x="193" y="41" type="qcurve"/>
			<point name="iv01" x="264" y="324" type="line"/>
			<point x="253" y="329" type="line"/>
			<point x="187" y="357"/>
			<point x="122" y="429"/>
			<point x="122" y="492" type="qcurve"/>
			<point x="122" y="537"/>
			<point x="156" y="612"/>
			<point x="218" y="667"/>
			<point x="305" y="700"/>
			<point name="sv03" x="357" y="702" type="qcurve"/>
			<point name="sv04" x="377" y="780" type="line"/>
			<point x="426" y="780" type="line"/>
			<point name="at01" x="406" y="702" type="line"/>
			<point x="468" y="696"/>
			<point x="549" y="638"/>
			<point x="549" y="587" type="qcurve"/>
			<point x="549" y="555"/>
			<point x="512" y="506"/>
			<point name="iv04" x="479" y="506" type="qcurve"/>
			<point x="453" y="506"/>
			<point x="425" y="535"/>
			<point x="425" y="558" type="qcurve"/>
			<point x="425" y="584"/>
			<point x="454" y="624"/>
			<point x="483" y="631" type="qcurve"/>
			<point x="484" y="637" type="line"/>
			<point x="466" y="645"/>
			<point x="427" y="656"/>
			<point name="sv02" x="395" y="657" type="qcurve"/>
			<point name="iv03" x="330" y="400" type="line"/>
			<point x="351" y="391" type="line"/>
			<point x="420" y="363"/>
			<point x="481" y="290"/>
			<point name="hr01" x="481" y="231" type="qcurve"/>
			<point x="481" y="184"/>
			<point x="445" y="101"/>
			<point x="380" y="38"/>
			<point x="287" y="-1"/>
			<point name="sv05" x="230" y="-4" type="qcurve"/>
			<point name="sv06" x="210" y="-82" type="line"/>
			<point x="161" y="-82" type="line"/>
		</contour>
		<contour>
			<point name="sv07" x="241" y="43" type="line"/>
			<point x="275" y="47"/>
			<point x="332" y="75"/>
			<point x="374" y="117"/>
			<point x="398" y="171"/>
			<point x="398" y="201" type="qcurve"/>
			<point x="398" y="243"/>
			<point x="352" y="289"/>
			<point name="iv05" x="307" y="308" type="qcurve"/>
		</contour>
		<contour>
			<point name="sv08" x="347" y="655" type="line"/>
			<point x="311" y="652"/>
			<point x="257" y="627"/>
			<point x="221" y="590"/>
			<point x="203" y="544"/>
			<point x="203" y="520" type="qcurve"/>
			<point x="203" y="482"/>
			<point x="245" y="435"/>
			<point name="iv06" x="287" y="416" type="qcurve"/>
		</contour>
	</outline>
</glyph>
<glyph name="percent" format="2">
	<unicode hex="0025"/>
	<advance width="844"/>
	<outline>
		<contour>
			<point name="sv01" x="226" y="354" type="qcurve"/>
			<point x="301" y="354"/>
			<point x="332" y="476" type="qcurve"/>
			<point x="336" y="492"/>
			<point x="346" y="529"/>
			<point x="354" y="564"/>
			<point x="359" y="596"/>
			<point x="359" y="608" type="qcurve"/>
			<point x="359" y="641"/>
			<point x="331" y="670"/>
			<point name="sv02" x="308" y="670" type="qcurve"/>
			<point x="233" y="670"/>
			<point x="202" y="548" type="qcurve"/>
			<point x="198" y="532"/>
			<point x="188" y="495"/>
			<point x="180" y="460"/>
			<point x="175" y="428"/>
			<point x="175" y="416" type="qcurve"/>
			<point x="175" y="383"/>
			<point x="203" y="354"/>
		</contour>
		<contour>
			<point name="sv03" x="581" y="28" type="qcurve"/>
			<point x="656" y="28"/>
			<point x="687" y="150" type="qcurve"/>
			<point x="691" y="166"/>
			<point x="701" y="203"/>
			<point x="709" y="238"/>
			<point x="714" y="270"/>
			<point x="714" y="282" type="qcurve"/>
			<point x="714" y="315"/>
			<point x="686" y="344"/>
			<point name="sv04" x="663" y="344" type="qcurve"/>
			<point x="588" y="344"/>
			<point x="557" y="222" type="qcurve"/>
			<point x="553" y="206"/>
			<point x="543" y="169"/>
			<point x="535" y="134"/>
			<point x="530" y="102"/>
			<point x="530" y="90" type="qcurve"/>
			<point x="530" y="57"/>
			<point x="558" y="28"/>
		</contour>
		<contour>
			<point name="iv01" x="221" y="314" type="qcurve"/>
			<point x="170" y="314"/>
			<point x="105" y="371"/>
			<point x="105" y="437" type="qcurve"/>
			<point x="105" y="473"/>
			<point x="128" y="568"/>
			<point x="178" y="652"/>
			<point x="257" y="710"/>
			<point name="at01" x="313" y="710" type="qcurve"/>
			<point x="364" y="710"/>
			<point x="429" y="653"/>
			<point x="429" y="587" type="qcurve"/>
			<point x="429" y="551"/>
			<point x="406" y="456"/>
			<point x="356" y="372"/>
			<point x="277" y="314"/>
		</contour>
		<contour>
			<point name="ab01" x="576" y="-12" type="qcurve"/>
			<point x="525" y="-12"/>
			<point x="460" y="45"/>
			<point x="460" y="111" type="qcurve"/>
			<point x="460" y="147"/>
			<point x="483" y="242"/>
			<point x="533" y="326"/>
			<point x="612" y="384"/>
			<point name="iv02" x="668" y="384" type="qcurve"/>
			<point x="719" y="384"/>
			<point x="784" y="327"/>
			<point x="784" y="261" type="qcurve"/>
			<point x="784" y="225"/>
			<point x="761" y="130"/>
			<point x="711" y="46"/>
			<point x="632" y="-12"/>
		</contour>
		<contour>
			<point name="at02" x="720" y="698" type="line"/>
			<point x="780" y="698" type="line"/>
			<point x="166" y="0" type="line"/>
			<point name="ab02" x="106" y="0" type="line"/>
		</contour>
	</outline>
</glyph>
<glyph name="ampersand" format="2">
	<unicode hex="0026"/>
	<advance width="665"/>
	<outline>
		<contour>
			<point name="ab01" x="214" y="-12" type="qcurve"/>
			<point x="117" y="-12"/>
			<point x="18" y="64"/>
			<point x="18" y="134" type="qcurve"/>
			<point x="18" y="180"/>
			<point x="49" y="251"/>
			<point x="103" y="308"/>
			<point x="178" y="354"/>
			<point name="iv03" x="222" y="376" type="qcurve"/>
			<point x="212" y="394" type="line"/>
			<point x="193" y="429"/>
			<point x="175" y="480"/>
			<point x="175" y="510" type="qcurve"/>
			<point x="175" y="554"/>
			<point x="209" y="628"/>
			<point x="269" y="681"/>
			<point x="349" y="710"/>
			<point name="at01" x="395" y="710" type="qcurve"/>
			<point x="464" y="710"/>
			<point x="538" y="654"/>
			<point x="538" y="597" type="qcurve"/>
			<point x="538" y="559"/>
			<point x="499" y="495"/>
			<point x="437" y="441"/>
			<point x="359" y="395"/>
			<point name="iv04" x="319" y="376" type="qcurve"/>
			<point name="iv05" x="440" y="162" type="line"/>
			<point x="466" y="197"/>
			<point x="509" y="283"/>
			<point x="523" y="332" type="qcurve"/>
			<point name="iv06" x="457" y="332" type="line"/>
			<point name="sv03" x="468" y="377" type="line"/>
			<point x="654" y="377" type="line"/>
			<point x="643" y="332" type="line"/>
			<point name="sv04" x="577" y="332" type="line"/>
			<point x="557" y="268"/>
			<point x="500" y="160"/>
			<point name="iv08" x="465" y="117" type="qcurve"/>
			<point x="483" y="86" type="line"/>
			<point x="496" y="63"/>
			<point x="542" y="45"/>
			<point name="sv05" x="583" y="45" type="qcurve"/>
			<point x="572" y="0" type="line"/>
			<point name="ab02" x="498" y="0" type="line"/>
			<point x="463" y="0"/>
			<point x="420" y="27"/>
			<point name="iv07" x="402" y="56" type="qcurve"/>
			<point x="360" y="22"/>
			<point x="265" y="-12"/>
		</contour>
		<contour>
			<point name="iv01" x="389" y="665" type="qcurve"/>
			<point x="367" y="665"/>
			<point x="329" y="649"/>
			<point x="298" y="621"/>
			<point x="277" y="584"/>
			<point x="271" y="563" type="qcurve"/>
			<point x="269" y="554"/>
			<point x="265" y="534"/>
			<point x="265" y="523" type="qcurve"/>
			<point x="265" y="495"/>
			<point x="282" y="443"/>
			<point name="sv02" x="299" y="412" type="qcurve"/>
			<point x="362" y="444"/>
			<point x="437" y="515"/>
			<point x="447" y="556" type="qcurve"/>
			<point x="449" y="566"/>
			<point x="454" y="588"/>
			<point x="454" y="599" type="qcurve"/>
			<point x="454" y="630"/>
			<point x="420" y="665"/>
		</contour>
		<contour>
			<point name="sv01" x="229" y="39" type="qcurve"/>
			<point x="271" y="39"/>
			<point x="347" y="69"/>
			<point name="iv09" x="379" y="95" type="qcurve"/>
			<point name="iv02" x="242" y="338" type="line"/>
			<point x="191" y="307"/>
			<point x="138" y="235"/>
			<point x="126" y="186" type="qcurve"/>
			<point x="124" y="177"/>
			<point x="118" y="145"/>
			<point x="118" y="134" type="qcurve"/>
			<point x="118" y="85"/>
			<point x="180" y="39"/>
		</contour>
	</outline>
</glyph>
<glyph name="quotesingle" format="2">
	<unicode hex="0027"/>
	<advance width="222"/>
	<outline>
		<contour>
			<point name="hr00" x="172" y="654" type="line"/>
			<point name="at01" x="196" y="748" type="line"/>
			<point x="274" y="748" type="line"/>
			<point x="250" y="654" type="line"/>
			<point x="177" y="462" type="line"/>
			<point name="sv01" x="147" y="462" type="line"/>
		</contour>
	</outline>
</glyph>
<glyph name="parenleft" format="2">
	<unicode hex="0028"/>
	<advance width="307"/>
	<outline>
		<contour>
			<point name="hr00" x="179" y="-154" type="line"/>
			<point x="153" y="-133"/>
			<point x="105" y="-69"/>
			<point x="69" y="13"/>
			<point x="47" y="113"/>
			<point x="47" y="171" type="qcurve"/>
			<point x="47" y="210"/>
			<point x="58" y="292"/>
			<point x="69" y="334" type="qcurve"/>
			<point x="89" y="408"/>
			<point x="162" y="544"/>
			<point x="255" y="659"/>
			<point x="359" y="749"/>
			<point name="av01" x="409" y="778" type="qcurve"/>
			<point x="430" y="746" type="line"/>
			<point x="385" y="715"/>
			<point x="305" y="629"/>
			<point x="239" y="526"/>
			<point x="188" y="407"/>
			<point x="172" y="343" type="qcurve"/>
			<point x="152" y="266" type="line"/>
			<point x="133" y="190"/>
			<point x="133" y="113" type="qcurve"/>
			<point x="133" y="42"/>
			<point x="169" y="-85"/>
			<point x="210" y="-127" type="qcurve"/>
		</contour>
	</outline>
</glyph>
<glyph name="parenright" format="2">
	<unicode hex="0029"/>
	<advance width="307"/>
	<outline>
		<contour>
			<point name="hr00" x="-98" y="-122" type="line"/>
			<point x="-53" y="-91"/>
			<point x="27" y="-5"/>
			<point x="93" y="98"/>
			<point x="144" y="217"/>
			<point x="160" y="281" type="qcurve"/>
			<point x="180" y="358" type="line"/>
			<point x="199" y="434"/>
			<point x="199" y="511" type="qcurve"/>
			<point x="199" y="582"/>
			<point x="162" y="709"/>
			<point x="122" y="751" type="qcurve"/>
			<point name="av01" x="153" y="778" type="line"/>
			<point x="179" y="757"/>
			<point x="227" y="693"/>
			<point x="263" y="611"/>
			<point x="285" y="511"/>
			<point x="285" y="453" type="qcurve"/>
			<point x="285" y="414"/>
			<point x="274" y="332"/>
			<point x="263" y="290" type="qcurve"/>
			<point x="243" y="216"/>
			<point x="170" y="80"/>
			<point x="77" y="-35"/>
			<point x="-27" y="-125"/>
			<point name="av02" x="-77" y="-154" type="qcurve"/>
		</contour>
	</outline>
</glyph>
<glyph name="plus" format="2">
	<unicode hex="002B"/>
	<advance width="550"/>
	<outline>
		<contour>
			<point name="hr00" x="250" y="278" type="line"/>
			<point name="sv01" x="65" y="278" type="line"/>
			<point name="av01" x="78" y="332" type="line"/>
			<point x="263" y="332" type="line"/>
			<point name="sv02" x="314" y="534" type="line"/>
			<point x="375" y="534" type="line"/>
			<point name="sv03" x="324" y="332" type="line"/>
			<point x="507" y="332" type="line"/>
			<point x="494" y="278" type="line"/>
			<point name="sv04" x="311" y="278" type="line"/>
			<point x="260" y="76" type="line"/>
			<point name="sv05" x="199" y="76" type="line"/>
		</contour>
	</outline>
</glyph>
<glyph name="comma" format="2">
	<unicode hex="002C"/>
	<advance width="254"/>
	<outline>
		<contour>
			<point name="hr00" x="-52" y="-138" type="line"/>
			<point x="-15" y="-109"/>
			<point x="43" y="-41"/>
			<point name="ab01" x="60" y="-10" type="qcurve"/>
			<point x="37" y="-8"/>
			<point x="10" y="24"/>
			<point x="10" y="44" type="qcurve"/>
			<point x="10" y="59"/>
			<point x="16" y="74" type="qcurve"/>
			<point x="24" y="95"/>
			<point x="62" y="123"/>
			<point name="sv01" x="88" y="123" type="qcurve"/>
			<point x="117" y="123"/>
			<point x="148" y="89"/>
			<point x="148" y="66" type="qcurve"/>
			<point x="148" y="54"/>
			<point x="143" y="36" type="qcurve"/>
			<point x="137" y="13"/>
			<point x="107" y="-36"/>
			<point x="67" y="-82"/>
			<point x="22" y="-123"/>
			<point x="1" y="-138" type="qcurve"/>
		</contour>
	</outline>
</glyph>
<glyph name="hyphen" format="2">
	<unicode hex="002D"/>
	<advance width="365"/>
	<outline>
		<contour>
			<point name="av01" x="78" y="338" type="line"/>
			<point x="328" y="338" type="line"/>
			<point x="312" y="272" type="line"/>
			<point name="sv01" x="61" y="272" type="line"/>
		</contour>
	</outline>
</glyph>
<glyph name="period" format="2">
	<unicode hex="002E"/>
	<advance width="254"/>
	<outline>
		<contour>
			<point name="ab01" x="69" y="-12" type="qcurve"/>
			<point x="40" y="-12"/>
			<point x="10" y="21"/>
			<point x="10" y="42" type="qcurve"/>
			<point x="10" y="47"/>
			<point x="11" y="56"/>
			<point x="13" y="66" type="qcurve"/>
			<point x="19" y="92"/>
			<point x="60" y="123"/>
			<point name="sv01" x="88" y="123" type="qcurve"/>
			<point x="117" y="123"/>
			<point x="147" y="90"/>
			<point x="147" y="69" type="qcurve"/>
			<point x="147" y="64"/>
			<point x="146" y="55"/>
			<point x="144" y="45" type="qcurve"/>
			<point x="138" y="19"/>
			<point x="97" y="-12"/>
		</contour>
	</outline>
</glyph>
<glyph name="slash" format="2">
	<unicode hex="002F"/>
	<advance width="366"/>
	<outline>
		<contour>
			<point name="at01" x="379" y="748" type="line"/>
			<point x="448" y="748" type="line"/>
			<point x="-20" y="-143" type="line"/>
			<point name="av01" x="-89" y="-143" type="line"/>
		</contour>
	</outline>
</glyph>
<glyph name="zero" format="2">
	<unicode hex="0030"/>
	<advance width="550"/>
	<outline>
		<contour>
			<point name="sv01" x="216" y="37" type="qcurve"/>
			<point x="291" y="37"/>
			<point x="378" y="167"/>
			<point x="406" y="283" type="qcurve"/>
			<point x="421" y="342"/>
			<point x="443" y="426"/>
			<point x="456" y="488"/>
			<point x="463" y="534"/>
			<point x="463" y="556" type="qcurve"/>
			<point x="463" y="604"/>
			<point x="423" y="661"/>
			<point name="sv02" x="377" y="661" type="qcurve"/>
			<point x="339" y="661"/>
			<point x="281" y="627"/>
			<point x="236" y="564"/>
			<point x="201" y="473"/>
			<point x="187" y="415" type="qcurve"/>
			<point x="172" y="356"/>
			<point x="150" y="272"/>
			<point x="137" y="210"/>
			<point x="130" y="164"/>
			<point x="130" y="142" type="qcurve"/>
			<point x="130" y="94"/>
			<point x="170" y="37"/>
		</contour>
		<contour>
			<point name="ab01" x="213" y="-12" type="qcurve"/>
			<point x="130" y="-12"/>
			<point x="44" y="87"/>
			<point x="44" y="188" type="qcurve"/>
			<point x="44" y="222"/>
			<point x="58" y="326"/>
			<point x="90" y="442"/>
			<point x="142" y="558"/>
			<point x="216" y="652"/>
			<point x="316" y="710"/>
			<point name="at01" x="380" y="710" type="qcurve"/>
			<point x="463" y="710"/>
			<point x="549" y="611"/>
			<point x="549" y="510" type="qcurve"/>
			<point x="549" y="476"/>
			<point x="535" y="372"/>
			<point x="503" y="256"/>
			<point x="451" y="140"/>
			<point x="377" y="46"/>
			<point x="277" y="-12"/>
		</contour>
	</outline>
</glyph>
<glyph name="one" format="2">
	<unicode hex="0031"/>
	<advance width="550"/>
	<outline>
		<contour>
			<point name="sv01" x="46" y="45" type="line"/>
			<point x="196" y="45" type="line"/>
			<point name="sv02" x="340" y="625" type="line"/>
			<point x="165" y="549" type="line"/>
			<point x="159" y="593" type="line"/>
			<point name="at01" x="375" y="698" type="line"/>
			<point x="457" y="698" type="line"/>
			<point name="sv03" x="294" y="45" type="line"/>
			<point x="439" y="45" type="line"/>
			<point x="428" y="0" type="line"/>
			<point name="ab01" x="35" y="0" type="line"/>
		</contour>
	</outline>
</glyph>
<glyph name="two" format="2">
	<unicode hex="0032"/>
	<advance width="550"/>
	<outline>
		<contour>
			<point name="sv02" x="2" y="65" type="line"/>
			<point x="258" y="293" type="line"/>
			<point x="315" y="344"/>
			<point x="393" y="447"/>
			<point x="410" y="513" type="qcurve"/>
			<point x="412" y="524"/>
			<point x="421" y="557"/>
			<point x="421" y="573" type="qcurve"/>
			<point x="421" y="613"/>
			<point x="374" y="662"/>
			<point name="sv03" x="330" y="662" type="qcurve"/>
			<point x="294" y="662"/>
			<point x="245" y="648"/>
			<point x="227" y="638" type="qcurve"/>
			<point x="225" y="630" type="line"/>
			<point x="240" y="625"/>
			<point x="259" y="601"/>
			<point x="259" y="583" type="qcurve"/>
			<point x="259" y="572"/>
			<point x="250" y="548"/>
			<point x="233" y="528"/>
			<point x="208" y="515"/>
			<point name="iv01" x="191" y="515" type="qcurve"/>
			<point x="166" y="515"/>
			<point x="137" y="544"/>
			<point x="137" y="569" type="qcurve"/>
			<point x="137" y="597"/>
			<point x="173" y="648"/>
			<point x="233" y="687"/>
			<point x="310" y="710"/>
			<point name="at01" x="350" y="710" type="qcurve"/>
			<point x="438" y="710"/>
			<point x="522" y="633"/>
			<point x="522" y="570" type="qcurve"/>
			<point x="522" y="516"/>
			<point x="482" y="425"/>
			<point x="418" y="346"/>
			<point x="338" y="277"/>
			<point x="297" y="245" type="qcurve"/>
			<point x="87" y="81" type="line"/>
			<point name="sv01" x="84" y="73" type="line"/>
			<point x="377" y="73" type="line"/>
			<point name="sv04" x="404" y="179" type="line"/>
			<point x="456" y="179" type="line"/>
			<point x="411" y="0" type="line"/>
			<point name="ab01" x="-14" y="0" type="line"/>
		</contour>
	</outline>
</glyph>
<glyph name="four" format="2">
	<unicode hex="0034"/>
	<advance width="550"/>
	<outline>
		<contour>
			<point name="hr00" x="293" y="144" type="line"/>
			<point name="sv01" x="6" y="144" type="line"/>
			<point name="sv02" x="21" y="204" type="line"/>
			<point name="at01" x="426" y="698" type="line"/>
			<point x="523" y="698" type="line"/>
			<point name="sv03" x="400" y="208" type="line"/>
			<point x="491" y="208" type="line"/>
			<point x="476" y="144" type="line"/>
			<point name="sv04" x="385" y="144" type="line"/>
			<point x="349" y="0" type="line"/>
			<point name="ab01" x="257" y="0" type="line"/>
		</contour>
		<contour>
			<point name="iv01" x="81" y="208" type="line"/>
			<point x="308" y="208" type="line"/>
			<point x="408" y="605" type="line"/>
			<point name="sv05" x="403" y="605" type="line"/>
		</contour>
	</outline>
</glyph>
<glyph name="five" format="2">
	<unicode hex="0035"/>
	<advance width="550"/>
	<outline>
		<contour>
			<point name="ab01" x="202" y="-12" type="qcurve"/>
			<point x="156" y="-12"/>
			<point x="92" y="9"/>
			<point x="51" y="43"/>
			<point x="33" y="85"/>
			<point x="33" y="105" type="qcurve"/>
			<point x="33" y="143"/>
			<point x="76" y="183"/>
			<point name="iv01" x="103" y="183" type="qcurve"/>
			<point x="130" y="183"/>
			<point x="156" y="152"/>
			<point x="156" y="132" type="qcurve"/>
			<point x="156" y="117"/>
			<point x="144" y="95"/>
			<point x="127" y="80"/>
			<point x="106" y="71"/>
			<point x="97" y="70" type="qcurve"/>
			<point x="94" y="62" type="line"/>
			<point x="110" y="47"/>
			<point x="157" y="35"/>
			<point name="sv01" x="186" y="35" type="qcurve"/>
			<point x="255" y="35"/>
			<point x="346" y="120"/>
			<point x="366" y="198" type="qcurve"/>
			<point x="368" y="206"/>
			<point x="378" y="250"/>
			<point x="378" y="271" type="qcurve"/>
			<point x="378" y="325"/>
			<point x="322" y="371"/>
			<point name="sv03" x="280" y="371" type="qcurve"/>
			<point x="238" y="371"/>
			<point x="173" y="330"/>
			<point x="153" y="304" type="qcurve"/>
			<point x="102" y="316" type="line"/>
			<point name="at01" x="220" y="698" type="line"/>
			<point x="563" y="698" type="line"/>
			<point x="544" y="620" type="line"/>
			<point name="sv02" x="243" y="620" type="line"/>
			<point name="iv03" x="158" y="342" type="line"/>
			<point x="167" y="342" type="line"/>
			<point x="191" y="379"/>
			<point x="270" y="429"/>
			<point name="iv02" x="326" y="429" type="qcurve"/>
			<point x="355" y="429"/>
			<point x="411" y="413"/>
			<point x="454" y="378"/>
			<point x="480" y="321"/>
			<point x="480" y="280" type="qcurve"/>
			<point x="480" y="218"/>
			<point x="436" y="112"/>
			<point x="360" y="33"/>
			<point x="259" y="-12"/>
		</contour>
	</outline>
</glyph>
<glyph name="seven" format="2">
	<unicode hex="0037"/>
	<advance width="550"/>
	<outline>
		<contour>
			<point name="hr00" x="508" y="620" type="line"/>
			<point name="sv01" x="203" y="620" type="line"/>
			<point x="171" y="490" type="line"/>
			<point name="sv02" x="119" y="490" type="line"/>
			<point name="at01" x="171" y="698" type="line"/>
			<point x="596" y="698" type="line"/>
			<point name="sv03" x="581" y="639" type="line"/>
			<point x="188" y="0" type="line"/>
			<point name="ab01" x="93" y="0" type="line"/>
		</contour>
	</outline>
</glyph>
<glyph name="eight" format="2">
	<unicode hex="0038"/>
	<advance width="550"/>
	<outline>
		<contour>
			<point name="ab01" x="215" y="-12" type="qcurve"/>
			<point x="120" y="-12"/>
			<point x="25" y="72"/>
			<point x="25" y="141" type="qcurve"/>
			<point x="25" y="189"/>
			<point x="61" y="266"/>
			<point x="118" y="322"/>
			<point x="190" y="356"/>
			<point x="226" y="361" type="qcurve"/>
			<point name="iv02" x="228" y="368" type="line"/>
			<point x="187" y="379"/>
			<point x="132" y="447"/>
			<point x="132" y="499" type="qcurve"/>
			<point x="132" y="541"/>
			<point x="168" y="617"/>
			<point x="233" y="676"/>
			<point x="323" y="710"/>
			<point name="at01" x="378" y="710" type="qcurve"/>
			<point x="466" y="710"/>
			<point x="552" y="635"/>
			<point x="552" y="572" type="qcurve"/>
			<point x="552" y="530"/>
			<point x="518" y="458"/>
			<point x="466" y="405"/>
			<point x="403" y="372"/>
			<point name="iv03" x="374" y="368" type="qcurve"/>
			<point x="372" y="360" type="line"/>
			<point x="425" y="347"/>
			<point x="485" y="281"/>
			<point x="485" y="227" type="qcurve"/>
			<point x="485" y="183"/>
			<point x="449" y="97"/>
			<point x="380" y="30"/>
			<point x="279" y="-12"/>
		</contour>
		<contour>
			<point name="sv03" x="222" y="35" type="qcurve"/>
			<point x="285" y="35"/>
			<point x="362" y="118"/>
			<point x="378" y="181" type="qcurve"/>
			<point x="380" y="189"/>
			<point x="390" y="231"/>
			<point x="390" y="250" type="qcurve"/>
			<point x="390" y="295"/>
			<point x="338" y="343"/>
			<point name="iv01" x="290" y="343" type="qcurve"/>
			<point x="227" y="343"/>
			<point x="150" y="260"/>
			<point x="134" y="197" type="qcurve"/>
			<point x="132" y="189"/>
			<point x="122" y="147"/>
			<point x="122" y="128" type="qcurve"/>
			<point x="122" y="83"/>
			<point x="174" y="35"/>
		</contour>
		<contour>
			<point name="sv02" x="309" y="389" type="qcurve"/>
			<point x="339" y="389"/>
			<point x="385" y="411"/>
			<point x="419" y="448"/>
			<point x="442" y="498"/>
			<point x="448" y="525" type="qcurve"/>
			<point x="452" y="542"/>
			<point x="458" y="568"/>
			<point x="458" y="582" type="qcurve"/>
			<point x="458" y="624"/>
			<point x="414" y="666"/>
			<point name="sv01" x="373" y="666" type="qcurve"/>
			<point x="343" y="666"/>
			<point x="297" y="644"/>
			<point x="263" y="607"/>
			<point x="240" y="557"/>
			<point x="234" y="530" type="qcurve"/>
			<point x="230" y="513"/>
			<point x="224" y="487"/>
			<point x="224" y="473" type="qcurve"/>
			<point x="224" y="431"/>
			<point x="268" y="389"/>
		</contour>
	</outline>
</glyph>
<glyph name="nine" format="2">
	<unicode hex="0039"/>
	<advance width="550"/>
	<outline>
		<contour>
			<point name="sv01" x="71" y="28" type="line"/>
			<point x="132" y="41"/>
			<point x="241" y="105"/>
			<point x="332" y="193"/>
			<point x="399" y="302"/>
			<point x="418" y="360" type="qcurve"/>
			<point name="iv02" x="411" y="362" type="line"/>
			<point x="400" y="344"/>
			<point x="368" y="309"/>
			<point x="326" y="282"/>
			<point x="274" y="266"/>
			<point name="iv01" x="243" y="266" type="qcurve"/>
			<point x="180" y="266"/>
			<point x="103" y="338"/>
			<point x="103" y="413" type="qcurve"/>
			<point x="103" y="483"/>
			<point x="152" y="593"/>
			<point x="230" y="670"/>
			<point x="330" y="710"/>
			<point name="at01" x="381" y="710" type="qcurve"/>
			<point x="461" y="710"/>
			<point x="551" y="624"/>
			<point x="551" y="537" type="qcurve"/>
			<point x="551" y="456"/>
			<point x="490" y="280"/>
			<point x="369" y="125"/>
			<point x="191" y="9"/>
			<point name="ab01" x="74" y="-12" type="qcurve"/>
		</contour>
		<contour>
			<point name="sv03" x="286" y="318" type="qcurve"/>
			<point x="320" y="318"/>
			<point x="372" y="344"/>
			<point x="411" y="388"/>
			<point x="438" y="448"/>
			<point x="447" y="482" type="qcurve"/>
			<point x="450" y="493"/>
			<point x="461" y="542"/>
			<point x="461" y="567" type="qcurve"/>
			<point x="461" y="610"/>
			<point x="422" y="661"/>
			<point name="sv02" x="377" y="661" type="qcurve"/>
			<point x="343" y="661"/>
			<point x="291" y="635"/>
			<point x="252" y="591"/>
			<point x="225" y="531"/>
			<point x="216" y="497" type="qcurve"/>
			<point x="213" y="486"/>
			<point x="202" y="437"/>
			<point x="202" y="412" type="qcurve"/>
			<point x="202" y="369"/>
			<point x="241" y="318"/>
		</contour>
	</outline>
</glyph>
<glyph name="less" format="2">
	<unicode hex="003C"/>
	<advance width="550"/>
	<outline>
		<contour>
			<point name="hr00" x="79" y="234" type="line"/>
			<point x="95" y="298" type="line"/>
			<point name="av01" x="523" y="544" type="line"/>
			<point x="506" y="475" type="line"/>
			<point x="151" y="264" type="line"/>
			<point x="149" y="256" type="line"/>
			<point x="399" y="45" type="line"/>
			<point name="ab01" x="385" y="-12" type="line"/>
		</contour>
	</outline>
</glyph>
<glyph name="equal" format="2">
	<unicode hex="003D"/>
	<advance width="550"/>
	<outline>
		<contour>
			<point name="sv02" x="52" y="228" type="line"/>
			<point x="481" y="228" type="line"/>
			<point x="468" y="174" type="line"/>
			<point name="sv03" x="39" y="174" type="line"/>
		</contour>
		<contour>
			<point name="av01" x="104" y="436" type="line"/>
			<point x="533" y="436" type="line"/>
			<point x="520" y="382" type="line"/>
			<point name="sv01" x="91" y="382" type="line"/>
		</contour>
	</outline>
</glyph>
<glyph name="greater" format="2">
	<unicode hex="003E"/>
	<advance width="550"/>
	<outline>
		<contour>
			<point name="hr00" x="50" y="57" type="line"/>
			<point x="405" y="268" type="line"/>
			<point x="407" y="276" type="line"/>
			<point x="157" y="487" type="line"/>
			<point name="av01" x="171" y="544" type="line"/>
			<point x="477" y="298" type="line"/>
			<point x="461" y="234" type="line"/>
			<point name="ab01" x="33" y="-12" type="line"/>
		</contour>
	</outline>
</glyph>
<glyph name="question" format="2">
	<unicode hex="003F"/>
	<advance width="452"/>
	<outline>
		<contour>
			<point name="sv04" x="178" y="370" type="line"/>
			<point x="253" y="374"/>
			<point x="359" y="448"/>
			<point x="376" y="517" type="qcurve"/>
			<point x="378" y="527"/>
			<point x="387" y="564"/>
			<point x="387" y="581" type="qcurve"/>
			<point x="387" y="620"/>
			<point x="340" y="662"/>
			<point name="sv05" x="299" y="662" type="qcurve"/>
			<point x="272" y="662"/>
			<point x="217" y="652"/>
			<point x="200" y="641" type="qcurve"/>
			<point x="198" y="634" type="line"/>
			<point x="213" y="629"/>
			<point x="231" y="605"/>
			<point x="231" y="585" type="qcurve"/>
			<point x="231" y="574"/>
			<point x="222" y="550"/>
			<point x="206" y="531"/>
			<point x="181" y="518"/>
			<point name="iv01" x="165" y="518" type="qcurve"/>
			<point x="139" y="518"/>
			<point x="109" y="547"/>
			<point x="109" y="572" type="qcurve"/>
			<point x="109" y="602"/>
			<point x="148" y="652"/>
			<point x="209" y="689"/>
			<point x="287" y="710"/>
			<point name="at01" x="326" y="710" type="qcurve"/>
			<point x="369" y="710"/>
			<point x="431" y="689"/>
			<point x="470" y="653"/>
			<point x="488" y="604"/>
			<point x="488" y="576" type="qcurve"/>
			<point x="488" y="519"/>
			<point x="441" y="428"/>
			<point x="365" y="364"/>
			<point x="269" y="327"/>
			<point name="sv03" x="220" y="323" type="qcurve"/>
			<point x="192" y="210" type="line"/>
			<point name="sv02" x="138" y="210" type="line"/>
		</contour>
		<contour>
			<point name="ab01" x="120" y="-12" type="qcurve"/>
			<point x="91" y="-12"/>
			<point x="61" y="21"/>
			<point name="hr01" x="61" y="42" type="qcurve"/>
			<point x="61" y="47"/>
			<point x="62" y="56"/>
			<point x="64" y="66" type="qcurve"/>
			<point x="70" y="92"/>
			<point x="111" y="123"/>
			<point name="sv01" x="139" y="123" type="qcurve"/>
			<point x="168" y="123"/>
			<point x="198" y="90"/>
			<point x="198" y="69" type="qcurve"/>
			<point x="198" y="64"/>
			<point x="197" y="55"/>
			<point x="195" y="45" type="qcurve"/>
			<point x="189" y="19"/>
			<point x="148" y="-12"/>
		</contour>
	</outline>
</glyph>
<glyph name="at" format="2">
	<unicode hex="0040"/>
	<advance width="840"/>
	<outline>
		<contour>
			<point name="av01" x="356" y="-121" type="qcurve"/>
			<point x="298" y="-121"/>
			<point x="192" y="-86"/>
			<point x="112" y="-14"/>
			<point x="65" y="94"/>
			<point x="65" y="167" type="qcurve"/>
			<point x="65" y="230"/>
			<point x="92" y="359"/>
			<point x="145" y="480"/>
			<point x="222" y="586"/>
			<point x="323" y="664"/>
			<point x="447" y="710"/>
			<point name="at01" x="520" y="710" type="qcurve"/>
			<point x="582" y="710"/>
			<point x="685" y="677"/>
			<point x="759" y="612"/>
			<point x="800" y="515"/>
			<point x="800" y="452" type="qcurve"/>
			<point x="800" y="386"/>
			<point x="768" y="250"/>
			<point x="709" y="139"/>
			<point x="624" y="69"/>
			<point name="sv03" x="571" y="69" type="qcurve"/>
			<point x="526" y="69"/>
			<point x="485" y="120"/>
			<point x="485" y="162" type="qcurve"/>
			<point x="485" y="190"/>
			<point x="495" y="226" type="qcurve"/>
			<point name="iv03" x="487" y="229" type="line"/>
			<point x="471" y="194"/>
			<point x="438" y="135"/>
			<point x="401" y="93"/>
			<point x="358" y="69"/>
			<point name="iv01" x="332" y="69" type="qcurve"/>
			<point x="290" y="69"/>
			<point x="252" y="133"/>
			<point x="252" y="190" type="qcurve"/>
			<point x="252" y="239"/>
			<point x="281" y="352"/>
			<point x="335" y="446"/>
			<point x="412" y="509"/>
			<point name="iv02" x="460" y="509" type="qcurve"/>
			<point x="532" y="509"/>
			<point name="iv04" x="550" y="438" type="qcurve"/>
			<point x="557" y="438" type="line"/>
			<point name="sv04" x="593" y="499" type="line"/>
			<point x="631" y="499" type="line"/>
			<point x="554" y="189" type="line"/>
			<point x="551" y="176"/>
			<point x="549" y="159"/>
			<point x="549" y="152" type="qcurve"/>
			<point x="549" y="131"/>
			<point x="568" y="111"/>
			<point name="sv05" x="585" y="111" type="qcurve"/>
			<point x="606" y="111"/>
			<point x="646" y="140"/>
			<point x="682" y="192"/>
			<point x="711" y="264"/>
			<point x="722" y="308" type="qcurve"/>
			<point x="729" y="334"/>
			<point x="737" y="373"/>
			<point x="742" y="405"/>
			<point x="744" y="434"/>
			<point x="744" y="451" type="qcurve"/>
			<point x="744" y="560"/>
			<point x="625" y="673"/>
			<point name="sv01" x="520" y="673" type="qcurve"/>
			<point x="449" y="673"/>
			<point x="329" y="619"/>
			<point x="233" y="525"/>
			<point x="165" y="397"/>
			<point x="147" y="322" type="qcurve"/>
			<point x="145" y="314"/>
			<point x="137" y="278"/>
			<point x="128" y="233"/>
			<point x="121" y="186"/>
			<point x="121" y="166" type="qcurve"/>
			<point x="121" y="106"/>
			<point x="158" y="14"/>
			<point x="224" y="-48"/>
			<point x="313" y="-80"/>
			<point name="sv02" x="365" y="-80" type="qcurve"/>
			<point x="545" y="-80" type="line"/>
			<point x="537" y="-110" type="line"/>
			<point x="489" y="-115"/>
			<point x="401" y="-121"/>
		</contour>
		<contour>
			<point name="sv06" x="360" y="127" type="qcurve"/>
			<point x="377" y="127"/>
			<point x="413" y="154"/>
			<point x="447" y="197"/>
			<point x="479" y="250"/>
			<point x="504" y="302"/>
			<point x="521" y="347"/>
			<point x="524" y="361" type="qcurve"/>
			<point x="527" y="377" type="line"/>
			<point x="535" y="415"/>
			<point x="515" y="461"/>
			<point name="sv07" x="480" y="461" type="qcurve"/>
			<point x="437" y="461"/>
			<point x="369" y="384"/>
			<point x="349" y="312" type="qcurve"/>
			<point x="345" y="298"/>
			<point x="338" y="265"/>
			<point x="332" y="231"/>
			<point x="328" y="199"/>
			<point x="328" y="188" type="qcurve"/>
			<point x="328" y="159"/>
			<point x="341" y="127"/>
		</contour>
	</outline>
</glyph>
<glyph name="A" format="2">
	<unicode hex="0041"/>
	<advance width="648"/>
	<outline>
		<contour>
			<point name="sv01" x="-41" y="45" type="line"/>
			<point x="10" y="45" type="line"/>
			<point name="at01" x="388" y="698" type="line"/>
			<point x="481" y="698" type="line"/>
			<point name="sv03" x="530" y="45" type="line"/>
			<point x="581" y="45" type="line"/>
			<point x="570" y="0" type="line"/>
			<point name="ab02" x="349" y="0" type="line"/>
			<point name="sv02" x="359" y="45" type="line"/>
			<point x="434" y="45" type="line"/>
			<point x="422" y="229" type="line"/>
			<point name="sv04" x="179" y="229" type="line"/>
			<point name="sv05" x="77" y="45" type="line"/>
			<point x="152" y="45" type="line"/>
			<point x="141" y="0" type="line"/>
			<point name="ab01" x="-52" y="0" type="line"/>
		</contour>
		<contour>
			<point name="iv01" x="204" y="275" type="line"/>
			<point x="420" y="275" type="line"/>
			<point x="400" y="612" type="line"/>
			<point name="sv06" x="393" y="612" type="line"/>
		</contour>
	</outline>
	<anchor name="top" x="432" y="698"/>
	<anchor name="bottomright" x="570" y="0"/>
	<anchor name="bottom" x="244" y="0"/>
</glyph>
<glyph name="B" format="2">
	<unicode hex="0042"/>
	<advance width="618"/>
	<outline>
		<contour>
			<point name="sv01" x="-10" y="45" type="line"/>
			<point x="60" y="45" type="line"/>
			<point x="212" y="653" type="line"/>
			<point name="sv02" x="142" y="653" type="line"/>
			<point name="at01" x="153" y="698" type="line"/>
			<point x="461" y="698" type="line"/>
			<point x="538" y="698"/>
			<point x="618" y="630"/>
			<point x="618" y="564" type="qcurve"/>
			<point x="618" y="491"/>
			<point x="528" y="386"/>
			<point name="iv02" x="451" y="366" type="qcurve"/>
			<point x="449" y="360" type="line"/>
			<point x="500" y="346"/>
			<point x="561" y="278"/>
			<point x="561" y="224" type="qcurve"/>
			<point x="561" y="183"/>
			<point x="528" y="103"/>
			<point x="469" y="39"/>
			<point x="385" y="0"/>
			<point x="334" y="0" type="qcurve"/>
			<point name="ab01" x="-21" y="0" type="line"/>
		</contour>
		<contour>
			<point name="sv04" x="159" y="49" type="line"/>
			<point x="302" y="49" type="line"/>
			<point x="356" y="49"/>
			<point x="433" y="115"/>
			<point name="hr01" x="448" y="170" type="qcurve"/>
			<point x="453" y="190"/>
			<point x="463" y="233"/>
			<point x="463" y="249" type="qcurve"/>
			<point x="463" y="288"/>
			<point x="420" y="336"/>
			<point x="375" y="336" type="qcurve"/>
			<point name="sv05" x="231" y="336" type="line"/>
		</contour>
		<contour>
			<point name="iv01" x="243" y="385" type="line"/>
			<point x="371" y="385" type="line"/>
			<point x="420" y="385"/>
			<point x="493" y="448"/>
			<point name="hr02" x="506" y="498" type="qcurve"/>
			<point x="511" y="516"/>
			<point x="521" y="558"/>
			<point x="521" y="574" type="qcurve"/>
			<point x="521" y="606"/>
			<point x="483" y="649"/>
			<point name="hr03" x="439" y="649" type="qcurve"/>
			<point name="sv03" x="309" y="649" type="line"/>
		</contour>
	</outline>
	<anchor name="top" x="394" y="698"/>
	<anchor name="bottom" x="219" y="0"/>
</glyph>
<glyph name="D" format="2">
	<unicode hex="0044"/>
	<advance width="674"/>
	<outline>
		<contour>
			<point name="sv01" x="-10" y="45" type="line"/>
			<point x="60" y="45" type="line"/>
			<point x="212" y="653" type="line"/>
			<point name="sv02" x="142" y="653" type="line"/>
			<point name="at01" x="153" y="698" type="line"/>
			<point x="425" y="698" type="line"/>
			<point x="534" y="698"/>
			<point x="657" y="577"/>
			<point x="657" y="464" type="qcurve"/>
			<point x="657" y="428"/>
			<point x="642" y="332"/>
			<point x="606" y="229"/>
			<point x="548" y="128"/>
			<point x="462" y="49"/>
			<point x="346" y="0"/>
			<point x="271" y="0" type="qcurve"/>
			<point name="ab01" x="-21" y="0" type="line"/>
		</contour>
		<contour>
			<point name="sv03" x="159" y="49" type="line"/>
			<point x="261" y="49" type="line"/>
			<point x="308" y="49"/>
			<point x="390" y="84"/>
			<point x="457" y="147"/>
			<point x="506" y="237"/>
			<point x="520" y="291" type="qcurve"/>
			<point x="532" y="338"/>
			<point x="547" y="402"/>
			<point x="556" y="447"/>
			<point x="560" y="480"/>
			<point x="560" y="497" type="qcurve"/>
			<point x="560" y="568"/>
			<point x="485" y="649"/>
			<point name="hr01" x="410" y="649" type="qcurve"/>
			<point name="sv04" x="309" y="649" type="line"/>
		</contour>
	</outline>
	<anchor name="top" x="392" y="698"/>
	<anchor name="bottom" x="219" y="0"/>
</glyph>
<glyph name="E" format="2">
	<unicode hex="0045"/>
	<advance width="599"/>
	<outline>
		<contour>
			<point name="sv01" x="-10" y="45" type="line"/>
			<point x="60" y="45" type="line"/>
			<point x="212" y="653" type="line"/>
			<point name="sv02" x="142" y="653" type="line"/>
			<point name="at01" x="153" y="698" type="line"/>
			<point x="645" y="698" type="line"/>
			<point x="602" y="527" type="line"/>
			<point name="sv03" x="526" y="527" type="line"/>
			<point name="hr01" x="556" y="649" type="line"/>
			<point name="sv04" x="309" y="649" type="line"/>
			<point name="iv01" x="243" y="385" type="line"/>
			<point x="417" y="385" type="line"/>
			<point name="sv05" x="437" y="464" type="line"/>
			<point x="491" y="464" type="line"/>
			<point x="439" y="257" type="line"/>
			<point name="sv07" x="385" y="257" type="line"/>
			<point x="405" y="336" type="line"/>
			<point name="sv06" x="231" y="336" type="line"/>
			<point name="sv08" x="159" y="49" type="line"/>
			<point x="416" y="49" type="line"/>
			<point name="sv09" x="450" y="182" type="line"/>
			<point x="526" y="182" type="line"/>
			<point name="hr02" x="481" y="0" type="line"/>
			<point name="ab01" x="-21" y="0" type="line"/>
		</contour>
	</outline>
	<anchor name="top" x="407" y="698"/>
	<anchor name="bottomright" x="481" y="0"/>
	<anchor name="bottom" x="234" y="0"/>
</glyph>
<glyph name="F" format="2">
	<unicode hex="0046"/>
	<advance width="569"/>
	<outline>
		<contour>
			<point name="sv01" x="-10" y="45" type="line"/>
			<point x="60" y="45" type="line"/>
			<point x="212" y="653" type="line"/>
			<point name="sv02" x="142" y="653" type="line"/>
			<point name="at01" x="153" y="698" type="line"/>
			<point x="645" y="698" type="line"/>
			<point x="602" y="527" type="line"/>
			<point name="sv04" x="526" y="527" type="line"/>
			<point name="hr01" x="556" y="649" type="line"/>
			<point name="sv03" x="309" y="649" type="line"/>
			<point name="iv01" x="240" y="371" type="line"/>
			<point x="414" y="371" type="line"/>
			<point name="sv05" x="434" y="450" type="line"/>
			<point x="488" y="450" type="line"/>
			<point x="436" y="243" type="line"/>
			<point name="sv07" x="382" y="243" type="line"/>
			<point x="402" y="322" type="line"/>
			<point name="sv06" x="228" y="322" type="line"/>
			<point name="sv08" x="158" y="45" type="line"/>
			<point x="248" y="45" type="line"/>
			<point x="237" y="0" type="line"/>
			<point name="ab01" x="-21" y="0" type="line"/>
		</contour>
	</outline>
	<anchor name="top" x="407" y="698"/>
	<anchor name="bottom" x="101" y="0"/>
</glyph>
<glyph name="G" format="2">
	<unicode hex="0047"/>
	<advance width="685"/>
	<outline>
		<contour>
			<point name="ab01" x="266" y="-12" type="qcurve"/>
			<point x="168" y="-12"/>
			<point x="57" y="107"/>
			<point x="57" y="222" type="qcurve"/>
			<point x="57" y="272"/>
			<point x="78" y="383"/>
			<point x="120" y="492"/>
			<point x="183" y="590"/>
			<point x="266" y="665"/>
			<point x="370" y="710"/>
			<point name="at01" x="432" y="710" type="qcurve"/>
			<point x="496" y="710"/>
			<point x="578" y="667"/>
			<point name="iv01" x="588" y="635" type="qcurve"/>
			<point x="594" y="635" type="line"/>
			<point name="at02" x="610" y="698" type="line"/>
			<point x="686" y="698" type="line"/>
			<point x="635" y="491" type="line"/>
			<point name="sv02" x="559" y="491" type="line"/>
			<point x="572" y="543" type="line"/>
			<point x="575" y="556"/>
			<point x="575" y="570" type="qcurve"/>
			<point x="575" y="611"/>
			<point x="503" y="657"/>
			<point name="sv01" x="445" y="657" type="qcurve"/>
			<point x="395" y="657"/>
			<point x="314" y="617"/>
			<point x="252" y="549"/>
			<point x="208" y="459"/>
			<point x="196" y="409" type="qcurve"/>
			<point x="184" y="361"/>
			<point x="168" y="297"/>
			<point x="158" y="250"/>
			<point x="154" y="215"/>
			<point x="154" y="197" type="qcurve"/>
			<point x="154" y="128"/>
			<point x="221" y="44"/>
			<point name="sv03" x="284" y="44" type="qcurve"/>
			<point x="317" y="44"/>
			<point x="378" y="64"/>
			<point x="428" y="103"/>
			<point x="465" y="158"/>
			<point name="hr01" x="474" y="194" type="qcurve"/>
			<point x="499" y="293" type="line"/>
			<point name="sv04" x="389" y="293" type="line"/>
			<point name="iv02" x="400" y="338" type="line"/>
			<point x="664" y="338" type="line"/>
			<point x="653" y="293" type="line"/>
			<point name="sv05" x="596" y="293" type="line"/>
			<point x="524" y="0" type="line"/>
			<point name="ab02" x="489" y="0" type="line"/>
			<point x="466" y="91" type="line"/>
			<point name="iv03" x="459" y="91" type="line"/>
			<point x="447" y="72"/>
			<point x="411" y="35"/>
			<point x="363" y="6"/>
			<point x="302" y="-12"/>
		</contour>
	</outline>
	<anchor name="top" x="429" y="698"/>
	<anchor name="bottom" x="271" y="0"/>
</glyph>
<glyph name="H" format="2">
	<unicode hex="0048"/>
	<advance width="729"/>
	<outline>
		<contour>
			<point name="sv01" x="-10" y="45" type="line"/>
			<point x="60" y="45" type="line"/>
			<point x="212" y="653" type="line"/>
			<point name="sv02" x="142" y="653" type="line"/>
			<point name="at01" x="153" y="698" type="line"/>
			<point x="391" y="698" type="line"/>
			<point x="380" y="653" type="line"/>
			<point name="sv03" x="310" y="653" type="line"/>
			<point name="iv01" x="242" y="380" type="line"/>
			<point x="548" y="380" type="line"/>
			<point x="616" y="653" type="line"/>
			<point name="sv04" x="546" y="653" type="line"/>
			<point name="at02" x="557" y="698" type="line"/>
			<point x="795" y="698" type="line"/>
			<point x="784" y="653" type="line"/>
			<point name="sv05" x="714" y="653" type="line"/>
			<point name="sv07" x="562" y="45" type="line"/>
			<point x="632" y="45" type="line"/>
			<point x="621" y="0" type="line"/>
			<point name="ab02" x="383" y="0" type="line"/>
			<point name="sv06" x="394" y="45" type="line"/>
			<point x="464" y="45" type="line"/>
			<point x="536" y="331" type="line"/>
			<point name="sv08" x="230" y="331" type="line"/>
			<point name="sv09" x="158" y="45" type="line"/>
			<point x="228" y="45" type="line"/>
			<point x="217" y="0" type="line"/>
			<point name="ab01" x="-21" y="0" type="line"/>
		</contour>
	</outline>
	<anchor name="top" x="476" y="698"/>
	<anchor name="bottom" x="301" y="0"/>
</glyph>
<glyph name="I" format="2">
	<unicode hex="0049"/>
	<advance width="325"/>
	<outline>
		<contour>
			<point name="sv01" x="-10" y="45" type="line"/>
			<point x="60" y="45" type="line"/>
			<point x="212" y="653" type="line"/>
			<point name="sv02" x="142" y="653" type="line"/>
			<point name="at01" x="153" y="698" type="line"/>
			<point x="391" y="698" type="line"/>
			<point x="380" y="653" type="line"/>
			<point name="sv03" x="310" y="653" type="line"/>
			<point name="sv04" x="158" y="45" type="line"/>
			<point x="228" y="45" type="line"/>
			<point x="217" y="0" type="line"/>
			<point name="ab01" x="-21" y="0" type="line"/>
		</contour>
	</outline>
	<anchor name="top" x="272" y="698"/>
	<anchor name="bottomright" x="217" y="0"/>
	<anchor name="bottom" x="98" y="0"/>
</glyph>
<glyph name="J" format="2">
	<unicode hex="004A"/>
	<advance width="442"/>
	<outline>
		<contour>
			<point name="ab01" x="105" y="-12" type="qcurve"/>
			<point x="37" y="-12"/>
			<point x="-23" y="42"/>
			<point x="-23" y="78" type="qcurve"/>
			<point x="-23" y="107"/>
			<point x="11" y="148"/>
			<point name="iv01" x="41" y="148" type="qcurve"/>
			<point x="67" y="148"/>
			<point x="97" y="118"/>
			<point x="97" y="95" type="qcurve"/>
			<point x="97" y="81"/>
			<point x="80" y="51"/>
			<point x="60" y="42" type="qcurve"/>
			<point x="60" y="39" type="line"/>
			<point x="65" y="37"/>
			<point x="85" y="32"/>
			<point name="sv01" x="96" y="32" type="qcurve"/>
			<point x="144" y="32"/>
			<point x="202" y="93"/>
			<point x="216" y="153" type="qcurve"/>
			<point x="341" y="653" type="line"/>
			<point name="sv02" x="251" y="653" type="line"/>
			<point name="at01" x="262" y="698" type="line"/>
			<point x="520" y="698" type="line"/>
			<point x="509" y="653" type="line"/>
			<point name="sv03" x="439" y="653" type="line"/>
			<point x="314" y="153" type="line"/>
			<point x="293" y="68"/>
			<point x="189" y="-12"/>
		</contour>
	</outline>
	<anchor name="top" x="389" y="698"/>
	<anchor name="bottom" x="117" y="0"/>
</glyph>
<glyph name="K" format="2">
	<unicode hex="004B"/>
	<advance width="678"/>
	<outline>
		<contour>
			<point name="sv01" x="-10" y="45" type="line"/>
			<point x="60" y="45" type="line"/>
			<point x="212" y="653" type="line"/>
			<point name="sv02" x="142" y="653" type="line"/>
			<point name="at01" x="153" y="698" type="line"/>
			<point x="390" y="698" type="line"/>
			<point x="379" y="653" type="line"/>
			<point name="sv03" x="310" y="653" type="line"/>
			<point x="227" y="322" type="line"/>
			<point x="233" y="322" type="line"/>
			<point name="iv01" x="340" y="422" type="line"/>
			<point x="590" y="653" type="line"/>
			<point name="sv04" x="510" y="653" type="line"/>
			<point name="at02" x="521" y="698" type="line"/>
			<point x="734" y="698" type="line"/>
			<point x="723" y="653" type="line"/>
			<point name="sv05" x="662" y="653" type="line"/>
			<point x="407" y="418" type="line"/>
			<point name="sv07" x="543" y="45" type="line"/>
			<point x="603" y="45" type="line"/>
			<point x="592" y="0" type="line"/>
			<point name="ab02" x="356" y="0" type="line"/>
			<point name="sv06" x="368" y="45" type="line"/>
			<point x="437" y="45" type="line"/>
			<point name="sv08" x="331" y="358" type="line"/>
			<point x="208" y="244" type="line"/>
			<point name="sv09" x="158" y="45" type="line"/>
			<point x="228" y="45" type="line"/>
			<point x="217" y="0" type="line"/>
			<point name="ab01" x="-21" y="0" type="line"/>
		</contour>
	</outline>
	<anchor name="top" x="452" y="698"/>
	<anchor name="bottom" x="289" y="0"/>
</glyph>
<glyph name="L" format="2">
	<unicode hex="004C"/>
	<advance width="549"/>
	<outline>
		<contour>
			<point name="sv01" x="-10" y="45" type="line"/>
			<point x="60" y="45" type="line"/>
			<point x="212" y="653" type="line"/>
			<point name="sv02" x="142" y="653" type="line"/>
			<point name="at01" x="153" y="698" type="line"/>
			<point x="391" y="698" type="line"/>
			<point x="380" y="653" type="line"/>
			<point name="sv03" x="310" y="653" type="line"/>
			<point name="sv04" x="159" y="49" type="line"/>
			<point x="388" y="49" type="line"/>
			<point name="sv05" x="421" y="182" type="line"/>
			<point x="497" y="182" type="line"/>
			<point name="hr02" x="452" y="0" type="line"/>
			<point name="ab01" x="-21" y="0" type="line"/>
		</contour>
	</outline>
	<anchor name="top" x="273" y="698"/>
	<anchor name="topright" x="413" y="740"/>
	<anchor name="bottom" x="228" y="0"/>
</glyph>
<glyph name="M" format="2">
	<unicode hex="004D"/>
	<advance width="810"/>
	<outline>
		<contour>
			<point name="sv01" x="-10" y="45" type="line"/>
			<point x="60" y="45" type="line"/>
			<point x="212" y="653" type="line"/>
			<point name="sv02" x="142" y="653" type="line"/>
			<point name="at01" x="153" y="698" type="line"/>
			<point x="333" y="698" type="line"/>
			<point name="sv03" x="401" y="291" type="line"/>
			<point x="408" y="291" type="line"/>
			<point name="at02" x="683" y="698" type="line"/>
			<point x="876" y="698" type="line"/>
			<point x="865" y="653" type="line"/>
			<point name="sv04" x="795" y="653" type="line"/>
			<point name="sv06" x="643" y="45" type="line"/>
			<point x="713" y="45" type="line"/>
			<point x="702" y="0" type="line"/>
			<point name="ab02" x="464" y="0" type="line"/>
			<point name="sv05" x="475" y="45" type="line"/>
			<point x="545" y="45" type="line"/>
			<point x="683" y="598" type="line"/>
			<point name="sv07" x="677" y="598" type="line"/>
			<point x="578" y="454" type="line"/>
			<point name="iv01" x="349" y="117" type="line"/>
			<point x="287" y="455" type="line"/>
			<point name="hr01" x="261" y="597" type="line"/>
			<point name="sv08" x="255" y="597" type="line"/>
			<point name="sv09" x="116" y="45" type="line"/>
			<point x="186" y="45" type="line"/>
			<point x="174" y="0" type="line"/>
			<point name="ab01" x="-21" y="0" type="line"/>
		</contour>
	</outline>
	<anchor name="top" x="502" y="698"/>
	<anchor name="bottom" x="319" y="0"/>
</glyph>
<glyph name="N" format="2">
	<unicode hex="004E"/>
	<advance width="715"/>
	<outline>
		<contour>
			<point name="sv01" x="-10" y="45" type="line"/>
			<point x="60" y="45" type="line"/>
			<point x="212" y="653" type="line"/>
			<point name="sv02" x="142" y="653" type="line"/>
			<point name="at01" x="153" y="698" type="line"/>
			<point x="329" y="698" type="line"/>
			<point name="sv03" x="522" y="146" type="line"/>
			<point x="529" y="146" type="line"/>
			<point x="656" y="653" type="line"/>
			<point name="sv04" x="586" y="653" type="line"/>
			<point name="at02" x="597" y="698" type="line"/>
			<point x="793" y="698" type="line"/>
			<point x="782" y="653" type="line"/>
			<point name="sv05" x="712" y="653" type="line"/>
			<point x="548" y="0" type="line"/>
			<point name="ab02" x="476" y="0" type="line"/>
			<point name="hr02" x="262" y="602" type="line"/>
			<point name="sv06" x="255" y="602" type="line"/>
			<point name="sv07" x="116" y="45" type="line"/>
			<point x="186" y="45" type="line"/>
			<point x="175" y="0" type="line"/>
			<point name="ab01" x="-21" y="0" type="line"/>
		</contour>
	</outline>
	<anchor name="top" x="480" y="698"/>
	<anchor name="bottom" x="309" y="0"/>
</glyph>
<glyph name="P" format="2">
	<unicode hex="0050"/>
	<advance width="594"/>
	<outline>
		<contour>
			<point name="sv01" x="-10" y="45" type="line"/>
			<point x="60" y="45" type="line"/>
			<point x="212" y="653" type="line"/>
			<point name="sv02" x="142" y="653" type="line"/>
			<point name="at01" x="153" y="698" type="line"/>
			<point x="464" y="698" type="line"/>
			<point x="536" y="698"/>
			<point x="620" y="631"/>
			<point x="620" y="566" type="qcurve"/>
			<point x="620" y="537"/>
			<point x="601" y="453"/>
			<point x="548" y="376"/>
			<point x="453" y="321"/>
			<point x="378" y="321" type="qcurve"/>
			<point name="sv03" x="228" y="321" type="line"/>
			<point name="sv04" x="158" y="45" type="line"/>
			<point x="248" y="45" type="line"/>
			<point x="237" y="0" type="line"/>
			<point name="ab01" x="-21" y="0" type="line"/>
		</contour>
		<contour>
			<point name="iv01" x="240" y="370" type="line"/>
			<point x="372" y="370" type="line"/>
			<point x="423" y="370"/>
			<point x="494" y="435"/>
			<point x="507" y="486" type="qcurve"/>
			<point x="510" y="500"/>
			<point x="523" y="552"/>
			<point x="523" y="571" type="qcurve"/>
			<point x="523" y="606"/>
			<point x="484" y="649"/>
			<point x="443" y="649" type="qcurve"/>
			<point name="sv05" x="309" y="649" type="line"/>
		</contour>
	</outline>
	<anchor name="top" x="395" y="698"/>
	<anchor name="bottom" x="101" y="0"/>
</glyph>
<glyph name="Q" format="2">
	<unicode hex="0051"/>
	<advance width="685"/>
	<outline>
		<contour>
			<point name="av01" x="420" y="-176" type="line"/>
			<point x="369" y="-176"/>
			<point x="317" y="-142"/>
			<point x="298" y="-107" type="qcurve"/>
			<point name="ab01" x="244" y="-9" type="line"/>
			<point x="155" y="3"/>
			<point x="57" y="131"/>
			<point x="57" y="235" type="qcurve"/>
			<point x="57" y="276"/>
			<point x="76" y="378"/>
			<point x="115" y="484"/>
			<point x="176" y="584"/>
			<point x="261" y="662"/>
			<point x="371" y="710"/>
			<point name="at01" x="440" y="710" type="qcurve"/>
			<point x="549" y="710"/>
			<point x="668" y="578"/>
			<point x="668" y="463" type="qcurve"/>
			<point x="668" y="425"/>
			<point x="652" y="331"/>
			<point x="618" y="233"/>
			<point x="566" y="138"/>
			<point x="493" y="58"/>
			<point x="399" y="2"/>
			<point name="iv01" x="341" y="-7" type="qcurve"/>
			<point x="395" y="-85" type="line"/>
			<point x="411" y="-108"/>
			<point x="448" y="-131"/>
			<point name="sv02" x="479" y="-131" type="qcurve"/>
			<point x="497" y="-131" type="line"/>
			<point x="485" y="-176" type="line"/>
		</contour>
		<contour>
			<point name="sv01" x="296" y="40" type="qcurve"/>
			<point x="341" y="40"/>
			<point x="416" y="77"/>
			<point x="474" y="143"/>
			<point x="517" y="232"/>
			<point x="529" y="284" type="qcurve"/>
			<point x="541" y="330"/>
			<point x="557" y="397"/>
			<point x="567" y="448"/>
			<point x="571" y="488"/>
			<point x="571" y="508" type="qcurve"/>
			<point x="571" y="540"/>
			<point x="555" y="595"/>
			<point x="521" y="635"/>
			<point x="468" y="658"/>
			<point name="sv03" x="430" y="658" type="qcurve"/>
			<point x="385" y="658"/>
			<point x="310" y="621"/>
			<point x="251" y="555"/>
			<point x="209" y="466"/>
			<point x="196" y="414" type="qcurve"/>
			<point x="184" y="367"/>
			<point x="168" y="301"/>
			<point x="158" y="250"/>
			<point x="154" y="210"/>
			<point x="154" y="190" type="qcurve"/>
			<point x="154" y="158"/>
			<point x="170" y="103"/>
			<point x="204" y="63"/>
			<point x="258" y="40"/>
		</contour>
	</outline>
	<anchor name="top" x="437" y="698"/>
</glyph>
<glyph name="R" format="2">
	<unicode hex="0052"/>
	<advance width="629"/>
	<outline>
		<contour>
			<point name="sv01" x="-10" y="45" type="line"/>
			<point x="60" y="45" type="line"/>
			<point x="212" y="653" type="line"/>
			<point name="sv02" x="142" y="653" type="line"/>
			<point name="at01" x="153" y="698" type="line"/>
			<point x="464" y="698" type="line"/>
			<point x="536" y="698"/>
			<point x="620" y="631"/>
			<point x="620" y="567" type="qcurve"/>
			<point x="620" y="529"/>
			<point x="599" y="451"/>
			<point x="553" y="385"/>
			<point x="479" y="336"/>
			<point name="iv02" x="427" y="328" type="qcurve"/>
			<point x="488" y="104" type="line"/>
			<point x="496" y="75"/>
			<point x="528" y="45"/>
			<point name="sv04" x="560" y="45" type="qcurve"/>
			<point x="572" y="45" type="line"/>
			<point x="561" y="0" type="line"/>
			<point name="ab02" x="503" y="0" type="line"/>
			<point x="475" y="0"/>
			<point x="437" y="8"/>
			<point x="411" y="29"/>
			<point x="394" y="65"/>
			<point x="388" y="92" type="qcurve"/>
			<point x="334" y="321" type="line"/>
			<point name="sv03" x="228" y="321" type="line"/>
			<point name="sv05" x="158" y="45" type="line"/>
			<point x="228" y="45" type="line"/>
			<point x="217" y="0" type="line"/>
			<point name="ab01" x="-21" y="0" type="line"/>
		</contour>
		<contour>
			<point name="iv01" x="240" y="370" type="line"/>
			<point x="372" y="370" type="line"/>
			<point x="423" y="370"/>
			<point x="494" y="435"/>
			<point x="507" y="486" type="qcurve"/>
			<point x="510" y="500"/>
			<point x="523" y="552"/>
			<point x="523" y="571" type="qcurve"/>
			<point x="523" y="606"/>
			<point x="484" y="649"/>
			<point x="443" y="649" type="qcurve"/>
			<point name="sv06" x="309" y="649" type="line"/>
		</contour>
	</outline>
	<anchor name="top" x="395" y="698"/>
	<anchor name="bottom" x="291" y="0"/>
</glyph>
<glyph name="S" format="2">
	<unicode hex="0053"/>
	<advance width="556"/>
	<outline>
		<contour>
			<point name="ab01" x="226" y="-12" type="qcurve"/>
			<point x="170" y="-12"/>
			<point x="97" y="28"/>
			<point x="91" y="63" type="qcurve"/>
			<point name="iv01" x="84" y="63" type="line"/>
			<point x="68" y="0" type="line"/>
			<point name="ab02" x="-8" y="0" type="line"/>
			<point name="sv02" x="43" y="205" type="line"/>
			<point x="119" y="205" type="line"/>
			<point x="106" y="157" type="line"/>
			<point x="104" y="148"/>
			<point x="101" y="132"/>
			<point x="101" y="124" type="qcurve"/>
			<point x="101" y="87"/>
			<point x="158" y="40"/>
			<point name="sv01" x="219" y="40" type="qcurve"/>
			<point x="260" y="40"/>
			<point x="328" y="64"/>
			<point x="376" y="106"/>
			<point x="403" y="163"/>
			<point x="403" y="197" type="qcurve"/>
			<point x="403" y="241"/>
			<point x="355" y="288"/>
			<point x="309" y="306" type="qcurve"/>
			<point name="iv02" x="262" y="324" type="line"/>
			<point x="193" y="351"/>
			<point x="126" y="428"/>
			<point x="126" y="492" type="qcurve"/>
			<point x="126" y="539"/>
			<point x="164" y="619"/>
			<point x="231" y="677"/>
			<point x="322" y="710"/>
			<point name="at01" x="375" y="710" type="qcurve"/>
			<point x="429" y="710"/>
			<point x="498" y="672"/>
			<point name="iv03" x="503" y="640" type="qcurve"/>
			<point x="510" y="640" type="line"/>
			<point name="at02" x="525" y="698" type="line"/>
			<point x="601" y="698" type="line"/>
			<point x="552" y="501" type="line"/>
			<point name="sv04" x="476" y="501" type="line"/>
			<point x="488" y="549" type="line"/>
			<point x="492" y="566"/>
			<point x="492" y="580" type="qcurve"/>
			<point x="492" y="618"/>
			<point x="435" y="658"/>
			<point name="sv03" x="378" y="658" type="qcurve"/>
			<point x="336" y="658"/>
			<point x="275" y="635"/>
			<point x="235" y="597"/>
			<point x="215" y="548"/>
			<point x="215" y="523" type="qcurve"/>
			<point x="215" y="481"/>
			<point x="263" y="431"/>
			<point name="iv04" x="316" y="410" type="qcurve"/>
			<point x="359" y="394" type="line"/>
			<point x="430" y="365"/>
			<point x="492" y="288"/>
			<point x="492" y="230" type="qcurve"/>
			<point x="492" y="181"/>
			<point x="453" y="93"/>
			<point x="382" y="27"/>
			<point x="284" y="-12"/>
		</contour>
	</outline>
	<anchor name="top" x="371" y="698"/>
	<anchor name="bottom" x="230" y="0"/>
</glyph>
<glyph name="T" format="2">
	<unicode hex="0054"/>
	<advance width="618"/>
	<outline>
		<contour>
			<point name="sv01" x="117" y="45" type="line"/>
			<point x="207" y="45" type="line"/>
			<point x="357" y="649" type="line"/>
			<point name="sv02" x="205" y="649" type="line"/>
			<point x="174" y="527" type="line"/>
			<point name="sv03" x="98" y="527" type="line"/>
			<point name="at01" x="141" y="698" type="line"/>
			<point x="696" y="698" type="line"/>
			<point x="653" y="527" type="line"/>
			<point name="sv04" x="577" y="527" type="line"/>
			<point x="607" y="649" type="line"/>
			<point name="sv05" x="455" y="649" type="line"/>
			<point name="sv06" x="305" y="45" type="line"/>
			<point x="395" y="45" type="line"/>
			<point x="384" y="0" type="line"/>
			<point name="ab01" x="106" y="0" type="line"/>
		</contour>
	</outline>
	<anchor name="top" x="419" y="698"/>
	<anchor name="bottom" x="245" y="0"/>
</glyph>
<glyph name="U" format="2">
	<unicode hex="0055"/>
	<advance width="682"/>
	<outline>
		<contour>
			<point name="ab01" x="294" y="-12" type="qcurve"/>
			<point x="246" y="-12"/>
			<point x="170" y="7"/>
			<point x="117" y="48"/>
			<point x="89" y="112"/>
			<point x="89" y="158" type="qcurve"/>
			<point x="89" y="205"/>
			<point x="107" y="270" type="qcurve"/>
			<point x="202" y="653" type="line"/>
			<point name="sv01" x="132" y="653" type="line"/>
			<point name="at01" x="143" y="698" type="line"/>
			<point x="381" y="698" type="line"/>
			<point x="370" y="653" type="line"/>
			<point name="sv02" x="300" y="653" type="line"/>
			<point x="198" y="245" type="line"/>
			<point x="191" y="217"/>
			<point x="183" y="167"/>
			<point x="183" y="146" type="qcurve"/>
			<point x="183" y="95"/>
			<point x="241" y="42"/>
			<point name="sv03" x="305" y="42" type="qcurve"/>
			<point x="394" y="42"/>
			<point x="493" y="145"/>
			<point x="520" y="251" type="qcurve"/>
			<point x="620" y="653" type="line"/>
			<point name="sv04" x="550" y="653" type="line"/>
			<point name="at02" x="561" y="698" type="line"/>
			<point x="757" y="698" type="line"/>
			<point x="746" y="653" type="line"/>
			<point name="sv05" x="676" y="653" type="line"/>
			<point x="576" y="249" type="line"/>
			<point x="558" y="178"/>
			<point x="508" y="78"/>
			<point x="439" y="16"/>
			<point x="350" y="-12"/>
		</contour>
	</outline>
	<anchor name="top" x="470" y="698"/>
	<anchor name="bottomright" x="388" y="0"/>
	<anchor name="bottom" x="296" y="0"/>
</glyph>
<glyph name="V" format="2">
	<unicode hex="0056"/>
	<advance width="617"/>
	<outline>
		<contour>
			<point name="hr00" x="160" y="653" type="line"/>
			<point name="sv01" x="109" y="653" type="line"/>
			<point name="at01" x="120" y="698" type="line"/>
			<point x="342" y="698" type="line"/>
			<point x="331" y="653" type="line"/>
			<point name="sv02" x="256" y="653" type="line"/>
			<point x="272" y="360" type="line"/>
			<point name="sv03" x="283" y="102" type="line"/>
			<point x="289" y="102" type="line"/>
			<point x="427" y="358" type="line"/>
			<point x="590" y="653" type="line"/>
			<point name="sv04" x="515" y="653" type="line"/>
			<point name="at02" x="526" y="698" type="line"/>
			<point x="715" y="698" type="line"/>
			<point x="704" y="653" type="line"/>
			<point name="sv05" x="653" y="653" type="line"/>
			<point x="285" y="0" type="line"/>
			<point name="ab01" x="203" y="0" type="line"/>
		</contour>
	</outline>
	<anchor name="top" x="430" y="698"/>
	<anchor name="bottom" x="243" y="0"/>
</glyph>
<glyph name="W" format="2">
	<unicode hex="0057"/>
	<advance width="901"/>
	<outline>
		<contour>
			<point x="162" y="653" type="line"/>
			<point name="sv01" x="111" y="653" type="line"/>
			<point name="at01" x="122" y="698" type="line"/>
			<point x="344" y="698" type="line"/>
			<point x="333" y="653" type="line"/>
			<point name="sv02" x="258" y="653" type="line"/>
			<point name="sv03" x="241" y="124" type="line"/>
			<point x="248" y="124" type="line"/>
			<point name="at03" x="533" y="698" type="line"/>
			<point x="622" y="698" type="line"/>
			<point name="sv04" x="618" y="124" type="line"/>
			<point x="624" y="124" type="line"/>
			<point x="874" y="653" type="line"/>
			<point name="sv05" x="799" y="653" type="line"/>
			<point name="at02" x="810" y="698" type="line"/>
			<point x="1001" y="698" type="line"/>
			<point x="990" y="653" type="line"/>
			<point name="sv06" x="939" y="653" type="line"/>
			<point x="618" y="0" type="line"/>
			<point name="ab02" x="530" y="0" type="line"/>
			<point name="hr01" x="535" y="574" type="line"/>
			<point name="sv07" x="530" y="574" type="line"/>
			<point name="hr02" x="242" y="0" type="line"/>
			<point name="ab01" x="152" y="0" type="line"/>
		</contour>
	</outline>
	<anchor name="top" x="578" y="698"/>
	<anchor name="bottom" x="390" y="0"/>
</glyph>
<glyph name="X" format="2">
	<unicode hex="0058"/>
	<advance width="616"/>
	<outline>
		<contour>
			<point name="sv01" x="-45" y="45" type="line"/>
			<point x="14" y="45" type="line"/>
			<point name="iv01" x="283" y="345" type="line"/>
			<point x="173" y="653" type="line"/>
			<point name="sv02" x="114" y="653" type="line"/>
			<point name="at01" x="125" y="698" type="line"/>
			<point x="350" y="698" type="line"/>
			<point x="339" y="653" type="line"/>
			<point name="sv03" x="274" y="653" type="line"/>
			<point name="sv04" x="357" y="411" type="line"/>
			<point x="363" y="411" type="line"/>
			<point x="570" y="653" type="line"/>
			<point name="sv05" x="505" y="653" type="line"/>
			<point name="at02" x="516" y="698" type="line"/>
			<point x="712" y="698" type="line"/>
			<point x="701" y="653" type="line"/>
			<point name="sv06" x="642" y="653" type="line"/>
			<point name="iv02" x="378" y="360" type="line"/>
			<point name="sv08" x="492" y="45" type="line"/>
			<point x="551" y="45" type="line"/>
			<point x="540" y="0" type="line"/>
			<point name="ab02" x="313" y="0" type="line"/>
			<point name="sv07" x="324" y="45" type="line"/>
			<point x="389" y="45" type="line"/>
			<point x="305" y="293" type="line"/>
			<point name="sv09" x="298" y="293" type="line"/>
			<point name="sv10" x="84" y="45" type="line"/>
			<point x="149" y="45" type="line"/>
			<point x="138" y="0" type="line"/>
			<point name="ab01" x="-56" y="0" type="line"/>
		</contour>
	</outline>
	<anchor name="top" x="432" y="698"/>
	<anchor name="bottom" x="227" y="0"/>
</glyph>
<glyph name="Y" format="2">
	<unicode hex="0059"/>
	<advance width="598"/>
	<outline>
		<contour>
			<point name="sv01" x="117" y="45" type="line"/>
			<point x="197" y="45" type="line"/>
			<point name="iv01" x="256" y="284" type="line"/>
			<point x="159" y="653" type="line"/>
			<point name="sv02" x="108" y="653" type="line"/>
			<point name="at01" x="119" y="698" type="line"/>
			<point x="347" y="698" type="line"/>
			<point x="336" y="653" type="line"/>
			<point name="sv03" x="261" y="653" type="line"/>
			<point name="sv04" x="334" y="348" type="line"/>
			<point x="340" y="348" type="line"/>
			<point x="565" y="653" type="line"/>
			<point name="sv05" x="490" y="653" type="line"/>
			<point name="at02" x="500" y="698" type="line"/>
			<point x="696" y="698" type="line"/>
			<point x="685" y="653" type="line"/>
			<point name="sv06" x="634" y="653" type="line"/>
			<point x="356" y="290" type="line"/>
			<point name="sv07" x="295" y="45" type="line"/>
			<point x="375" y="45" type="line"/>
			<point x="364" y="0" type="line"/>
			<point name="ab01" x="106" y="0" type="line"/>
		</contour>
	</outline>
	<anchor name="top" x="424" y="698"/>
	<anchor name="bottom" x="235" y="0"/>
</glyph>
<glyph name="Z" format="2">
	<unicode hex="005A"/>
	<advance width="581"/>
	<outline>
		<contour>
			<point name="sv02" x="-7" y="49" type="line"/>
			<point x="509" y="649" type="line"/>
			<point name="sv03" x="228" y="649" type="line"/>
			<point x="198" y="527" type="line"/>
			<point name="sv04" x="122" y="527" type="line"/>
			<point name="at01" x="165" y="698" type="line"/>
			<point x="632" y="698" type="line"/>
			<point name="sv05" x="620" y="649" type="line"/>
			<point name="sv01" x="104" y="49" type="line"/>
			<point x="404" y="49" type="line"/>
			<point name="sv06" x="438" y="182" type="line"/>
			<point x="514" y="182" type="line"/>
			<point x="468" y="0" type="line"/>
			<point name="ab01" x="-19" y="0" type="line"/>
		</contour>
	</outline>
	<anchor name="top" x="388" y="698"/>
	<anchor name="bottom" x="238" y="0"/>
</glyph>
<glyph name="bracketleft" format="2">
	<unicode hex="005B"/>
	<advance width="293"/>
	<outline>
		<contour>
			<point name="at01" x="200" y="760" type="line"/>
			<point x="392" y="760" type="line"/>
			<point x="381" y="716" type="line"/>
			<point name="sv01" x="274" y="716" type="line"/>
			<point name="sv02" x="72" y="-94" type="line"/>
			<point x="179" y="-94" type="line"/>
			<point x="168" y="-138" type="line"/>
			<point name="av01" x="-25" y="-138" type="line"/>
		</contour>
	</outline>
</glyph>
<glyph name="backslash" format="2">
	<unicode hex="005C"/>
	<advance width="366"/>
	<outline>
		<contour>
			<point name="at01" x="167" y="748" type="line"/>
			<point x="228" y="748" type="line"/>
			<point x="250" y="-143" type="line"/>
			<point name="av01" x="189" y="-143" type="line"/>
		</contour>
	</outline>
</glyph>
<glyph name="bracketright" format="2">
	<unicode hex="005D"/>
	<advance width="293"/>
	<outline>
		<contour>
			<point name="sv01" x="-62" y="-94" type="line"/>
			<point x="45" y="-94" type="line"/>
			<point x="247" y="716" type="line"/>
			<point name="sv02" x="140" y="716" type="line"/>
			<point name="at01" x="151" y="760" type="line"/>
			<point x="344" y="760" type="line"/>
			<point x="119" y="-138" type="line"/>
			<point name="av01" x="-73" y="-138" type="line"/>
		</contour>
	</outline>
</glyph>
<glyph name="asciicircum" format="2">
	<unicode hex="005E"/>
	<advance width="550"/>
	<outline>
		<contour>
			<point name="hr00" x="76" y="340" type="line"/>
			<point name="at01" x="346" y="698" type="line"/>
			<point x="417" y="698" type="line"/>
			<point x="513" y="334" type="line"/>
			<point name="sv01" x="460" y="313" type="line"/>
			<point x="374" y="639" type="line"/>
			<point name="sv02" x="369" y="639" type="line"/>
			<point name="iv01" x="123" y="313" type="line"/>
		</contour>
	</outline>
</glyph>
<glyph name="underscore" format="2">
	<unicode hex="005F"/>
	<advance width="524"/>
	<outline>
		<contour>
			<point name="av01" x="-64" y="-103" type="line"/>
			<point x="408" y="-103" type="line"/>
			<point x="396" y="-154" type="line"/>
			<point name="sv01" x="-76" y="-154" type="line"/>
		</contour>
	</outline>
</glyph>
<glyph name="grave" format="2">
	<unicode hex="0060"/>
	<advance width="600"/>
	<outline>
		<contour>
			<point name="hr00" x="233" y="743" type="line"/>
			<point name="sv01" x="317" y="775" type="line"/>
			<point x="349" y="595" type="line"/>
			<point name="av01" x="319" y="584" type="line"/>
		</contour>
	</outline>
	<anchor name="_top" x="300" y="540"/>
</glyph>
<glyph name="a" format="2">
	<unicode hex="0061"/>
	<advance width="556"/>
	<outline>
		<contour>
			<point name="ab01" x="139" y="-12" type="qcurve"/>
			<point x="86" y="-12"/>
			<point x="38" y="65"/>
			<point x="38" y="135" type="qcurve"/>
			<point x="38" y="176"/>
			<point x="54" y="266"/>
			<point x="85" y="354"/>
			<point x="130" y="434"/>
			<point x="187" y="494"/>
			<point x="257" y="530"/>
			<point name="at01" x="297" y="530" type="qcurve"/>
			<point x="383" y="530"/>
			<point name="iv01" x="407" y="443" type="qcurve"/>
			<point x="416" y="443" type="line"/>
			<point name="at02" x="460" y="518" type="line"/>
			<point x="508" y="518" type="line"/>
			<point x="391" y="57" type="line"/>
			<point name="sv02" x="409" y="49" type="line"/>
			<point name="sv03" x="519" y="164" type="line"/>
			<point x="545" y="145" type="line"/>
			<point x="477" y="61" type="line"/>
			<point x="442" y="17"/>
			<point x="395" y="-12"/>
			<point name="ab02" x="372" y="-12" type="qcurve"/>
			<point x="338" y="-12"/>
			<point x="309" y="25"/>
			<point x="309" y="48" type="qcurve"/>
			<point x="309" y="60"/>
			<point x="314" y="89"/>
			<point name="hr01" x="317" y="100" type="qcurve"/>
			<point x="338" y="179" type="line"/>
			<point name="iv02" x="329" y="182" type="line"/>
			<point x="309" y="140"/>
			<point x="269" y="68"/>
			<point x="223" y="17"/>
			<point x="170" y="-12"/>
		</contour>
		<contour>
			<point name="sv04" x="173" y="57" type="qcurve"/>
			<point x="193" y="57"/>
			<point x="235" y="87"/>
			<point x="275" y="136"/>
			<point x="313" y="198"/>
			<point x="344" y="262"/>
			<point x="368" y="323"/>
			<point x="374" y="347" type="qcurve"/>
			<point x="379" y="364" type="line"/>
			<point x="392" y="412"/>
			<point x="364" y="474"/>
			<point name="sv01" x="322" y="474" type="qcurve"/>
			<point x="272" y="474"/>
			<point x="186" y="381"/>
			<point x="161" y="290" type="qcurve"/>
			<point x="156" y="273"/>
			<point x="147" y="231"/>
			<point x="139" y="187"/>
			<point x="134" y="147"/>
			<point x="134" y="133" type="qcurve"/>
			<point x="134" y="97"/>
			<point x="150" y="57"/>
		</contour>
	</outline>
	<anchor name="top" x="315" y="540"/>
	<anchor name="bottomright" x="413" y="0"/>
	<anchor name="bottom" x="230" y="0"/>
</glyph>
<glyph name="b" format="2">
	<unicode hex="0062"/>
	<advance width="530"/>
	<outline>
		<contour>
			<point name="ab02" x="233" y="-12" type="qcurve"/>
			<point x="147" y="-12"/>
			<point x="123" y="75" type="qcurve"/>
			<point name="iv01" x="114" y="75" type="line"/>
			<point x="70" y="0" type="line"/>
			<point name="ab01" x="22" y="0" type="line"/>
			<point x="192" y="681" type="line"/>
			<point name="sv02" x="104" y="681" type="line"/>
			<point name="sv03" x="114" y="721" type="line"/>
			<point name="at02" x="304" y="760" type="line"/>
			<point name="iv02" x="192" y="339" type="line"/>
			<point x="201" y="336" type="line"/>
			<point x="220" y="377"/>
			<point x="260" y="448"/>
			<point x="306" y="500"/>
			<point x="359" y="530"/>
			<point name="at01" x="391" y="530" type="qcurve"/>
			<point x="445" y="530"/>
			<point x="492" y="453"/>
			<point x="492" y="382" type="qcurve"/>
			<point x="492" y="320"/>
			<point x="456" y="182"/>
			<point x="389" y="65"/>
			<point x="293" y="-12"/>
		</contour>
		<contour>
			<point name="sv01" x="208" y="44" type="qcurve"/>
			<point x="258" y="44"/>
			<point x="344" y="137"/>
			<point x="369" y="228" type="qcurve"/>
			<point x="373" y="244"/>
			<point x="383" y="287"/>
			<point x="391" y="330"/>
			<point x="396" y="371"/>
			<point x="396" y="385" type="qcurve"/>
			<point x="396" y="421"/>
			<point x="380" y="461"/>
			<point name="sv04" x="357" y="461" type="qcurve"/>
			<point x="337" y="461"/>
			<point x="295" y="431"/>
			<point x="255" y="382"/>
			<point x="217" y="320"/>
			<point x="186" y="256"/>
			<point x="162" y="194"/>
			<point x="156" y="171" type="qcurve"/>
			<point x="151" y="154" type="line"/>
			<point x="138" y="106"/>
			<point x="166" y="44"/>
		</contour>
	</outline>
	<anchor name="bottom" x="218" y="0"/>
</glyph>
<glyph name="c" format="2">
	<unicode hex="0063"/>
	<advance width="436"/>
	<outline>
		<contour>
			<point name="ab01" x="174" y="-12" type="qcurve"/>
			<point x="105" y="-12"/>
			<point x="41" y="68"/>
			<point x="41" y="144" type="qcurve"/>
			<point x="41" y="182"/>
			<point x="55" y="269"/>
			<point x="82" y="355"/>
			<point x="125" y="434"/>
			<point x="183" y="494"/>
			<point x="257" y="530"/>
			<point name="at01" x="303" y="530" type="qcurve"/>
			<point x="362" y="530"/>
			<point x="430" y="473"/>
			<point x="430" y="428" type="qcurve"/>
			<point x="430" y="393"/>
			<point x="392" y="346"/>
			<point name="iv01" x="357" y="346" type="qcurve"/>
			<point x="331" y="346"/>
			<point x="306" y="375"/>
			<point x="306" y="395" type="qcurve"/>
			<point x="306" y="407"/>
			<point x="314" y="430"/>
			<point x="332" y="450"/>
			<point x="359" y="462"/>
			<point x="378" y="463" type="qcurve"/>
			<point x="378" y="471" type="line"/>
			<point x="355" y="488"/>
			<point name="sv01" x="311" y="488" type="qcurve"/>
			<point x="288" y="488"/>
			<point x="247" y="471"/>
			<point x="210" y="427"/>
			<point x="177" y="352"/>
			<point x="163" y="294" type="qcurve"/>
			<point x="153" y="257"/>
			<point x="137" y="168"/>
			<point x="137" y="135" type="qcurve"/>
			<point x="137" y="94"/>
			<point x="169" y="49"/>
			<point name="sv02" x="204" y="49" type="qcurve"/>
			<point x="249" y="49"/>
			<point x="329" y="125"/>
			<point x="367" y="193" type="qcurve"/>
			<point x="399" y="178" type="line"/>
			<point x="375" y="129"/>
			<point x="326" y="58"/>
			<point x="273" y="11"/>
			<point x="211" y="-12"/>
		</contour>
	</outline>
	<anchor name="top" x="306" y="540"/>
	<anchor name="bottom" x="180" y="0"/>
</glyph>
<glyph name="d" format="2">
	<unicode hex="0064"/>
	<advance width="556"/>
	<outline>
		<contour>
			<point name="ab01" x="139" y="-12" type="qcurve"/>
			<point x="86" y="-12"/>
			<point x="38" y="65"/>
			<point x="38" y="135" type="qcurve"/>
			<point x="38" y="176"/>
			<point x="54" y="266"/>
			<point x="85" y="354"/>
			<point x="130" y="434"/>
			<point x="187" y="494"/>
			<point x="257" y="530"/>
			<point name="at01" x="297" y="530" type="qcurve"/>
			<point x="342" y="530"/>
			<point x="385" y="490"/>
			<point name="iv01" x="395" y="459" type="qcurve"/>
			<point x="404" y="459" type="line"/>
			<point x="455" y="681" type="line"/>
			<point name="sv02" x="367" y="681" type="line"/>
			<point name="sv03" x="377" y="721" type="line"/>
			<point name="at02" x="568" y="760" type="line"/>
			<point x="391" y="57" type="line"/>
			<point name="sv04" x="409" y="49" type="line"/>
			<point name="sv05" x="519" y="164" type="line"/>
			<point x="545" y="145" type="line"/>
			<point x="477" y="61" type="line"/>
			<point x="442" y="17"/>
			<point x="395" y="-12"/>
			<point name="ab02" x="372" y="-12" type="qcurve"/>
			<point x="338" y="-12"/>
			<point x="310" y="25"/>
			<point x="310" y="48" type="qcurve"/>
			<point x="310" y="60"/>
			<point x="315" y="91"/>
			<point x="317" y="100" type="qcurve"/>
			<point x="338" y="179" type="line"/>
			<point name="iv02" x="329" y="182" type="line"/>
			<point x="309" y="140"/>
			<point x="269" y="68"/>
			<point x="223" y="17"/>
			<point x="170" y="-12"/>
		</contour>
		<contour>
			<point name="sv06" x="173" y="57" type="qcurve"/>
			<point x="193" y="57"/>
			<point x="236" y="88"/>
			<point x="276" y="138"/>
			<point x="314" y="202"/>
			<point x="345" y="266"/>
			<point x="368" y="326"/>
			<point name="hr01" x="374" y="347" type="qcurve"/>
			<point x="379" y="364" type="line"/>
			<point x="392" y="412"/>
			<point x="364" y="474"/>
			<point name="sv01" x="322" y="474" type="qcurve"/>
			<point x="272" y="474"/>
			<point x="186" y="381"/>
			<point x="161" y="290" type="qcurve"/>
			<point x="156" y="273"/>
			<point x="147" y="231"/>
			<point x="139" y="187"/>
			<point x="134" y="147"/>
			<point x="134" y="133" type="qcurve"/>
			<point x="134" y="97"/>
			<point x="150" y="57"/>
		</contour>
	</outline>
	<anchor name="topright" x="587" y="758"/>
	<anchor name="bottom" x="230" y="0"/>
</glyph>
<glyph name="e" format="2">
	<unicode hex="0065"/>
	<advance width="454"/>
	<outline>
		<contour>
			<point name="ab01" x="175" y="-12" type="qcurve"/>
			<point x="104" y="-12"/>
			<point x="41" y="69"/>
			<point x="41" y="149" type="qcurve"/>
			<point x="41" y="186"/>
			<point x="55" y="272"/>
			<point x="83" y="357"/>
			<point x="127" y="435"/>
			<point x="187" y="494"/>
			<point x="264" y="530"/>
			<point name="at01" x="312" y="530" type="qcurve"/>
			<point x="335" y="530"/>
			<point x="381" y="520"/>
			<point x="418" y="497"/>
			<point x="441" y="458"/>
			<point x="441" y="429" type="qcurve"/>
			<point x="441" y="401"/>
			<point x="415" y="345"/>
			<point x="349" y="298"/>
			<point x="238" y="265"/>
			<point name="iv01" x="154" y="260" type="qcurve"/>
			<point x="147" y="228"/>
			<point x="137" y="163"/>
			<point x="137" y="136" type="qcurve"/>
			<point x="137" y="94"/>
			<point x="169" y="49"/>
			<point name="sv01" x="204" y="49" type="qcurve"/>
			<point x="249" y="49"/>
			<point x="332" y="125"/>
			<point name="iv02" x="369" y="193" type="qcurve"/>
			<point x="401" y="178" type="line"/>
			<point x="377" y="130"/>
			<point x="328" y="58"/>
			<point x="274" y="11"/>
			<point x="212" y="-12"/>
		</contour>
		<contour>
			<point name="sv03" x="162" y="293" type="qcurve"/>
			<point x="265" y="305"/>
			<point x="356" y="370"/>
			<point x="356" y="425" type="qcurve"/>
			<point x="356" y="451"/>
			<point x="332" y="486"/>
			<point name="sv02" x="300" y="486" type="qcurve"/>
			<point x="278" y="486"/>
			<point x="240" y="467"/>
			<point x="207" y="422"/>
			<point x="176" y="348"/>
		</contour>
	</outline>
	<anchor name="top" x="312" y="540"/>
	<anchor name="bottomright" x="243" y="0"/>
	<anchor name="bottom" x="184" y="0"/>
</glyph>
<glyph name="f" format="2">
	<unicode hex="0066"/>
	<advance width="307"/>
	<outline>
		<contour>
			<point name="ab01" x="-83" y="-212" type="qcurve"/>
			<point x="-134" y="-212"/>
			<point x="-178" y="-173"/>
			<point x="-178" y="-145" type="qcurve"/>
			<point x="-178" y="-119"/>
			<point x="-146" y="-83"/>
			<point name="iv01" x="-120" y="-83" type="qcurve"/>
			<point x="-96" y="-83"/>
			<point x="-69" y="-111"/>
			<point x="-69" y="-131" type="qcurve"/>
			<point x="-69" y="-142"/>
			<point x="-81" y="-168"/>
			<point x="-96" y="-177" type="qcurve"/>
			<point name="sv01" x="-91" y="-184" type="line"/>
			<point x="-47" y="-184"/>
			<point x="0" y="-123"/>
			<point x="14" y="-67" type="qcurve"/>
			<point x="147" y="469" type="line"/>
			<point name="sv02" x="57" y="469" type="line"/>
			<point name="at01" x="69" y="518" type="line"/>
			<point x="160" y="518" type="line"/>
			<point x="177" y="588" type="line"/>
			<point x="196" y="668"/>
			<point x="305" y="760"/>
			<point name="at02" x="382" y="760" type="qcurve"/>
			<point x="433" y="760"/>
			<point x="477" y="721"/>
			<point x="477" y="693" type="qcurve"/>
			<point x="477" y="667"/>
			<point x="445" y="631"/>
			<point name="iv02" x="419" y="631" type="qcurve"/>
			<point x="395" y="631"/>
			<point x="368" y="659"/>
			<point x="368" y="679" type="qcurve"/>
			<point x="368" y="691"/>
			<point x="380" y="716"/>
			<point x="395" y="725" type="qcurve"/>
			<point name="sv03" x="390" y="732" type="line"/>
			<point x="345" y="732"/>
			<point x="290" y="672"/>
			<point x="276" y="615" type="qcurve"/>
			<point name="sv04" x="252" y="518" type="line"/>
			<point x="361" y="518" type="line"/>
			<point x="348" y="469" type="line"/>
			<point name="sv05" x="239" y="469" type="line"/>
			<point x="113" y="-40" type="line"/>
			<point x="93" y="-119"/>
			<point x="-9" y="-212"/>
		</contour>
	</outline>
</glyph>
<glyph name="g" format="2">
	<unicode hex="0067"/>
	<advance width="482"/>
	<outline>
		<contour>
			<point name="ab01" x="136" y="-212" type="qcurve"/>
			<point x="82" y="-212"/>
			<point x="4" y="-196"/>
			<point x="-45" y="-167"/>
			<point x="-69" y="-129"/>
			<point x="-69" y="-107" type="qcurve"/>
			<point x="-69" y="-81"/>
			<point x="-40" y="-40"/>
			<point x="6" y="-8"/>
			<point x="64" y="14"/>
			<point x="93" y="22" type="qcurve"/>
			<point name="iv04" x="95" y="29" type="line"/>
			<point x="66" y="42"/>
			<point x="33" y="77"/>
			<point x="33" y="104" type="qcurve"/>
			<point x="33" y="126"/>
			<point x="52" y="159"/>
			<point x="82" y="183"/>
			<point x="119" y="199"/>
			<point x="137" y="203" type="qcurve"/>
			<point name="iv05" x="139" y="209" type="line"/>
			<point x="111" y="226"/>
			<point x="80" y="284"/>
			<point x="80" y="322" type="qcurve"/>
			<point x="80" y="367"/>
			<point x="115" y="443"/>
			<point x="175" y="499"/>
			<point x="256" y="530"/>
			<point name="at01" x="302" y="530" type="qcurve"/>
			<point x="325" y="530"/>
			<point x="363" y="519"/>
			<point x="380" y="509" type="qcurve"/>
			<point x="391" y="556"/>
			<point x="430" y="607"/>
			<point name="av01" x="464" y="607" type="qcurve"/>
			<point x="487" y="607"/>
			<point x="514" y="585"/>
			<point x="514" y="565" type="qcurve"/>
			<point x="514" y="543"/>
			<point x="484" y="513"/>
			<point name="sv04" x="464" y="513" type="qcurve"/>
			<point x="446" y="513"/>
			<point x="427" y="530"/>
			<point x="423" y="544" type="qcurve"/>
			<point x="418" y="544" type="line"/>
			<point name="iv06" x="402" y="493" type="line"/>
			<point x="440" y="457"/>
			<point x="440" y="396" type="qcurve"/>
			<point x="440" y="351"/>
			<point x="405" y="276"/>
			<point x="344" y="221"/>
			<point x="264" y="190"/>
			<point name="iv01" x="219" y="190" type="qcurve"/>
			<point x="196" y="190"/>
			<point x="180" y="194" type="qcurve"/>
			<point x="168" y="192"/>
			<point x="142" y="185"/>
			<point x="121" y="172"/>
			<point x="108" y="154"/>
			<point x="108" y="142" type="qcurve"/>
			<point x="108" y="125"/>
			<point x="139" y="110"/>
			<point name="iv02" x="165" y="100" type="qcurve"/>
			<point x="262" y="66" type="line"/>
			<point x="325" y="43"/>
			<point x="392" y="-12"/>
			<point name="hr01" x="392" y="-61" type="qcurve"/>
			<point x="392" y="-101"/>
			<point x="349" y="-158"/>
			<point x="277" y="-195"/>
			<point x="185" y="-212"/>
		</contour>
		<contour>
			<point name="sv03" x="229" y="229" type="qcurve"/>
			<point x="271" y="229"/>
			<point x="321" y="287"/>
			<point x="334" y="338" type="qcurve"/>
			<point x="345" y="379"/>
			<point x="351" y="414"/>
			<point x="351" y="424" type="qcurve"/>
			<point x="351" y="455"/>
			<point x="324" y="491"/>
			<point name="sv01" x="291" y="491" type="qcurve"/>
			<point x="249" y="491"/>
			<point x="199" y="433"/>
			<point x="186" y="382" type="qcurve"/>
			<point x="175" y="341"/>
			<point x="169" y="306"/>
			<point x="169" y="296" type="qcurve"/>
			<point x="169" y="265"/>
			<point x="196" y="229"/>
		</contour>
		<contour>
			<point name="sv02" x="150" y="-179" type="qcurve"/>
			<point x="177" y="-179"/>
			<point x="231" y="-170"/>
			<point x="275" y="-148"/>
			<point x="303" y="-113"/>
			<point x="303" y="-87" type="qcurve"/>
			<point x="303" y="-58"/>
			<point x="266" y="-30"/>
			<point x="232" y="-19" type="qcurve"/>
			<point name="iv03" x="134" y="15" type="line"/>
			<point x="110" y="7"/>
			<point x="66" y="-14"/>
			<point x="33" y="-41"/>
			<point x="13" y="-75"/>
			<point name="hr02" x="13" y="-96" type="qcurve"/>
			<point x="13" y="-132"/>
			<point x="78" y="-179"/>
		</contour>
	</outline>
	<anchor name="top" x="302" y="540"/>
</glyph>
<glyph name="h" format="2">
	<unicode hex="0068"/>
	<advance width="565"/>
	<outline>
		<contour>
			<point name="ab02" x="374" y="-12" type="qcurve"/>
			<point x="340" y="-12"/>
			<point x="309" y="27"/>
			<point x="309" y="51" type="qcurve"/>
			<point x="309" y="62"/>
			<point x="313" y="87"/>
			<point x="316" y="98" type="qcurve"/>
			<point x="400" y="404" type="line"/>
			<point x="402" y="413"/>
			<point x="404" y="427"/>
			<point x="404" y="432" type="qcurve"/>
			<point x="404" y="460"/>
			<point name="sv01" x="377" y="460" type="qcurve"/>
			<point x="351" y="460"/>
			<point x="286" y="408"/>
			<point x="221" y="322"/>
			<point x="166" y="208"/>
			<point x="151" y="147" type="qcurve"/>
			<point x="114" y="0" type="line"/>
			<point name="ab01" x="22" y="0" type="line"/>
			<point x="192" y="681" type="line"/>
			<point name="sv02" x="104" y="681" type="line"/>
			<point name="sv03" x="114" y="721" type="line"/>
			<point name="at02" x="304" y="760" type="line"/>
			<point name="iv01" x="192" y="332" type="line"/>
			<point x="201" y="329" type="line"/>
			<point x="222" y="367"/>
			<point x="265" y="439"/>
			<point x="315" y="496"/>
			<point x="374" y="530"/>
			<point name="at01" x="410" y="530" type="qcurve"/>
			<point x="455" y="530"/>
			<point x="496" y="480"/>
			<point x="496" y="442" type="qcurve"/>
			<point x="496" y="419"/>
			<point x="487" y="386" type="qcurve"/>
			<point name="hr01" x="398" y="57" type="line"/>
			<point name="sv04" x="416" y="49" type="line"/>
			<point name="sv05" x="526" y="164" type="line"/>
			<point x="552" y="145" type="line"/>
			<point x="484" y="61" type="line"/>
			<point x="449" y="18"/>
			<point x="398" y="-12"/>
		</contour>
	</outline>
	<anchor name="top" x="242" y="718"/>
	<anchor name="bottom" x="213" y="0"/>
</glyph>
<glyph name="i" format="2">
	<unicode hex="0069"/>
	<advance width="307"/>
	<outline>
		<contour>
			<point name="ab01" x="119" y="-12" type="qcurve"/>
			<point x="85" y="-12"/>
			<point x="53" y="26"/>
			<point x="53" y="51" type="qcurve"/>
			<point x="53" y="62"/>
			<point x="57" y="87"/>
			<point x="60" y="98" type="qcurve"/>
			<point x="148" y="450" type="line"/>
			<point name="sv01" x="60" y="450" type="line"/>
			<point name="sv02" x="70" y="490" type="line"/>
			<point name="at01" x="261" y="530" type="line"/>
			<point x="142" y="57" type="line"/>
			<point name="sv03" x="160" y="49" type="line"/>
			<point name="sv04" x="270" y="164" type="line"/>
			<point x="296" y="145" type="line"/>
			<point x="228" y="61" type="line"/>
			<point x="193" y="17"/>
			<point x="142" y="-12"/>
		</contour>
		<contour>
			<point name="sv05" x="240" y="632" type="qcurve"/>
			<point x="214" y="632"/>
			<point x="188" y="661"/>
			<point x="188" y="678" type="qcurve"/>
			<point x="188" y="682"/>
			<point x="188" y="693"/>
			<point x="190" y="698" type="qcurve"/>
			<point x="196" y="720"/>
			<point x="230" y="747"/>
			<point name="sv06" x="255" y="747" type="qcurve"/>
			<point x="281" y="747"/>
			<point x="307" y="718"/>
			<point x="307" y="701" type="qcurve"/>
			<point x="307" y="697"/>
			<point x="307" y="686"/>
			<point x="305" y="681" type="qcurve"/>
			<point x="299" y="659"/>
			<point x="265" y="632"/>
		</contour>
	</outline>
	<anchor name="bottomright" x="163" y="0"/>
	<anchor name="bottom" x="118" y="0"/>
</glyph>
<glyph name="j" format="2">
	<unicode hex="006A"/>
	<advance width="280"/>
	<outline>
		<contour>
			<point name="ab01" x="-64" y="-212" type="qcurve"/>
			<point x="-114" y="-212"/>
			<point x="-157" y="-174"/>
			<point x="-157" y="-148" type="qcurve"/>
			<point x="-157" y="-122"/>
			<point x="-126" y="-85"/>
			<point name="iv01" x="-99" y="-85" type="qcurve"/>
			<point x="-76" y="-85"/>
			<point x="-49" y="-113"/>
			<point x="-49" y="-134" type="qcurve"/>
			<point x="-49" y="-145"/>
			<point x="-60" y="-171"/>
			<point x="-74" y="-180" type="qcurve"/>
			<point name="sv01" x="-70" y="-188" type="line"/>
			<point x="-32" y="-186"/>
			<point x="6" y="-123"/>
			<point x="20" y="-64" type="qcurve"/>
			<point x="148" y="450" type="line"/>
			<point name="sv02" x="60" y="450" type="line"/>
			<point name="sv03" x="70" y="490" type="line"/>
			<point name="at01" x="261" y="530" type="line"/>
			<point x="117" y="-44" type="line"/>
			<point x="97" y="-122"/>
			<point x="4" y="-212"/>
		</contour>
		<contour>
			<point name="sv04" x="240" y="632" type="qcurve"/>
			<point x="214" y="632"/>
			<point x="188" y="661"/>
			<point x="188" y="678" type="qcurve"/>
			<point x="188" y="682"/>
			<point x="188" y="693"/>
			<point x="190" y="698" type="qcurve"/>
			<point x="196" y="720"/>
			<point x="230" y="747"/>
			<point name="sv05" x="255" y="747" type="qcurve"/>
			<point x="281" y="747"/>
			<point x="307" y="718"/>
			<point x="307" y="701" type="qcurve"/>
			<point x="307" y="697"/>
			<point x="307" y="686"/>
			<point x="305" y="681" type="qcurve"/>
			<point x="299" y="659"/>
			<point x="265" y="632"/>
		</contour>
	</outline>
</glyph>
<glyph name="k" format="2">
	<unicode hex="006B"/>
	<advance width="546"/>
	<outline>
		<contour>
			<point name="ab02" x="373" y="-12" type="qcurve"/>
			<point x="354" y="-12"/>
			<point x="322" y="5"/>
			<point x="308" y="34" type="qcurve"/>
			<point name="iv01" x="223" y="216" type="line"/>
			<point x="316" y="265"/>
			<point x="406" y="379"/>
			<point x="406" y="423" type="qcurve"/>
			<point x="406" y="460"/>
			<point name="sv01" x="375" y="460" type="qcurve"/>
			<point x="349" y="460"/>
			<point x="284" y="407"/>
			<point x="221" y="320"/>
			<point x="166" y="207"/>
			<point x="151" y="147" type="qcurve"/>
			<point x="114" y="0" type="line"/>
			<point name="ab01" x="22" y="0" type="line"/>
			<point x="192" y="681" type="line"/>
			<point name="sv02" x="104" y="681" type="line"/>
			<point name="sv03" x="114" y="721" type="line"/>
			<point name="at02" x="304" y="760" type="line"/>
			<point name="iv02" x="192" y="332" type="line"/>
			<point x="201" y="329" type="line"/>
			<point x="223" y="369"/>
			<point x="267" y="442"/>
			<point x="318" y="497"/>
			<point x="376" y="530"/>
			<point name="at01" x="411" y="530" type="qcurve"/>
			<point x="455" y="530"/>
			<point x="496" y="480"/>
			<point name="hr01" x="496" y="441" type="qcurve"/>
			<point x="496" y="402"/>
			<point x="458" y="335"/>
			<point x="402" y="281"/>
			<point x="340" y="242"/>
			<point name="sv04" x="315" y="230" type="qcurve"/>
			<point name="sv05" x="401" y="56" type="line"/>
			<point x="413" y="56" type="line"/>
			<point name="sv06" x="517" y="164" type="line"/>
			<point x="543" y="145" type="line"/>
			<point x="474" y="60" type="line"/>
			<point x="457" y="39"/>
			<point x="431" y="12"/>
			<point x="408" y="-5"/>
			<point x="386" y="-12"/>
		</contour>
	</outline>
	<anchor name="bottom" x="215" y="0"/>
</glyph>
<glyph name="l" format="2">
	<unicode hex="006C"/>
	<advance width="294"/>
	<outline>
		<contour>
			<point name="ab01" x="106" y="-12" type="qcurve"/>
			<point x="72" y="-12"/>
			<point x="40" y="26"/>
			<point x="40" y="51" type="qcurve"/>
			<point x="40" y="62"/>
			<point x="44" y="87"/>
			<point x="47" y="98" type="qcurve"/>
			<point x="193" y="681" type="line"/>
			<point name="sv01" x="105" y="681" type="line"/>
			<point name="sv02" x="115" y="721" type="line"/>
			<point name="at01" x="305" y="760" type="line"/>
			<point x="129" y="57" type="line"/>
			<point name="sv03" x="147" y="49" type="line"/>
			<point name="sv04" x="257" y="164" type="line"/>
			<point x="283" y="145" type="line"/>
			<point x="215" y="61" type="line"/>
			<point x="180" y="17"/>
			<point x="129" y="-12"/>
		</contour>
	</outline>
	<anchor name="top" x="251" y="742"/>
	<anchor name="topright" x="324" y="758"/>
	<anchor name="bottom" x="105" y="0"/>
</glyph>
<glyph name="m" format="2">
	<unicode hex="006D"/>
	<advance width="855"/>
	<outline>
		<contour>
			<point name="ab03" x="664" y="-12" type="qcurve"/>
			<point x="630" y="-12"/>
			<point x="599" y="27"/>
			<point x="599" y="51" type="qcurve"/>
			<point x="599" y="62"/>
			<point x="603" y="87"/>
			<point x="606" y="98" type="qcurve"/>
			<point x="689" y="404" type="line"/>
			<point x="691" y="413"/>
			<point x="693" y="427"/>
			<point x="693" y="432" type="qcurve"/>
			<point x="693" y="460"/>
			<point name="sv01" x="667" y="460" type="qcurve"/>
			<point x="641" y="460"/>
			<point x="575" y="409"/>
			<point x="511" y="322"/>
			<point x="456" y="209"/>
			<point x="441" y="147" type="qcurve"/>
			<point x="404" y="0" type="line"/>
			<point name="ab02" x="312" y="0" type="line"/>
			<point x="412" y="404" type="line"/>
			<point x="414" y="413"/>
			<point x="416" y="427"/>
			<point x="416" y="432" type="qcurve"/>
			<point x="416" y="460"/>
			<point name="sv02" x="390" y="460" type="qcurve"/>
			<point x="365" y="460"/>
			<point x="300" y="409"/>
			<point x="235" y="322"/>
			<point x="180" y="209"/>
			<point x="165" y="147" type="qcurve"/>
			<point x="128" y="0" type="line"/>
			<point name="ab01" x="36" y="0" type="line"/>
			<point x="148" y="450" type="line"/>
			<point name="sv03" x="60" y="450" type="line"/>
			<point name="sv04" x="70" y="490" type="line"/>
			<point name="at01" x="256" y="530" type="line"/>
			<point name="iv01" x="206" y="332" type="line"/>
			<point x="215" y="329" type="line"/>
			<point x="236" y="366"/>
			<point x="279" y="439"/>
			<point x="329" y="495"/>
			<point x="388" y="530"/>
			<point name="at02" x="424" y="530" type="qcurve"/>
			<point x="465" y="530"/>
			<point x="503" y="481"/>
			<point x="503" y="442" type="qcurve"/>
			<point x="503" y="421"/>
			<point x="496" y="393" type="qcurve"/>
			<point name="sv05" x="481" y="333" type="line"/>
			<point x="490" y="330" type="line"/>
			<point x="511" y="368"/>
			<point x="555" y="440"/>
			<point x="605" y="496"/>
			<point x="664" y="530"/>
			<point name="at03" x="700" y="530" type="qcurve"/>
			<point x="745" y="530"/>
			<point x="786" y="480"/>
			<point x="786" y="442" type="qcurve"/>
			<point x="786" y="429"/>
			<point x="781" y="401"/>
			<point x="777" y="386" type="qcurve"/>
			<point x="688" y="57" type="line"/>
			<point name="sv06" x="706" y="49" type="line"/>
			<point name="sv07" x="816" y="164" type="line"/>
			<point x="842" y="145" type="line"/>
			<point name="hr02" x="774" y="61" type="line"/>
			<point x="739" y="18"/>
			<point x="688" y="-12"/>
		</contour>
	</outline>
	<anchor name="top" x="491" y="540"/>
	<anchor name="bottom" x="359" y="0"/>
</glyph>
<glyph name="n" format="2">
	<unicode hex="006E"/>
	<advance width="579"/>
	<outline>
		<contour>
			<point name="ab01" x="389" y="-12" type="qcurve"/>
			<point x="355" y="-12"/>
			<point x="323" y="26"/>
			<point x="323" y="51" type="qcurve"/>
			<point x="323" y="62"/>
			<point x="327" y="87"/>
			<point x="330" y="98" type="qcurve"/>
			<point x="414" y="404" type="line"/>
			<point x="416" y="413"/>
			<point x="418" y="427"/>
			<point x="418" y="432" type="qcurve"/>
			<point x="418" y="460"/>
			<point name="sv01" x="391" y="460" type="qcurve"/>
			<point x="365" y="460"/>
			<point x="300" y="408"/>
			<point x="235" y="322"/>
			<point x="180" y="208"/>
			<point x="165" y="147" type="qcurve"/>
			<point x="128" y="0" type="line"/>
			<point name="ab02" x="36" y="0" type="line"/>
			<point x="148" y="450" type="line"/>
			<point name="sv02" x="60" y="450" type="line"/>
			<point name="sv03" x="70" y="490" type="line"/>
			<point name="at02" x="256" y="530" type="line"/>
			<point name="iv01" x="206" y="332" type="line"/>
			<point x="215" y="329" type="line"/>
			<point x="236" y="367"/>
			<point x="279" y="439"/>
			<point x="329" y="496"/>
			<point x="388" y="530"/>
			<point name="at01" x="424" y="530" type="qcurve"/>
			<point x="469" y="530"/>
			<point x="510" y="480"/>
			<point x="510" y="442" type="qcurve"/>
			<point x="510" y="419"/>
			<point x="501" y="386" type="qcurve"/>
			<point name="hr01" x="412" y="57" type="line"/>
			<point name="sv04" x="430" y="49" type="line"/>
			<point name="sv05" x="540" y="164" type="line"/>
			<point x="566" y="145" type="line"/>
			<point x="498" y="61" type="line"/>
			<point x="463" y="18"/>
			<point x="413" y="-12"/>
		</contour>
	</outline>
	<anchor name="top" x="354" y="540"/>
	<anchor name="bottom" x="227" y="0"/>
</glyph>
<glyph name="o" format="2">
	<unicode hex="006F"/>
	<advance width="510"/>
	<outline>
		<contour>
			<point name="sv01" x="199" y="32" type="qcurve"/>
			<point x="227" y="32"/>
			<point x="272" y="58"/>
			<point x="308" y="103"/>
			<point x="333" y="163"/>
			<point x="342" y="198" type="qcurve"/>
			<point x="355" y="247"/>
			<point x="371" y="312"/>
			<point x="380" y="355"/>
			<point x="383" y="382"/>
			<point x="383" y="393" type="qcurve"/>
			<point x="383" y="434"/>
			<point x="351" y="486"/>
			<point name="sv02" x="311" y="486" type="qcurve"/>
			<point x="283" y="486"/>
			<point x="238" y="460"/>
			<point x="202" y="415"/>
			<point x="177" y="354"/>
			<point x="168" y="320" type="qcurve"/>
			<point x="155" y="271"/>
			<point x="139" y="206"/>
			<point x="130" y="163"/>
			<point x="127" y="136"/>
			<point x="127" y="125" type="qcurve"/>
			<point x="127" y="84"/>
			<point x="159" y="32"/>
		</contour>
		<contour>
			<point name="ab01" x="195" y="-12" type="qcurve"/>
			<point x="117" y="-12"/>
			<point x="38" y="86"/>
			<point x="38" y="171" type="qcurve"/>
			<point x="38" y="229"/>
			<point x="75" y="355"/>
			<point x="145" y="461"/>
			<point x="249" y="530"/>
			<point name="at01" x="315" y="530" type="qcurve"/>
			<point x="393" y="530"/>
			<point x="472" y="432"/>
			<point x="472" y="347" type="qcurve"/>
			<point x="472" y="289"/>
			<point x="435" y="163"/>
			<point x="365" y="57"/>
			<point x="261" y="-12"/>
		</contour>
	</outline>
	<anchor name="top" x="318" y="540"/>
	<anchor name="bottom" x="193" y="0"/>
</glyph>
<glyph name="p" format="2">
	<unicode hex="0070"/>
	<advance width="544"/>
	<outline>
		<contour>
			<point name="sv01" x="-73" y="-156" type="line"/>
			<point x="-3" y="-156" type="line"/>
			<point x="148" y="450" type="line"/>
			<point name="sv02" x="60" y="450" type="line"/>
			<point name="sv03" x="69" y="490" type="line"/>
			<point name="at02" x="255" y="530" type="line"/>
			<point name="iv01" x="206" y="339" type="line"/>
			<point x="215" y="336" type="line"/>
			<point x="234" y="377"/>
			<point x="274" y="448"/>
			<point x="320" y="500"/>
			<point x="373" y="530"/>
			<point name="at01" x="405" y="530" type="qcurve"/>
			<point x="459" y="530"/>
			<point x="506" y="453"/>
			<point x="506" y="382" type="qcurve"/>
			<point x="506" y="320"/>
			<point x="470" y="182"/>
			<point x="403" y="65"/>
			<point x="307" y="-12"/>
			<point name="ab01" x="247" y="-12" type="qcurve"/>
			<point x="165" y="-12"/>
			<point x="148" y="59" type="qcurve"/>
			<point name="iv02" x="139" y="59" type="line"/>
			<point name="sv06" x="90" y="-156" type="line"/>
			<point x="180" y="-156" type="line"/>
			<point x="169" y="-200" type="line"/>
			<point name="ab02" x="-84" y="-200" type="line"/>
		</contour>
		<contour>
			<point name="sv05" x="222" y="44" type="qcurve"/>
			<point x="272" y="44"/>
			<point x="358" y="137"/>
			<point x="383" y="228" type="qcurve"/>
			<point x="387" y="244"/>
			<point x="397" y="287"/>
			<point x="405" y="330"/>
			<point x="410" y="371"/>
			<point x="410" y="385" type="qcurve"/>
			<point x="410" y="421"/>
			<point x="394" y="461"/>
			<point name="sv04" x="371" y="461" type="qcurve"/>
			<point x="351" y="461"/>
			<point x="309" y="431"/>
			<point x="269" y="382"/>
			<point x="231" y="320"/>
			<point x="200" y="256"/>
			<point x="176" y="194"/>
			<point x="170" y="171" type="qcurve"/>
			<point x="165" y="154" type="line"/>
			<point x="152" y="106"/>
			<point x="180" y="44"/>
		</contour>
	</outline>
	<anchor name="top" x="338" y="540"/>
</glyph>
<glyph name="q" format="2">
	<unicode hex="0071"/>
	<advance width="531"/>
	<outline>
		<contour>
			<point name="sv01" x="158" y="-156" type="line"/>
			<point x="248" y="-156" type="line"/>
			<point x="338" y="179" type="line"/>
			<point name="iv01" x="329" y="182" type="line"/>
			<point x="309" y="140"/>
			<point x="269" y="68"/>
			<point x="223" y="17"/>
			<point x="170" y="-12"/>
			<point name="ab01" x="139" y="-12" type="qcurve"/>
			<point x="86" y="-12"/>
			<point x="38" y="65"/>
			<point x="38" y="135" type="qcurve"/>
			<point x="38" y="197"/>
			<point x="74" y="336"/>
			<point x="141" y="453"/>
			<point x="237" y="530"/>
			<point name="at01" x="297" y="530" type="qcurve"/>
			<point x="383" y="530"/>
			<point name="iv02" x="407" y="443" type="qcurve"/>
			<point x="416" y="443" type="line"/>
			<point name="at02" x="461" y="518" type="line"/>
			<point x="508" y="518" type="line"/>
			<point name="sv04" x="340" y="-156" type="line"/>
			<point x="410" y="-156" type="line"/>
			<point x="399" y="-200" type="line"/>
			<point name="ab02" x="148" y="-200" type="line"/>
		</contour>
		<contour>
			<point name="sv02" x="173" y="57" type="qcurve"/>
			<point x="193" y="57"/>
			<point x="235" y="87"/>
			<point x="275" y="136"/>
			<point x="313" y="198"/>
			<point x="344" y="262"/>
			<point x="368" y="323"/>
			<point x="374" y="347" type="qcurve"/>
			<point x="379" y="364" type="line"/>
			<point x="392" y="412"/>
			<point x="364" y="474"/>
			<point name="sv03" x="322" y="474" type="qcurve"/>
			<point x="272" y="474"/>
			<point x="186" y="381"/>
			<point x="161" y="290" type="qcurve"/>
			<point x="156" y="273"/>
			<point x="147" y="231"/>
			<point x="139" y="187"/>
			<point x="134" y="147"/>
			<point name="hr01" x="134" y="133" type="qcurve"/>
			<point x="134" y="97"/>
			<point x="150" y="57"/>
		</contour>
	</outline>
	<anchor name="top" x="315" y="540"/>
</glyph>
<glyph name="r" format="2">
	<unicode hex="0072"/>
	<advance width="448"/>
	<outline>
		<contour>
			<point x="148" y="450" type="line"/>
			<point name="sv01" x="60" y="450" type="line"/>
			<point name="sv02" x="70" y="490" type="line"/>
			<point name="at01" x="254" y="530" type="line"/>
			<point name="iv01" x="207" y="340" type="line"/>
			<point x="216" y="337" type="line"/>
			<point x="234" y="383"/>
			<point x="271" y="454"/>
			<point x="312" y="504"/>
			<point x="360" y="530"/>
			<point name="at02" x="390" y="530" type="qcurve"/>
			<point x="429" y="530"/>
			<point x="471" y="491"/>
			<point x="471" y="461" type="qcurve"/>
			<point x="471" y="433"/>
			<point x="435" y="390"/>
			<point name="iv02" x="405" y="390" type="qcurve"/>
			<point x="382" y="390"/>
			<point x="353" y="418"/>
			<point x="353" y="439" type="qcurve"/>
			<point x="353" y="453"/>
			<point x="365" y="478"/>
			<point x="373" y="486" type="qcurve"/>
			<point name="sv03" x="367" y="492" type="line"/>
			<point x="338" y="487"/>
			<point x="275" y="405"/>
			<point x="244" y="342" type="qcurve"/>
			<point x="236" y="326"/>
			<point x="212" y="273"/>
			<point x="187" y="211"/>
			<point x="164" y="144"/>
			<point x="156" y="113" type="qcurve"/>
			<point x="128" y="0" type="line"/>
			<point name="ab01" x="36" y="0" type="line"/>
		</contour>
	</outline>
	<anchor name="top" x="293" y="540"/>
	<anchor name="bottom" x="82" y="0"/>
</glyph>
<glyph name="s" format="2">
	<unicode hex="0073"/>
	<advance width="386"/>
	<outline>
		<contour>
			<point name="ab01" x="109" y="-12" type="qcurve"/>
			<point x="49" y="-12"/>
			<point x="-1" y="29"/>
			<point x="-1" y="58" type="qcurve"/>
			<point x="-1" y="81"/>
			<point x="29" y="117"/>
			<point name="iv02" x="57" y="117" type="qcurve"/>
			<point x="78" y="117"/>
			<point x="106" y="92"/>
			<point x="106" y="69" type="qcurve"/>
			<point x="106" y="57"/>
			<point x="96" y="32"/>
			<point x="87" y="23" type="qcurve"/>
			<point name="sv02" x="92" y="16" type="line"/>
			<point x="112" y="17"/>
			<point x="156" y="26"/>
			<point x="194" y="48"/>
			<point x="218" y="84"/>
			<point x="218" y="113" type="qcurve"/>
			<point x="218" y="135"/>
			<point x="205" y="170"/>
			<point x="182" y="202"/>
			<point x="153" y="234"/>
			<point name="iv01" x="137" y="253" type="qcurve"/>
			<point x="117" y="276"/>
			<point x="86" y="328"/>
			<point x="86" y="367" type="qcurve"/>
			<point x="86" y="404"/>
			<point x="115" y="464"/>
			<point x="165" y="507"/>
			<point x="234" y="530"/>
			<point name="at01" x="274" y="530" type="qcurve"/>
			<point x="331" y="530"/>
			<point x="381" y="489"/>
			<point x="381" y="460" type="qcurve"/>
			<point x="381" y="437"/>
			<point x="351" y="401"/>
			<point name="iv04" x="323" y="401" type="qcurve"/>
			<point x="302" y="401"/>
			<point x="274" y="426"/>
			<point x="274" y="449" type="qcurve"/>
			<point x="274" y="461"/>
			<point x="284" y="486"/>
			<point x="293" y="495" type="qcurve"/>
			<point name="sv01" x="288" y="502" type="line"/>
			<point x="269" y="501"/>
			<point x="228" y="491"/>
			<point x="195" y="469"/>
			<point x="174" y="432"/>
			<point x="174" y="404" type="qcurve"/>
			<point x="174" y="382"/>
			<point x="187" y="347"/>
			<point x="210" y="315"/>
			<point x="239" y="282"/>
			<point name="iv03" x="256" y="263" type="qcurve"/>
			<point x="275" y="240"/>
			<point x="306" y="189"/>
			<point x="306" y="149" type="qcurve"/>
			<point x="306" y="112"/>
			<point x="275" y="52"/>
			<point x="222" y="10"/>
			<point x="150" y="-12"/>
		</contour>
	</outline>
	<anchor name="top" x="272" y="540"/>
	<anchor name="bottom" x="117" y="0"/>
</glyph>
<glyph name="t" format="2">
	<unicode hex="0074"/>
	<advance width="365"/>
	<outline>
		<contour>
			<point name="ab01" x="123" y="-12" type="qcurve"/>
			<point x="89" y="-12"/>
			<point x="58" y="26"/>
			<point x="58" y="50" type="qcurve"/>
			<point x="58" y="61"/>
			<point x="64" y="88"/>
			<point x="66" y="98" type="qcurve"/>
			<point x="159" y="469" type="line"/>
			<point name="sv01" x="70" y="469" type="line"/>
			<point name="at01" x="82" y="518" type="line"/>
			<point x="125" y="518" type="line"/>
			<point x="156" y="518"/>
			<point x="184" y="539"/>
			<point x="197" y="563" type="qcurve"/>
			<point name="sv02" x="246" y="654" type="line"/>
			<point x="298" y="654" type="line"/>
			<point name="sv03" x="263" y="518" type="line"/>
			<point x="390" y="518" type="line"/>
			<point x="378" y="469" type="line"/>
			<point name="sv04" x="251" y="469" type="line"/>
			<point x="149" y="60" type="line"/>
			<point name="sv05" x="166" y="50" type="line"/>
			<point name="sv06" x="304" y="157" type="line"/>
			<point x="328" y="132" type="line"/>
			<point x="231" y="46" type="line"/>
			<point x="210" y="27"/>
			<point x="180" y="4"/>
			<point x="156" y="-8"/>
			<point x="135" y="-12"/>
		</contour>
	</outline>
	<anchor name="topright" x="348" y="766"/>
	<anchor name="bottom" x="133" y="0"/>
</glyph>
<glyph name="u" format="2">
	<unicode hex="0075"/>
	<advance width="579"/>
	<outline>
		<contour>
			<point name="ab01" x="141" y="-12" type="qcurve"/>
			<point x="97" y="-12"/>
			<point x="56" y="38"/>
			<point x="56" y="76" type="qcurve"/>
			<point x="56" y="99"/>
			<point x="65" y="132" type="qcurve"/>
			<point x="151" y="450" type="line"/>
			<point name="sv01" x="63" y="450" type="line"/>
			<point name="sv02" x="72" y="490" type="line"/>
			<point name="at02" x="266" y="530" type="line"/>
			<point x="152" y="114" type="line"/>
			<point x="150" y="105"/>
			<point x="148" y="91"/>
			<point x="148" y="86" type="qcurve"/>
			<point x="148" y="58"/>
			<point name="sv03" x="175" y="58" type="qcurve"/>
			<point x="200" y="58"/>
			<point x="266" y="110"/>
			<point x="330" y="196"/>
			<point x="386" y="309"/>
			<point x="401" y="371" type="qcurve"/>
			<point name="at01" x="438" y="518" type="line"/>
			<point x="530" y="518" type="line"/>
			<point x="414" y="57" type="line"/>
			<point name="sv04" x="432" y="49" type="line"/>
			<point name="sv05" x="542" y="164" type="line"/>
			<point x="568" y="145" type="line"/>
			<point x="500" y="61" type="line"/>
			<point x="465" y="17"/>
			<point x="417" y="-12"/>
			<point name="ab02" x="393" y="-12" type="qcurve"/>
			<point x="359" y="-12"/>
			<point x="331" y="25"/>
			<point x="331" y="48" type="qcurve"/>
			<point x="331" y="60"/>
			<point x="337" y="91"/>
			<point x="339" y="100" type="qcurve"/>
			<point name="hr01" x="360" y="186" type="line"/>
			<point name="iv01" x="351" y="189" type="line"/>
			<point x="330" y="151"/>
			<point x="287" y="79"/>
			<point x="237" y="22"/>
			<point x="177" y="-12"/>
		</contour>
	</outline>
	<anchor name="top" x="354" y="540"/>
	<anchor name="bottomright" x="436" y="0"/>
	<anchor name="bottom" x="232" y="0"/>
</glyph>
<glyph name="v" format="2">
	<unicode hex="0076"/>
	<advance width="465"/>
	<outline>
		<contour>
			<point name="hr00" x="91" y="473" type="line"/>
			<point name="sv01" x="48" y="473" type="line"/>
			<point name="at01" x="59" y="518" type="line"/>
			<point x="257" y="518" type="line"/>
			<point x="246" y="473" type="line"/>
			<point name="sv02" x="186" y="473" type="line"/>
			<point name="sv03" x="208" y="105" type="line"/>
			<point x="217" y="105" type="line"/>
			<point x="421" y="473" type="line"/>
			<point name="sv04" x="361" y="473" type="line"/>
			<point name="at02" x="372" y="518" type="line"/>
			<point x="534" y="518" type="line"/>
			<point x="522" y="473" type="line"/>
			<point name="sv05" x="482" y="473" type="line"/>
			<point x="200" y="0" type="line"/>
			<point name="ab01" x="130" y="0" type="line"/>
		</contour>
	</outline>
	<anchor name="top" x="317" y="540"/>
	<anchor name="bottom" x="166" y="0"/>
</glyph>
<glyph name="w" format="2">
	<unicode hex="0077"/>
	<advance width="716"/>
	<outline>
		<contour>
			<point x="106" y="473" type="line"/>
			<point name="sv01" x="63" y="473" type="line"/>
			<point name="at01" x="74" y="518" type="line"/>
			<point x="270" y="518" type="line"/>
			<point x="259" y="473" type="line"/>
			<point name="sv02" x="197" y="473" type="line"/>
			<point name="sv03" x="186" y="109" type="line"/>
			<point x="194" y="109" type="line"/>
			<point name="at02" x="408" y="518" type="line"/>
			<point x="479" y="518" type="line"/>
			<point name="sv04" x="472" y="109" type="line"/>
			<point x="481" y="109" type="line"/>
			<point x="667" y="473" type="line"/>
			<point name="sv05" x="605" y="473" type="line"/>
			<point name="at03" x="616" y="518" type="line"/>
			<point x="778" y="518" type="line"/>
			<point x="767" y="473" type="line"/>
			<point name="sv06" x="727" y="473" type="line"/>
			<point x="464" y="0" type="line"/>
			<point name="ab02" x="394" y="0" type="line"/>
			<point name="hr01" x="398" y="393" type="line"/>
			<point name="sv07" x="389" y="393" type="line"/>
			<point name="hr02" x="182" y="0" type="line"/>
			<point name="ab01" x="106" y="0" type="line"/>
		</contour>
	</outline>
	<anchor name="top" x="448" y="540"/>
	<anchor name="bottom" x="293" y="0"/>
</glyph>
<glyph name="x" format="2">
	<unicode hex="0078"/>
	<advance width="583"/>
	<outline>
		<contour>
			<point name="ab02" x="77" y="-12" type="qcurve"/>
			<point x="37" y="-12"/>
			<point x="-5" y="25"/>
			<point x="-5" y="54" type="qcurve"/>
			<point x="-5" y="83"/>
			<point x="31" y="125"/>
			<point name="iv01" x="60" y="125" type="qcurve"/>
			<point x="83" y="125"/>
			<point x="111" y="97"/>
			<point x="111" y="77" type="qcurve"/>
			<point x="111" y="63"/>
			<point x="100" y="37"/>
			<point x="92" y="29" type="qcurve"/>
			<point name="sv02" x="98" y="24" type="line"/>
			<point x="133" y="32"/>
			<point x="212" y="153"/>
			<point x="249" y="250" type="qcurve"/>
			<point x="198" y="458" type="line"/>
			<point name="sv01" x="182" y="461" type="line"/>
			<point name="sv03" x="93" y="371" type="line"/>
			<point x="69" y="391" type="line"/>
			<point x="123" y="455" type="line"/>
			<point x="141" y="477"/>
			<point x="170" y="506"/>
			<point x="195" y="523"/>
			<point x="217" y="530"/>
			<point name="at01" x="228" y="530" type="qcurve"/>
			<point x="254" y="530"/>
			<point x="283" y="501"/>
			<point x="287" y="478" type="qcurve"/>
			<point name="iv02" x="315" y="322" type="line"/>
			<point x="323" y="322" type="line"/>
			<point x="335" y="356"/>
			<point x="364" y="423"/>
			<point x="382" y="450" type="qcurve"/>
			<point x="408" y="490"/>
			<point x="472" y="530"/>
			<point name="at02" x="506" y="530" type="qcurve"/>
			<point x="546" y="530"/>
			<point x="588" y="493"/>
			<point x="588" y="464" type="qcurve"/>
			<point x="588" y="435"/>
			<point x="552" y="393"/>
			<point name="iv03" x="523" y="393" type="qcurve"/>
			<point x="500" y="393"/>
			<point x="472" y="421"/>
			<point x="472" y="441" type="qcurve"/>
			<point x="472" y="455"/>
			<point x="483" y="481"/>
			<point x="491" y="489" type="qcurve"/>
			<point name="sv04" x="485" y="494" type="line"/>
			<point x="450" y="486"/>
			<point x="371" y="365"/>
			<point x="334" y="268" type="qcurve"/>
			<point name="sv05" x="385" y="60" type="line"/>
			<point x="401" y="57" type="line"/>
			<point name="sv06" x="490" y="147" type="line"/>
			<point x="514" y="127" type="line"/>
			<point x="460" y="63" type="line"/>
			<point x="423" y="19"/>
			<point x="377" y="-12"/>
			<point name="ab01" x="355" y="-12" type="qcurve"/>
			<point x="329" y="-12"/>
			<point x="300" y="17"/>
			<point x="296" y="40" type="qcurve"/>
			<point x="268" y="196" type="line"/>
			<point name="iv04" x="260" y="196" type="line"/>
			<point x="248" y="162"/>
			<point x="219" y="95"/>
			<point x="201" y="68" type="qcurve"/>
			<point x="175" y="28"/>
			<point x="111" y="-12"/>
		</contour>
	</outline>
	<anchor name="top" x="354" y="540"/>
	<anchor name="bottom" x="228" y="0"/>
</glyph>
<glyph name="y" format="2">
	<unicode hex="0079"/>
	<advance width="467"/>
	<outline>
		<contour>
			<point name="ab01" x="-11" y="-212" type="qcurve"/>
			<point x="-49" y="-212"/>
			<point x="-95" y="-176"/>
			<point x="-95" y="-147" type="qcurve"/>
			<point x="-95" y="-120"/>
			<point x="-60" y="-79"/>
			<point name="iv01" x="-31" y="-79" type="qcurve"/>
			<point x="-7" y="-79"/>
			<point x="19" y="-106"/>
			<point x="19" y="-128" type="qcurve"/>
			<point x="19" y="-141"/>
			<point x="8" y="-166"/>
			<point x="0" y="-173" type="qcurve"/>
			<point name="sv01" x="7" y="-178" type="line"/>
			<point x="40" y="-164"/>
			<point x="103" y="-95"/>
			<point name="iv02" x="139" y="-25" type="qcurve"/>
			<point x="93" y="473" type="line"/>
			<point name="sv02" x="50" y="473" type="line"/>
			<point name="at01" x="61" y="518" type="line"/>
			<point x="259" y="518" type="line"/>
			<point x="248" y="473" type="line"/>
			<point name="sv03" x="188" y="473" type="line"/>
			<point name="sv04" x="211" y="103" type="line"/>
			<point x="220" y="103" type="line"/>
			<point x="425" y="473" type="line"/>
			<point name="sv05" x="363" y="473" type="line"/>
			<point name="at02" x="374" y="518" type="line"/>
			<point x="536" y="518" type="line"/>
			<point x="525" y="473" type="line"/>
			<point name="sv06" x="485" y="473" type="line"/>
			<point x="163" y="-70" type="line"/>
			<point x="140" y="-110"/>
			<point x="94" y="-164"/>
			<point x="50" y="-197"/>
			<point x="8" y="-212"/>
		</contour>
	</outline>
	<anchor name="top" x="320" y="540"/>
	<anchor name="bottom" x="312" y="0"/>
</glyph>
<glyph name="z" format="2">
	<unicode hex="007A"/>
	<advance width="463"/>
	<outline>
		<contour>
			<point name="ab02" x="307" y="-12" type="qcurve"/>
			<point x="284" y="-12"/>
			<point x="236" y="-5"/>
			<point x="176" y="10"/>
			<point x="97" y="33"/>
			<point name="iv01" x="45" y="50" type="qcurve"/>
			<point x="32" y="0" type="line"/>
			<point name="ab01" x="-17" y="0" type="line"/>
			<point x="-8" y="36" type="line"/>
			<point x="-3" y="58"/>
			<point x="14" y="82"/>
			<point x="31" y="99" type="qcurve"/>
			<point name="iv02" x="347" y="410" type="line"/>
			<point name="sv02" x="145" y="447" type="line"/>
			<point x="129" y="437" type="line"/>
			<point x="92" y="329" type="line"/>
			<point x="60" y="335" type="line"/>
			<point x="91" y="463" type="line"/>
			<point x="100" y="501"/>
			<point x="137" y="530"/>
			<point name="at02" x="175" y="530" type="qcurve"/>
			<point x="195" y="530"/>
			<point x="237" y="522"/>
			<point x="290" y="506"/>
			<point x="359" y="482"/>
			<point name="iv03" x="406" y="467" type="qcurve"/>
			<point name="at01" x="419" y="518" type="line"/>
			<point x="468" y="518" type="line"/>
			<point x="459" y="482" type="line"/>
			<point x="456" y="471"/>
			<point x="450" y="455"/>
			<point x="441" y="441"/>
			<point x="429" y="428"/>
			<point x="420" y="419" type="qcurve"/>
			<point name="iv04" x="102" y="109" type="line"/>
			<point name="sv01" x="337" y="71" type="line"/>
			<point x="353" y="81" type="line"/>
			<point x="390" y="189" type="line"/>
			<point x="422" y="183" type="line"/>
			<point x="391" y="55" type="line"/>
			<point x="382" y="17"/>
			<point x="345" y="-12"/>
		</contour>
	</outline>
	<anchor name="top" x="291" y="540"/>
	<anchor name="bottom" x="183" y="0"/>
</glyph>
<glyph name="braceleft" format="2">
	<unicode hex="007B"/>
	<advance width="313"/>
	<outline>
		<contour>
			<point name="hr00" x="84" y="-138" type="line"/>
			<point x="55" y="-138"/>
			<point x="26" y="-106"/>
			<point x="26" y="-82" type="qcurve"/>
			<point x="26" y="-69"/>
			<point x="30" y="-54" type="qcurve"/>
			<point x="93" y="199" type="line"/>
			<point x="96" y="214"/>
			<point x="96" y="225" type="qcurve"/>
			<point x="96" y="255"/>
			<point x="56" y="284"/>
			<point name="sv02" x="23" y="284" type="qcurve"/>
			<point name="iv01" x="36" y="337" type="line"/>
			<point x="76" y="337"/>
			<point x="139" y="383"/>
			<point x="150" y="427" type="qcurve"/>
			<point x="216" y="689" type="line"/>
			<point x="224" y="720"/>
			<point x="274" y="760"/>
			<point name="at01" x="317" y="760" type="qcurve"/>
			<point x="410" y="760" type="line"/>
			<point x="399" y="716" type="line"/>
			<point name="sv03" x="309" y="716" type="line"/>
			<point x="239" y="436" type="line"/>
			<point x="233" y="413"/>
			<point x="207" y="372"/>
			<point x="171" y="341"/>
			<point x="129" y="320"/>
			<point name="iv02" x="107" y="316" type="qcurve"/>
			<point x="104" y="306" type="line"/>
			<point x="136" y="299"/>
			<point x="178" y="245"/>
			<point x="178" y="208" type="qcurve"/>
			<point x="178" y="191"/>
			<point x="174" y="175" type="qcurve"/>
			<point name="sv01" x="107" y="-94" type="line"/>
			<point x="197" y="-94" type="line"/>
			<point x="186" y="-138" type="line"/>
		</contour>
	</outline>
</glyph>
<glyph name="bar" format="2">
	<unicode hex="007C"/>
	<advance width="322"/>
	<outline>
		<contour>
			<point name="at01" x="254" y="760" type="line"/>
			<point x="316" y="760" type="line"/>
			<point x="93" y="-138" type="line"/>
			<point name="av01" x="31" y="-138" type="line"/>
		</contour>
	</outline>
</glyph>
<glyph name="braceright" format="2">
	<unicode hex="007D"/>
	<advance width="313"/>
	<outline>
		<contour>
			<point name="sv01" x="-60" y="-94" type="line"/>
			<point x="30" y="-94" type="line"/>
			<point x="100" y="186" type="line"/>
			<point x="106" y="209"/>
			<point x="132" y="250"/>
			<point x="168" y="281"/>
			<point x="210" y="302"/>
			<point x="232" y="306" type="qcurve"/>
			<point name="iv02" x="235" y="316" type="line"/>
			<point x="203" y="323"/>
			<point x="161" y="377"/>
			<point x="161" y="414" type="qcurve"/>
			<point x="161" y="431"/>
			<point x="165" y="447" type="qcurve"/>
			<point x="232" y="716" type="line"/>
			<point name="sv03" x="142" y="716" type="line"/>
			<point name="at01" x="153" y="760" type="line"/>
			<point x="255" y="760" type="line"/>
			<point x="284" y="760"/>
			<point x="313" y="728"/>
			<point x="313" y="704" type="qcurve"/>
			<point x="313" y="691"/>
			<point x="309" y="676" type="qcurve"/>
			<point x="246" y="423" type="line"/>
			<point x="243" y="408"/>
			<point x="243" y="397" type="qcurve"/>
			<point x="243" y="367"/>
			<point x="283" y="338"/>
			<point name="iv01" x="316" y="338" type="qcurve"/>
			<point name="sv02" x="303" y="285" type="line"/>
			<point x="263" y="285"/>
			<point x="200" y="239"/>
			<point x="189" y="195" type="qcurve"/>
			<point x="123" y="-67" type="line"/>
			<point x="115" y="-98"/>
			<point x="65" y="-138"/>
			<point x="22" y="-138" type="qcurve"/>
			<point name="av01" x="-71" y="-138" type="line"/>
		</contour>
	</outline>
</glyph>
<glyph name="asciitilde" format="2">
	<unicode hex="007E"/>
	<advance width="550"/>
	<outline>
		<contour>
			<point name="dv01" x="382" y="245" type="qcurve"/>
			<point x="350" y="245"/>
			<point x="302" y="264"/>
			<point x="273" y="282" type="qcurve"/>
			<point x="249" y="296"/>
			<point x="206" y="316"/>
			<point name="sv01" x="178" y="316" type="qcurve"/>
			<point x="155" y="316"/>
			<point x="117" y="300"/>
			<point name="iv01" x="93" y="282" type="qcurve"/>
			<point x="72" y="319" type="line"/>
			<point x="95" y="343"/>
			<point x="149" y="370"/>
			<point name="sv02" x="189" y="370" type="qcurve"/>
			<point x="221" y="370"/>
			<point x="269" y="351"/>
			<point x="298" y="333" type="qcurve"/>
			<point x="322" y="319"/>
			<point x="365" y="299"/>
			<point name="dv02" x="393" y="299" type="qcurve"/>
			<point x="416" y="299"/>
			<point x="454" y="315"/>
			<point name="iv02" x="478" y="333" type="qcurve"/>
			<point x="499" y="296" type="line"/>
			<point x="476" y="272"/>
			<point x="422" y="245"/>
		</contour>
	</outline>
</glyph>
<glyph name="exclamdown" format="2">
	<unicode hex="00A1"/>
	<advance width="263"/>
	<outline>
		<contour>
			<point name="sv01" x="172" y="395" type="qcurve"/>
			<point x="143" y="395"/>
			<point x="113" y="428"/>
			<point x="113" y="449" type="qcurve"/>
			<point x="113" y="454"/>
			<point x="114" y="463"/>
			<point x="116" y="473" type="qcurve"/>
			<point x="122" y="499"/>
			<point x="163" y="530"/>
			<point name="at01" x="191" y="530" type="qcurve"/>
			<point x="220" y="530"/>
			<point x="250" y="497"/>
			<point x="250" y="476" type="qcurve"/>
			<point x="250" y="471"/>
			<point x="249" y="462"/>
			<point x="247" y="452" type="qcurve"/>
			<point x="241" y="426"/>
			<point x="200" y="395"/>
		</contour>
		<contour>
			<point x="25" y="20" type="line"/>
			<point name="sv02" x="130" y="328" type="line"/>
			<point x="169" y="328" type="line"/>
			<point x="121" y="20" type="line"/>
			<point x="70" y="-180" type="line"/>
			<point name="av01" x="-26" y="-180" type="line"/>
		</contour>
	</outline>
</glyph>
<glyph name="cent" format="2">
	<unicode hex="00A2"/>
	<advance width="458"/>
	<outline>
		<contour>
			<point name="sv01" x="152" y="-10" type="line"/>
			<point x="95" y="-5"/>
			<point x="41" y="74"/>
			<point x="41" y="144" type="qcurve"/>
			<point x="41" y="198"/>
			<point x="69" y="326"/>
			<point x="128" y="439"/>
			<point x="221" y="519"/>
			<point name="sv02" x="286" y="527" type="qcurve"/>
			<point name="sv03" x="312" y="629" type="line"/>
			<point x="361" y="629" type="line"/>
			<point name="at01" x="335" y="527" type="line"/>
			<point x="387" y="522"/>
			<point x="449" y="467"/>
			<point x="449" y="428" type="qcurve"/>
			<point x="449" y="395"/>
			<point x="413" y="351"/>
			<point name="iv01" x="381" y="351" type="qcurve"/>
			<point x="355" y="351"/>
			<point x="332" y="377"/>
			<point x="332" y="396" type="qcurve"/>
			<point x="332" y="418"/>
			<point x="364" y="459"/>
			<point x="401" y="461" type="qcurve"/>
			<point x="401" y="469" type="line"/>
			<point x="390" y="477"/>
			<point x="348" y="487"/>
			<point name="sv04" x="324" y="488" type="qcurve"/>
			<point name="sv05" x="214" y="49" type="line"/>
			<point x="262" y="51"/>
			<point x="343" y="127"/>
			<point x="379" y="193" type="qcurve"/>
			<point x="411" y="178" type="line"/>
			<point x="366" y="87"/>
			<point x="270" y="-6"/>
			<point name="ab01" x="201" y="-11" type="qcurve"/>
			<point x="175" y="-114" type="line"/>
			<point name="sv06" x="126" y="-114" type="line"/>
		</contour>
		<contour>
			<point name="sv07" x="276" y="481" type="line"/>
			<point x="238" y="470"/>
			<point x="182" y="385"/>
			<point x="159" y="294" type="qcurve"/>
			<point x="149" y="257"/>
			<point x="133" y="168"/>
			<point x="133" y="135" type="qcurve"/>
			<point x="133" y="106"/>
			<point x="150" y="65"/>
			<point name="sv08" x="170" y="55" type="qcurve"/>
		</contour>
	</outline>
</glyph>
<glyph name="sterling" format="2">
	<unicode hex="00A3"/>
	<advance width="547"/>
	<outline>
		<contour>
			<point name="sv02" x="3" y="70" type="line"/>
			<point x="24" y="80"/>
			<point x="73" y="125"/>
			<point x="114" y="188"/>
			<point x="141" y="265"/>
			<point x="141" y="309" type="qcurve"/>
			<point name="sv04" x="57" y="309" type="line"/>
			<point name="iv01" x="69" y="355" type="line"/>
			<point x="139" y="355" type="line"/>
			<point x="137" y="371"/>
			<point x="135" y="408"/>
			<point x="135" y="434" type="qcurve"/>
			<point x="135" y="508"/>
			<point x="181" y="613"/>
			<point x="255" y="679"/>
			<point x="347" y="710"/>
			<point name="at01" x="393" y="710" type="qcurve"/>
			<point x="427" y="710"/>
			<point x="487" y="694"/>
			<point x="532" y="664"/>
			<point x="558" y="620"/>
			<point x="558" y="593" type="qcurve"/>
			<point x="558" y="559"/>
			<point x="519" y="508"/>
			<point name="iv02" x="487" y="508" type="qcurve"/>
			<point x="461" y="508"/>
			<point x="432" y="538"/>
			<point x="432" y="561" type="qcurve"/>
			<point x="432" y="587"/>
			<point x="463" y="627"/>
			<point x="492" y="634" type="qcurve"/>
			<point x="493" y="641" type="line"/>
			<point x="473" y="649"/>
			<point x="432" y="659"/>
			<point name="sv03" x="400" y="659" type="qcurve"/>
			<point x="356" y="659"/>
			<point x="292" y="625"/>
			<point x="250" y="566"/>
			<point x="229" y="485"/>
			<point x="229" y="438" type="qcurve"/>
			<point x="229" y="421"/>
			<point x="231" y="378"/>
			<point name="sv05" x="231" y="355" type="qcurve"/>
			<point x="396" y="355" type="line"/>
			<point x="384" y="309" type="line"/>
			<point name="sv06" x="230" y="309" type="line"/>
			<point x="229" y="268"/>
			<point x="204" y="198"/>
			<point x="162" y="139"/>
			<point x="106" y="92"/>
			<point x="74" y="75" type="qcurve"/>
			<point name="sv01" x="73" y="69" type="line"/>
			<point x="390" y="69" type="line"/>
			<point name="sv07" x="418" y="180" type="line"/>
			<point x="469" y="180" type="line"/>
			<point x="424" y="0" type="line"/>
			<point name="ab01" x="-14" y="0" type="line"/>
		</contour>
	</outline>
</glyph>
<glyph name="currency" format="2">
	<unicode hex="00A4"/>
	<advance width="597"/>
	<outline>
		<contour>
			<point name="iv01" x="265" y="117" type="qcurve"/>
			<point x="227" y="117"/>
			<point x="170" y="142"/>
			<point name="iv02" x="150" y="162" type="qcurve"/>
			<point x="36" y="62" type="line"/>
			<point x="-2" y="115" type="line"/>
			<point name="sv02" x="117" y="218" type="line"/>
			<point x="109" y="245"/>
			<point x="109" y="274" type="qcurve"/>
			<point x="109" y="331"/>
			<point x="148" y="444"/>
			<point name="sv04" x="184" y="488" type="qcurve"/>
			<point x="114" y="595" type="line"/>
			<point x="167" y="639" type="line"/>
			<point name="iv03" x="234" y="536" type="line"/>
			<point x="263" y="557"/>
			<point x="329" y="581"/>
			<point name="av01" x="367" y="581" type="qcurve"/>
			<point x="405" y="581"/>
			<point x="462" y="556"/>
			<point name="iv04" x="482" y="536" type="qcurve"/>
			<point x="596" y="636" type="line"/>
			<point x="634" y="583" type="line"/>
			<point name="sv05" x="515" y="480" type="line"/>
			<point x="523" y="453"/>
			<point x="523" y="424" type="qcurve"/>
			<point x="523" y="367"/>
			<point x="484" y="254"/>
			<point name="sv06" x="448" y="210" type="qcurve"/>
			<point x="518" y="103" type="line"/>
			<point x="465" y="59" type="line"/>
			<point name="iv05" x="398" y="162" type="line"/>
			<point x="369" y="141"/>
			<point x="303" y="117"/>
		</contour>
		<contour>
			<point name="sv03" x="270" y="161" type="qcurve"/>
			<point x="298" y="161"/>
			<point x="344" y="183"/>
			<point x="380" y="221"/>
			<point x="406" y="272"/>
			<point x="413" y="301" type="qcurve"/>
			<point x="424" y="344"/>
			<point x="444" y="425"/>
			<point x="444" y="457" type="qcurve"/>
			<point x="444" y="497"/>
			<point x="397" y="537"/>
			<point name="sv01" x="362" y="537" type="qcurve"/>
			<point x="334" y="537"/>
			<point x="288" y="515"/>
			<point x="252" y="477"/>
			<point x="226" y="426"/>
			<point x="219" y="397" type="qcurve"/>
			<point x="208" y="354"/>
			<point x="188" y="273"/>
			<point x="188" y="241" type="qcurve"/>
			<point x="188" y="201"/>
			<point x="235" y="161"/>
		</contour>
	</outline>
</glyph>
<glyph name="yen" format="2">
	<unicode hex="00A5"/>
	<advance width="591"/>
	<outline>
		<contour>
			<point name="sv01" x="117" y="45" type="line"/>
			<point x="197" y="45" type="line"/>
			<point x="223" y="152" type="line"/>
			<point name="sv03" x="63" y="152" type="line"/>
			<point name="iv01" x="75" y="197" type="line"/>
			<point x="234" y="197" type="line"/>
			<point x="261" y="303" type="line"/>
			<point name="sv04" x="101" y="303" type="line"/>
			<point name="iv02" x="112" y="348" type="line"/>
			<point x="254" y="348" type="line"/>
			<point x="175" y="653" type="line"/>
			<point name="sv02" x="124" y="653" type="line"/>
			<point name="at01" x="135" y="698" type="line"/>
			<point x="363" y="698" type="line"/>
			<point x="352" y="653" type="line"/>
			<point name="sv05" x="275" y="653" type="line"/>
			<point name="sv06" x="335" y="373" type="line"/>
			<point x="341" y="373" type="line"/>
			<point x="547" y="653" type="line"/>
			<point name="sv07" x="471" y="653" type="line"/>
			<point name="at02" x="481" y="698" type="line"/>
			<point x="677" y="698" type="line"/>
			<point x="666" y="653" type="line"/>
			<point name="sv08" x="615" y="653" type="line"/>
			<point name="sv09" x="381" y="348" type="line"/>
			<point x="524" y="348" type="line"/>
			<point x="513" y="303" type="line"/>
			<point name="sv10" x="352" y="303" type="line"/>
			<point name="sv11" x="326" y="197" type="line"/>
			<point x="486" y="197" type="line"/>
			<point x="475" y="152" type="line"/>
			<point name="sv12" x="315" y="152" type="line"/>
			<point name="sv13" x="288" y="45" type="line"/>
			<point x="368" y="45" type="line"/>
			<point x="357" y="0" type="line"/>
			<point name="ab01" x="106" y="0" type="line"/>
		</contour>
	</outline>
</glyph>
<glyph name="brokenbar" format="2">
	<unicode hex="00A6"/>
	<advance width="322"/>
	<outline>
		<contour>
			<point name="sv01" x="120" y="221" type="line"/>
			<point x="182" y="221" type="line"/>
			<point x="93" y="-138" type="line"/>
			<point name="av01" x="31" y="-138" type="line"/>
		</contour>
		<contour>
			<point name="at01" x="254" y="760" type="line"/>
			<point x="316" y="760" type="line"/>
			<point x="227" y="401" type="line"/>
			<point name="sv02" x="165" y="401" type="line"/>
		</contour>
	</outline>
</glyph>
<glyph name="section" format="2">
	<unicode hex="00A7"/>
	<advance width="531"/>
	<outline>
		<contour>
			<point name="av01" x="152" y="-155" type="qcurve"/>
			<point x="98" y="-155"/>
			<point x="22" y="-112"/>
			<point x="22" y="-71" type="qcurve"/>
			<point x="22" y="-42"/>
			<point x="59" y="2"/>
			<point name="iv02" x="88" y="2" type="qcurve"/>
			<point x="109" y="2"/>
			<point x="137" y="-23"/>
			<point x="137" y="-45" type="qcurve"/>
			<point x="137" y="-67"/>
			<point x="109" y="-100"/>
			<point x="88" y="-104" type="qcurve"/>
			<point x="88" y="-111" type="line"/>
			<point x="99" y="-116"/>
			<point x="127" y="-120"/>
			<point name="sv02" x="141" y="-120" type="qcurve"/>
			<point x="201" y="-120"/>
			<point x="277" y="-62"/>
			<point x="277" y="-15" type="qcurve"/>
			<point x="277" y="20"/>
			<point x="231" y="70"/>
			<point name="iv01" x="199" y="99" type="qcurve"/>
			<point x="161" y="132" type="line"/>
			<point x="140" y="151"/>
			<point x="101" y="187"/>
			<point x="71" y="225"/>
			<point x="53" y="268"/>
			<point x="53" y="294" type="qcurve"/>
			<point x="53" y="323"/>
			<point x="76" y="372"/>
			<point x="116" y="409"/>
			<point x="171" y="434"/>
			<point x="203" y="440" type="qcurve"/>
			<point name="iv05" x="205" y="451" type="line"/>
			<point x="188" y="472"/>
			<point x="171" y="512"/>
			<point x="171" y="538" type="qcurve"/>
			<point x="171" y="573"/>
			<point x="203" y="636"/>
			<point x="258" y="683"/>
			<point x="334" y="710"/>
			<point name="at01" x="378" y="710" type="qcurve"/>
			<point x="405" y="710"/>
			<point x="453" y="699"/>
			<point x="488" y="678"/>
			<point x="509" y="646"/>
			<point x="509" y="626" type="qcurve"/>
			<point x="509" y="597"/>
			<point x="471" y="553"/>
			<point name="iv06" x="442" y="553" type="qcurve"/>
			<point x="422" y="553"/>
			<point x="393" y="578"/>
			<point x="393" y="600" type="qcurve"/>
			<point x="393" y="621"/>
			<point x="421" y="655"/>
			<point x="443" y="659" type="qcurve"/>
			<point x="443" y="666" type="line"/>
			<point x="432" y="671"/>
			<point x="404" y="675"/>
			<point name="sv01" x="390" y="675" type="qcurve"/>
			<point x="330" y="675"/>
			<point x="254" y="616"/>
			<point x="254" y="570" type="qcurve"/>
			<point x="254" y="534"/>
			<point x="300" y="484"/>
			<point name="iv03" x="332" y="456" type="qcurve"/>
			<point x="369" y="423" type="line"/>
			<point x="390" y="403"/>
			<point x="430" y="368"/>
			<point x="460" y="330"/>
			<point x="478" y="287"/>
			<point x="478" y="260" type="qcurve"/>
			<point x="478" y="231"/>
			<point x="455" y="183"/>
			<point x="414" y="146"/>
			<point x="359" y="120"/>
			<point x="328" y="114" type="qcurve"/>
			<point name="iv08" x="326" y="104" type="line"/>
			<point x="343" y="83"/>
			<point x="360" y="43"/>
			<point name="hr01" x="360" y="17" type="qcurve"/>
			<point x="360" y="-18"/>
			<point x="328" y="-81"/>
			<point x="272" y="-128"/>
			<point x="196" y="-155"/>
		</contour>
		<contour>
			<point x="299" y="132" type="qcurve"/>
			<point x="347" y="142"/>
			<point x="394" y="199"/>
			<point x="394" y="234" type="qcurve"/>
			<point x="394" y="252"/>
			<point x="382" y="280"/>
			<point x="361" y="306"/>
			<point x="334" y="332"/>
			<point x="318" y="346" type="qcurve"/>
			<point name="iv07" x="279" y="379" type="line"/>
			<point x="252" y="402"/>
			<point name="hr02" x="232" y="423" type="qcurve"/>
			<point x="184" y="412"/>
			<point x="137" y="355"/>
			<point x="137" y="321" type="qcurve"/>
			<point x="137" y="285"/>
			<point x="181" y="237"/>
			<point x="213" y="208" type="qcurve"/>
			<point name="iv04" x="252" y="176" type="line"/>
			<point x="266" y="165"/>
			<point x="289" y="142"/>
		</contour>
	</outline>
</glyph>
<glyph name="dieresis" format="2">
	<unicode hex="00A8"/>
	<advance width="600"/>
	<outline>
		<contour>
			<point name="av01" x="231" y="617" type="qcurve"/>
			<point x="208" y="617"/>
			<point x="184" y="645"/>
			<point x="184" y="662" type="qcurve"/>
			<point x="184" y="668"/>
			<point x="187" y="680" type="qcurve"/>
			<point x="192" y="697"/>
			<point x="221" y="723"/>
			<point name="sv01" x="244" y="723" type="qcurve"/>
			<point x="267" y="723"/>
			<point x="291" y="695"/>
			<point x="291" y="678" type="qcurve"/>
			<point x="291" y="672"/>
			<point x="288" y="660" type="qcurve"/>
			<point x="283" y="643"/>
			<point x="254" y="617"/>
		</contour>
		<contour>
			<point name="sv02" x="414" y="617" type="qcurve"/>
			<point x="391" y="617"/>
			<point x="367" y="645"/>
			<point x="367" y="662" type="qcurve"/>
			<point x="367" y="668"/>
			<point x="370" y="680" type="qcurve"/>
			<point x="375" y="697"/>
			<point x="404" y="723"/>
			<point name="sv03" x="427" y="723" type="qcurve"/>
			<point x="450" y="723"/>
			<point x="474" y="695"/>
			<point x="474" y="678" type="qcurve"/>
			<point x="474" y="672"/>
			<point x="471" y="660" type="qcurve"/>
			<point x="466" y="643"/>
			<point x="437" y="617"/>
		</contour>
	</outline>
	<anchor name="_top" x="300" y="540"/>
</glyph>
<glyph name="copyright" format="2">
	<unicode hex="00A9"/>
	<advance width="778"/>
	<outline>
		<contour>
			<point name="iv01" x="350" y="151" type="qcurve"/>
			<point x="297" y="151"/>
			<point x="249" y="207"/>
			<point x="249" y="264" type="qcurve"/>
			<point x="249" y="305"/>
			<point x="272" y="404"/>
			<point x="320" y="489"/>
			<point x="394" y="547"/>
			<point name="iv02" x="445" y="547" type="qcurve"/>
			<point x="490" y="547"/>
			<point x="538" y="502"/>
			<point x="538" y="470" type="qcurve"/>
			<point x="538" y="446"/>
			<point x="510" y="412"/>
			<point name="iv03" x="485" y="412" type="qcurve"/>
			<point x="466" y="412"/>
			<point x="447" y="432"/>
			<point x="447" y="446" type="qcurve"/>
			<point x="447" y="463"/>
			<point x="472" y="494"/>
			<point x="498" y="496" type="qcurve"/>
			<point x="498" y="502" type="line"/>
			<point x="481" y="513"/>
			<point name="sv03" x="450" y="513" type="qcurve"/>
			<point x="433" y="513"/>
			<point x="404" y="502"/>
			<point x="377" y="472"/>
			<point x="353" y="419"/>
			<point x="343" y="377" type="qcurve"/>
			<point x="335" y="348"/>
			<point x="324" y="283"/>
			<point x="324" y="260" type="qcurve"/>
			<point x="324" y="231"/>
			<point x="347" y="198"/>
			<point name="sv04" x="373" y="198" type="qcurve"/>
			<point x="435" y="198"/>
			<point x="490" y="298" type="qcurve"/>
			<point x="515" y="286" type="line"/>
			<point x="480" y="216"/>
			<point x="404" y="151"/>
		</contour>
		<contour>
			<point name="sv02" x="346" y="28" type="qcurve"/>
			<point x="406" y="28"/>
			<point x="511" y="71"/>
			<point x="595" y="145"/>
			<point x="653" y="244"/>
			<point x="666" y="300" type="qcurve"/>
			<point x="674" y="334"/>
			<point x="686" y="395"/>
			<point x="686" y="414" type="qcurve"/>
			<point x="686" y="535"/>
			<point x="565" y="670"/>
			<point name="sv01" x="460" y="670" type="qcurve"/>
			<point x="400" y="670"/>
			<point x="294" y="627"/>
			<point x="210" y="553"/>
			<point x="152" y="454"/>
			<point x="139" y="398" type="qcurve"/>
			<point x="131" y="364"/>
			<point x="119" y="303"/>
			<point x="119" y="284" type="qcurve"/>
			<point x="119" y="163"/>
			<point x="240" y="28"/>
		</contour>
		<contour>
			<point name="ab01" x="340" y="-12" type="qcurve"/>
			<point x="276" y="-12"/>
			<point x="175" y="31"/>
			<point x="105" y="108"/>
			<point x="68" y="216"/>
			<point x="68" y="281" type="qcurve"/>
			<point x="68" y="366"/>
			<point x="127" y="522"/>
			<point x="233" y="640"/>
			<point x="378" y="710"/>
			<point name="at01" x="465" y="710" type="qcurve"/>
			<point x="529" y="710"/>
			<point x="630" y="667"/>
			<point x="700" y="590"/>
			<point x="737" y="482"/>
			<point x="737" y="417" type="qcurve"/>
			<point x="737" y="331"/>
			<point x="678" y="176"/>
			<point x="572" y="58"/>
			<point x="427" y="-12"/>
		</contour>
	</outline>
</glyph>
<glyph name="ordfeminine" format="2">
	<unicode hex="00AA"/>
	<advance width="375"/>
	<outline>
		<contour>
			<point name="iv01" x="156" y="342" type="qcurve"/>
			<point x="121" y="342"/>
			<point x="83" y="381"/>
			<point x="83" y="410" type="qcurve"/>
			<point x="83" y="436"/>
			<point x="106" y="482"/>
			<point x="157" y="518"/>
			<point x="240" y="541"/>
			<point name="iv02" x="300" y="544" type="qcurve"/>
			<point x="306" y="570"/>
			<point x="313" y="608"/>
			<point x="313" y="620" type="qcurve"/>
			<point x="313" y="649"/>
			<point x="284" y="674"/>
			<point name="sv01" x="259" y="674" type="qcurve"/>
			<point x="236" y="674"/>
			<point x="211" y="664" type="qcurve"/>
			<point x="210" y="658" type="line"/>
			<point x="223" y="651"/>
			<point x="223" y="633" type="qcurve"/>
			<point x="223" y="614"/>
			<point x="199" y="587"/>
			<point name="iv03" x="179" y="587" type="qcurve"/>
			<point x="165" y="587"/>
			<point x="146" y="604"/>
			<point x="146" y="622" type="qcurve"/>
			<point x="146" y="637"/>
			<point x="165" y="667"/>
			<point x="200" y="690"/>
			<point x="247" y="704"/>
			<point name="at01" x="275" y="704" type="qcurve"/>
			<point x="321" y="704"/>
			<point x="379" y="661"/>
			<point x="379" y="619" type="qcurve"/>
			<point x="379" y="608"/>
			<point x="375" y="581"/>
			<point x="373" y="570" type="qcurve"/>
			<point x="328" y="389" type="line"/>
			<point name="sv04" x="339" y="383" type="line"/>
			<point name="sv05" x="414" y="461" type="line"/>
			<point x="432" y="448" type="line"/>
			<point x="383" y="390" type="line"/>
			<point x="360" y="363"/>
			<point x="326" y="342"/>
			<point name="sv03" x="311" y="342" type="qcurve"/>
			<point x="288" y="342"/>
			<point x="266" y="365"/>
			<point x="266" y="382" type="qcurve"/>
			<point x="266" y="389"/>
			<point x="269" y="408"/>
			<point x="276" y="431" type="qcurve"/>
			<point name="iv04" x="270" y="433" type="line"/>
			<point x="250" y="386"/>
			<point x="190" y="342"/>
		</contour>
		<contour>
			<point name="sv02" x="184" y="381" type="qcurve"/>
			<point x="198" y="381"/>
			<point x="230" y="403"/>
			<point x="260" y="436"/>
			<point x="282" y="476"/>
			<point x="287" y="494" type="qcurve"/>
			<point name="sv06" x="292" y="519" type="line"/>
			<point x="242" y="514"/>
			<point x="184" y="490"/>
			<point x="169" y="471" type="qcurve"/>
			<point x="160" y="460"/>
			<point x="150" y="435"/>
			<point x="150" y="419" type="qcurve"/>
			<point x="150" y="381"/>
		</contour>
	</outline>
</glyph>
<glyph name="logicalnot" format="2">
	<unicode hex="00AC"/>
	<advance width="550"/>
	<outline>
		<contour>
			<point name="hr00" x="420" y="278" type="line"/>
			<point name="sv01" x="65" y="278" type="line"/>
			<point name="av02" x="78" y="332" type="line"/>
			<point x="495" y="332" type="line"/>
			<point x="432" y="81" type="line"/>
			<point name="av01" x="371" y="81" type="line"/>
		</contour>
	</outline>
</glyph>
<glyph name="registered" format="2">
	<unicode hex="00AE"/>
	<advance width="451"/>
	<outline>
		<contour>
			<point name="sv03" x="173" y="417" type="line"/>
			<point x="193" y="417" type="line"/>
			<point x="236" y="591" type="line"/>
			<point name="sv04" x="216" y="591" type="line"/>
			<point name="iv03" x="220" y="610" type="line"/>
			<point x="319" y="610" type="line"/>
			<point x="375" y="610"/>
			<point x="375" y="566" type="qcurve"/>
			<point x="375" y="540"/>
			<point x="345" y="500"/>
			<point name="iv05" x="316" y="493" type="qcurve"/>
			<point x="334" y="434" type="line"/>
			<point x="340" y="417"/>
			<point name="sv07" x="358" y="417" type="qcurve"/>
			<point x="361" y="417" type="line"/>
			<point x="356" y="398" type="line"/>
			<point name="sv08" x="340" y="398" type="line"/>
			<point x="320" y="398"/>
			<point x="301" y="410"/>
			<point x="296" y="428" type="qcurve"/>
			<point x="277" y="490" type="line"/>
			<point name="sv05" x="250" y="490" type="line"/>
			<point name="sv06" x="231" y="417" type="line"/>
			<point x="249" y="417" type="line"/>
			<point x="244" y="398" type="line"/>
			<point name="iv02" x="167" y="398" type="line"/>
		</contour>
		<contour>
			<point name="sv02" x="264" y="329" type="qcurve"/>
			<point x="298" y="329"/>
			<point x="355" y="352"/>
			<point x="400" y="392"/>
			<point x="431" y="449"/>
			<point x="438" y="482" type="qcurve"/>
			<point x="440" y="494"/>
			<point x="444" y="529"/>
			<point x="444" y="535" type="qcurve"/>
			<point x="444" y="566"/>
			<point x="423" y="619"/>
			<point x="386" y="657"/>
			<point x="334" y="679"/>
			<point name="sv01" x="304" y="679" type="qcurve"/>
			<point x="270" y="679"/>
			<point x="213" y="656"/>
			<point x="168" y="616"/>
			<point x="137" y="559"/>
			<point x="130" y="526" type="qcurve"/>
			<point x="128" y="514"/>
			<point x="124" y="479"/>
			<point x="124" y="473" type="qcurve"/>
			<point x="124" y="442"/>
			<point x="145" y="389"/>
			<point x="182" y="351"/>
			<point x="234" y="329"/>
		</contour>
		<contour>
			<point name="iv01" x="261" y="298" type="qcurve"/>
			<point x="224" y="298"/>
			<point x="161" y="324"/>
			<point x="115" y="371"/>
			<point x="89" y="434"/>
			<point x="89" y="471" type="qcurve"/>
			<point x="89" y="522"/>
			<point x="121" y="609"/>
			<point x="179" y="674"/>
			<point x="259" y="710"/>
			<point name="at01" x="307" y="710" type="qcurve"/>
			<point x="344" y="710"/>
			<point x="407" y="683"/>
			<point x="453" y="637"/>
			<point x="479" y="574"/>
			<point x="479" y="537" type="qcurve"/>
			<point x="479" y="486"/>
			<point x="447" y="399"/>
			<point x="389" y="334"/>
			<point x="309" y="298"/>
		</contour>
		<contour>
			<point name="iv04" x="256" y="511" type="line"/>
			<point x="294" y="511" type="line"/>
			<point x="307" y="511"/>
			<point x="325" y="529"/>
			<point x="328" y="543" type="qcurve"/>
			<point x="330" y="549"/>
			<point x="333" y="562"/>
			<point x="333" y="567" type="qcurve"/>
			<point x="333" y="586"/>
			<point x="310" y="586" type="qcurve"/>
			<point name="sv09" x="274" y="586" type="line"/>
		</contour>
	</outline>
</glyph>
<glyph name="macron" format="2">
	<unicode hex="00AF"/>
	<advance width="600"/>
	<outline>
		<contour>
			<point name="sv01" x="206" y="701" type="line"/>
			<point x="469" y="701" type="line"/>
			<point x="454" y="641" type="line"/>
			<point name="av01" x="191" y="641" type="line"/>
		</contour>
	</outline>
	<anchor name="_top" x="300" y="540"/>
</glyph>
<glyph name="degree" format="2">
	<unicode hex="00B0"/>
	<advance width="432"/>
	<outline>
		<contour>
			<point name="iv01" x="261" y="362" type="qcurve"/>
			<point x="230" y="362"/>
			<point x="177" y="385"/>
			<point x="137" y="425"/>
			<point x="114" y="482"/>
			<point x="114" y="516" type="qcurve"/>
			<point x="114" y="557"/>
			<point x="142" y="628"/>
			<point x="191" y="680"/>
			<point x="259" y="710"/>
			<point name="at01" x="299" y="710" type="qcurve"/>
			<point x="330" y="710"/>
			<point x="383" y="687"/>
			<point x="423" y="647"/>
			<point x="446" y="590"/>
			<point x="446" y="556" type="qcurve"/>
			<point x="446" y="515"/>
			<point x="418" y="444"/>
			<point x="369" y="392"/>
			<point x="301" y="362"/>
		</contour>
		<contour>
			<point name="sv02" x="267" y="415" type="qcurve"/>
			<point x="294" y="415"/>
			<point x="339" y="437"/>
			<point x="370" y="476"/>
			<point x="387" y="527"/>
			<point x="387" y="557" type="qcurve"/>
			<point x="387" y="599"/>
			<point x="336" y="657"/>
			<point name="sv01" x="293" y="657" type="qcurve"/>
			<point x="266" y="657"/>
			<point x="221" y="635"/>
			<point x="190" y="596"/>
			<point x="173" y="545"/>
			<point x="173" y="515" type="qcurve"/>
			<point x="173" y="473"/>
			<point x="224" y="415"/>
		</contour>
	</outline>
</glyph>
<glyph name="plusminus" format="2">
	<unicode hex="00B1"/>
	<advance width="550"/>
	<outline>
		<contour>
			<point name="hr00" x="273" y="366" type="line"/>
			<point name="sv01" x="88" y="366" type="line"/>
			<point name="sv02" x="101" y="420" type="line"/>
			<point x="286" y="420" type="line"/>
			<point name="sv03" x="336" y="615" type="line"/>
			<point x="397" y="615" type="line"/>
			<point name="sv04" x="347" y="420" type="line"/>
			<point x="530" y="420" type="line"/>
			<point x="517" y="366" type="line"/>
			<point name="sv05" x="334" y="366" type="line"/>
			<point x="284" y="171" type="line"/>
			<point name="av01" x="223" y="171" type="line"/>
		</contour>
		<contour>
			<point name="sv06" x="10" y="54" type="line"/>
			<point x="439" y="54" type="line"/>
			<point x="426" y="0" type="line"/>
			<point name="ab01" x="-3" y="0" type="line"/>
		</contour>
	</outline>
</glyph>
<glyph name="twosuperior" format="2">
	<unicode hex="00B2"/>
	<advance width="345"/>
	<outline>
		<contour>
			<point name="hr00" x="73" y="381" type="line"/>
			<point x="206" y="486" type="line"/>
			<point x="236" y="510"/>
			<point x="282" y="561"/>
			<point x="290" y="593" type="qcurve"/>
			<point x="292" y="599"/>
			<point x="296" y="616"/>
			<point x="296" y="628" type="qcurve"/>
			<point x="296" y="647"/>
			<point x="271" y="670"/>
			<point name="sv01" x="248" y="670" type="qcurve"/>
			<point x="234" y="670"/>
			<point x="209" y="665"/>
			<point x="199" y="660" type="qcurve"/>
			<point x="197" y="655" type="line"/>
			<point x="216" y="649"/>
			<point x="216" y="630" type="qcurve"/>
			<point x="216" y="609"/>
			<point x="190" y="581"/>
			<point name="iv01" x="170" y="581" type="qcurve"/>
			<point x="153" y="581"/>
			<point x="135" y="600"/>
			<point x="135" y="616" type="qcurve"/>
			<point x="135" y="634"/>
			<point x="156" y="666"/>
			<point x="192" y="690"/>
			<point x="239" y="704"/>
			<point name="at01" x="264" y="704" type="qcurve"/>
			<point x="318" y="704"/>
			<point x="370" y="660"/>
			<point x="370" y="622" type="qcurve"/>
			<point x="370" y="592"/>
			<point x="345" y="543"/>
			<point x="308" y="502"/>
			<point x="265" y="470"/>
			<point x="246" y="458" type="qcurve"/>
			<point x="129" y="385" type="line"/>
			<point name="sv02" x="127" y="381" type="line"/>
			<point x="284" y="381" type="line"/>
			<point name="sv03" x="295" y="427" type="line"/>
			<point x="339" y="427" type="line"/>
			<point x="315" y="330" type="line"/>
			<point name="ab01" x="60" y="330" type="line"/>
		</contour>
	</outline>
</glyph>
<glyph name="acute" format="2">
	<unicode hex="00B4"/>
	<advance width="600"/>
	<outline>
		<contour>
			<point name="hr00" x="279" y="599" type="line"/>
			<point name="sv01" x="385" y="775" type="line"/>
			<point x="462" y="736" type="line"/>
			<point name="av01" x="308" y="584" type="line"/>
		</contour>
	</outline>
	<anchor name="_top" x="300" y="540"/>
</glyph>
<glyph name="mu" format="2">
	<unicode hex="00B5"/>
	<advance width="578"/>
	<outline>
		<contour>
			<point x="150" y="450" type="line"/>
			<point name="sv01" x="62" y="450" type="line"/>
			<point name="sv02" x="71" y="490" type="line"/>
			<point name="at01" x="265" y="530" type="line"/>
			<point x="156" y="132" type="line"/>
			<point x="153" y="120"/>
			<point x="147" y="97"/>
			<point x="147" y="89" type="qcurve"/>
			<point x="147" y="71"/>
			<point x="162" y="58"/>
			<point name="sv03" x="174" y="58" type="qcurve"/>
			<point x="199" y="58"/>
			<point x="264" y="107"/>
			<point x="328" y="192"/>
			<point x="384" y="306"/>
			<point x="400" y="370" type="qcurve"/>
			<point name="at02" x="437" y="518" type="line"/>
			<point x="529" y="518" type="line"/>
			<point x="413" y="57" type="line"/>
			<point name="sv04" x="431" y="49" type="line"/>
			<point name="sv05" x="541" y="164" type="line"/>
			<point x="567" y="145" type="line"/>
			<point x="499" y="61" type="line"/>
			<point x="481" y="38"/>
			<point x="451" y="10"/>
			<point x="426" y="-6"/>
			<point x="403" y="-12"/>
			<point name="ab03" x="391" y="-12" type="qcurve"/>
			<point x="358" y="-12"/>
			<point x="330" y="25"/>
			<point name="hr01" x="330" y="48" type="qcurve"/>
			<point x="330" y="60"/>
			<point x="336" y="91"/>
			<point x="338" y="100" type="qcurve"/>
			<point x="359" y="186" type="line"/>
			<point name="iv01" x="350" y="189" type="line"/>
			<point x="330" y="151"/>
			<point x="287" y="79"/>
			<point x="240" y="22"/>
			<point x="187" y="-12"/>
			<point name="ab02" x="157" y="-12" type="qcurve"/>
			<point x="104" y="-12"/>
			<point x="102" y="53" type="qcurve"/>
			<point name="iv02" x="93" y="53" type="line"/>
			<point x="82" y="-142" type="line"/>
			<point x="68" y="-200" type="line"/>
			<point name="ab01" x="-23" y="-200" type="line"/>
		</contour>
	</outline>
</glyph>
<glyph name="paragraph" format="2">
	<unicode hex="00B6"/>
	<advance width="562"/>
	<outline>
		<contour>
			<point name="av01" x="162" y="-155" type="qcurve"/>
			<point x="129" y="-155"/>
			<point x="76" y="-138"/>
			<point x="38" y="-110"/>
			<point x="17" y="-71"/>
			<point x="17" y="-50" type="qcurve"/>
			<point x="17" y="-15"/>
			<point x="56" y="27"/>
			<point name="iv02" x="83" y="27" type="qcurve"/>
			<point x="107" y="27"/>
			<point x="133" y="0"/>
			<point x="133" y="-20" type="qcurve"/>
			<point x="133" y="-45"/>
			<point x="104" y="-78"/>
			<point x="78" y="-83" type="qcurve"/>
			<point x="77" y="-91" type="line"/>
			<point x="108" y="-113"/>
			<point name="sv03" x="164" y="-113" type="qcurve"/>
			<point x="169" y="-113"/>
			<point name="sv02" x="174" y="-112" type="qcurve"/>
			<point name="iv01" x="278" y="302" type="line"/>
			<point x="236" y="302"/>
			<point x="166" y="324"/>
			<point x="115" y="366"/>
			<point x="86" y="429"/>
			<point x="86" y="471" type="qcurve"/>
			<point x="86" y="525"/>
			<point x="133" y="609"/>
			<point x="211" y="668"/>
			<point x="313" y="698"/>
			<point name="at01" x="369" y="698" type="qcurve"/>
			<point x="626" y="698" type="line"/>
			<point x="615" y="653" type="line"/>
			<point name="sv04" x="545" y="653" type="line"/>
			<point x="399" y="71" type="line"/>
			<point x="371" y="-41"/>
			<point x="250" y="-155"/>
		</contour>
		<contour>
			<point name="sv05" x="227" y="-101" type="line"/>
			<point x="270" y="-84"/>
			<point x="333" y="3"/>
			<point x="350" y="73" type="qcurve"/>
			<point x="496" y="653" type="line"/>
			<point name="sv01" x="415" y="653" type="line"/>
		</contour>
	</outline>
</glyph>
<glyph name="periodcentered" format="2">
	<unicode hex="00B7"/>
	<advance width="307"/>
	<outline>
		<contour>
			<point name="sv01" x="152" y="237" type="qcurve"/>
			<point x="123" y="237"/>
			<point x="93" y="270"/>
			<point x="93" y="291" type="qcurve"/>
			<point x="93" y="296"/>
			<point x="94" y="305"/>
			<point x="96" y="315" type="qcurve"/>
			<point x="102" y="341"/>
			<point x="143" y="372"/>
			<point name="av01" x="171" y="372" type="qcurve"/>
			<point x="200" y="372"/>
			<point x="230" y="339"/>
			<point x="230" y="318" type="qcurve"/>
			<point x="230" y="313"/>
			<point x="229" y="304"/>
			<point x="227" y="294" type="qcurve"/>
			<point x="221" y="268"/>
			<point x="180" y="237"/>
		</contour>
	</outline>
</glyph>
<glyph name="cedilla" format="2">
	<unicode hex="00B8"/>
	<advance width="600"/>
	<outline>
		<contour>
			<point name="sv04" x="264" y="-206" type="qcurve"/>
			<point x="232" y="-206"/>
			<point x="192" y="-181"/>
			<point x="184" y="-164" type="qcurve"/>
			<point x="206" y="-143" type="line"/>
			<point x="222" y="-167"/>
			<point name="sv03" x="259" y="-167" type="qcurve"/>
			<point x="278" y="-167"/>
			<point x="301" y="-154"/>
			<point x="313" y="-137"/>
			<point x="317" y="-120"/>
			<point x="317" y="-116" type="qcurve"/>
			<point x="317" y="-102"/>
			<point x="297" y="-83"/>
			<point name="sv02" x="271" y="-81" type="qcurve"/>
			<point x="245" y="-78" type="line"/>
			<point name="av01" x="283" y="9" type="line"/>
			<point x="323" y="9" type="line"/>
			<point x="292" y="-61" type="line"/>
			<point x="294" y="-64" type="line"/>
			<point x="303" y="-61"/>
			<point x="320" y="-59"/>
			<point name="sv01" x="328" y="-59" type="qcurve"/>
			<point x="353" y="-59"/>
			<point x="384" y="-85"/>
			<point x="384" y="-109" type="qcurve"/>
			<point x="384" y="-132"/>
			<point x="364" y="-168"/>
			<point x="330" y="-193"/>
			<point x="287" y="-206"/>
		</contour>
	</outline>
	<anchor name="_bottom" x="300" y="0"/>
</glyph>
<glyph name="onesuperior" format="2">
	<unicode hex="00B9"/>
	<advance width="338"/>
	<outline>
		<contour>
			<point name="sv01" x="78" y="368" type="line"/>
			<point x="171" y="368" type="line"/>
			<point name="sv02" x="240" y="644" type="line"/>
			<point x="135" y="602" type="line"/>
			<point x="128" y="635" type="line"/>
			<point name="at01" x="273" y="698" type="line"/>
			<point x="326" y="698" type="line"/>
			<point name="sv03" x="243" y="368" type="line"/>
			<point x="325" y="368" type="line"/>
			<point x="316" y="330" type="line"/>
			<point name="ab01" x="69" y="330" type="line"/>
		</contour>
	</outline>
</glyph>
<glyph name="ordmasculine" format="2">
	<unicode hex="00BA"/>
	<advance width="376"/>
	<outline>
		<contour>
			<point name="sv01" x="217" y="376" type="qcurve"/>
			<point x="259" y="376"/>
			<point x="312" y="440"/>
			<point x="323" y="488" type="qcurve"/>
			<point x="331" y="521"/>
			<point x="347" y="584"/>
			<point x="347" y="607" type="qcurve"/>
			<point x="347" y="638"/>
			<point x="316" y="670"/>
			<point name="sv02" x="290" y="670" type="qcurve"/>
			<point x="248" y="670"/>
			<point x="195" y="606"/>
			<point x="184" y="558" type="qcurve"/>
			<point x="176" y="525"/>
			<point x="160" y="462"/>
			<point x="160" y="439" type="qcurve"/>
			<point x="160" y="408"/>
			<point x="191" y="376"/>
		</contour>
		<contour>
			<point name="iv01" x="213" y="342" type="qcurve"/>
			<point x="153" y="342"/>
			<point x="96" y="410"/>
			<point x="96" y="464" type="qcurve"/>
			<point x="96" y="508"/>
			<point x="124" y="594"/>
			<point x="176" y="662"/>
			<point x="249" y="704"/>
			<point name="at01" x="294" y="704" type="qcurve"/>
			<point x="354" y="704"/>
			<point x="411" y="636"/>
			<point x="411" y="582" type="qcurve"/>
			<point x="411" y="538"/>
			<point x="383" y="452"/>
			<point x="331" y="384"/>
			<point x="258" y="342"/>
		</contour>
	</outline>
</glyph>
<glyph name="questiondown" format="2">
	<unicode hex="00BF"/>
	<advance width="452"/>
	<outline>
		<contour>
			<point name="av01" x="126" y="-192" type="qcurve"/>
			<point x="83" y="-192"/>
			<point x="21" y="-172"/>
			<point x="-18" y="-136"/>
			<point x="-36" y="-87"/>
			<point x="-36" y="-58" type="qcurve"/>
			<point x="-36" y="-1"/>
			<point x="11" y="90"/>
			<point x="87" y="154"/>
			<point x="183" y="191"/>
			<point name="sv03" x="232" y="195" type="qcurve"/>
			<point name="sv02" x="260" y="308" type="line"/>
			<point x="314" y="308" type="line"/>
			<point name="sv04" x="274" y="148" type="line"/>
			<point x="199" y="144"/>
			<point x="93" y="70"/>
			<point x="76" y="1" type="qcurve"/>
			<point x="74" y="-9"/>
			<point x="65" y="-46"/>
			<point x="65" y="-63" type="qcurve"/>
			<point x="65" y="-102"/>
			<point x="112" y="-144"/>
			<point name="sv05" x="153" y="-144" type="qcurve"/>
			<point x="180" y="-144"/>
			<point x="235" y="-134"/>
			<point x="252" y="-123" type="qcurve"/>
			<point x="254" y="-116" type="line"/>
			<point x="239" y="-111"/>
			<point x="221" y="-87"/>
			<point x="221" y="-67" type="qcurve"/>
			<point x="221" y="-56"/>
			<point x="230" y="-32"/>
			<point x="246" y="-13"/>
			<point x="271" y="0"/>
			<point name="iv01" x="287" y="0" type="qcurve"/>
			<point x="313" y="0"/>
			<point x="343" y="-29"/>
			<point x="343" y="-54" type="qcurve"/>
			<point x="343" y="-84"/>
			<point x="304" y="-134"/>
			<point x="243" y="-171"/>
			<point x="165" y="-192"/>
		</contour>
		<contour>
			<point name="sv01" x="313" y="395" type="qcurve"/>
			<point x="284" y="395"/>
			<point x="254" y="428"/>
			<point x="254" y="449" type="qcurve"/>
			<point x="254" y="454"/>
			<point x="255" y="463"/>
			<point x="257" y="473" type="qcurve"/>
			<point x="263" y="499"/>
			<point x="304" y="530"/>
			<point name="at01" x="332" y="530" type="qcurve"/>
			<point x="361" y="530"/>
			<point x="391" y="497"/>
			<point x="391" y="476" type="qcurve"/>
			<point x="391" y="471"/>
			<point x="390" y="462"/>
			<point x="388" y="452" type="qcurve"/>
			<point x="382" y="426"/>
			<point x="341" y="395"/>
		</contour>
	</outline>
</glyph>
<glyph name="AE" format="2">
	<unicode hex="00C6"/>
	<advance width="908"/>
	<outline>
		<contour>
			<point name="sv01" x="-40" y="45" type="line"/>
			<point x="11" y="45" type="line"/>
			<point x="454" y="653" type="line"/>
			<point name="sv02" x="381" y="653" type="line"/>
			<point name="at01" x="392" y="698" type="line"/>
			<point x="954" y="698" type="line"/>
			<point x="911" y="527" type="line"/>
			<point name="sv03" x="835" y="527" type="line"/>
			<point name="hr01" x="865" y="649" type="line"/>
			<point name="sv04" x="618" y="649" type="line"/>
			<point name="iv01" x="552" y="385" type="line"/>
			<point x="726" y="385" type="line"/>
			<point name="sv05" x="746" y="464" type="line"/>
			<point x="800" y="464" type="line"/>
			<point x="748" y="257" type="line"/>
			<point name="sv07" x="694" y="257" type="line"/>
			<point x="714" y="336" type="line"/>
			<point name="sv06" x="540" y="336" type="line"/>
			<point name="sv08" x="468" y="49" type="line"/>
			<point x="725" y="49" type="line"/>
			<point name="sv09" x="759" y="182" type="line"/>
			<point x="835" y="182" type="line"/>
			<point x="790" y="0" type="line"/>
			<point name="ab02" x="288" y="0" type="line"/>
			<point name="sv10" x="299" y="45" type="line"/>
			<point x="369" y="45" type="line"/>
			<point x="415" y="229" type="line"/>
			<point name="sv11" x="208" y="229" type="line"/>
			<point name="sv12" x="77" y="45" type="line"/>
			<point x="153" y="45" type="line"/>
			<point x="142" y="0" type="line"/>
			<point name="ab01" x="-51" y="0" type="line"/>
		</contour>
		<contour>
			<point name="iv02" x="240" y="275" type="line"/>
			<point x="427" y="275" type="line"/>
			<point x="521" y="653" type="line"/>
			<point name="sv13" x="514" y="653" type="line"/>
		</contour>
	</outline>
	<anchor name="top" x="615" y="698"/>
</glyph>
<glyph name="multiply" format="2">
	<unicode hex="00D7"/>
	<advance width="550"/>
	<outline>
		<contour>
			<point name="hr00" x="52" y="139" type="line"/>
			<point x="249" y="307" type="line"/>
			<point x="136" y="475" type="line"/>
			<point name="av01" x="182" y="510" type="line"/>
			<point x="294" y="344" type="line"/>
			<point x="486" y="510" type="line"/>
			<point x="520" y="470" type="line"/>
			<point x="323" y="300" type="line"/>
			<point x="435" y="133" type="line"/>
			<point x="389" y="98" type="line"/>
			<point x="278" y="263" type="line"/>
			<point x="86" y="98" type="line"/>
		</contour>
	</outline>
</glyph>
<glyph name="Oslash" format="2">
	<unicode hex="00D8"/>
	<advance width="685"/>
	<outline>
		<contour>
			<point name="hr00" x="18" y="-14" type="line"/>
			<point name="iv03" x="97" y="79" type="line"/>
			<point x="57" y="142"/>
			<point x="57" y="235" type="qcurve"/>
			<point x="57" y="276"/>
			<point x="76" y="378"/>
			<point x="115" y="484"/>
			<point x="176" y="584"/>
			<point x="261" y="662"/>
			<point x="371" y="710"/>
			<point name="at01" x="440" y="710" type="qcurve"/>
			<point x="490" y="710"/>
			<point x="569" y="681"/>
			<point name="iv04" x="598" y="654" type="qcurve"/>
			<point x="671" y="742" type="line"/>
			<point x="707" y="711" type="line"/>
			<point name="iv06" x="628" y="619" type="line"/>
			<point x="668" y="556"/>
			<point x="668" y="463" type="qcurve"/>
			<point x="668" y="422"/>
			<point x="649" y="320"/>
			<point x="610" y="214"/>
			<point x="549" y="114"/>
			<point x="464" y="36"/>
			<point x="353" y="-12"/>
			<point name="ab01" x="285" y="-12" type="qcurve"/>
			<point x="188" y="-12"/>
			<point name="iv02" x="128" y="43" type="qcurve"/>
			<point x="53" y="-44" type="line"/>
		</contour>
		<contour>
			<point name="sv02" x="430" y="658" type="qcurve"/>
			<point x="385" y="658"/>
			<point x="310" y="621"/>
			<point x="251" y="555"/>
			<point x="209" y="466"/>
			<point x="196" y="414" type="qcurve"/>
			<point x="184" y="367"/>
			<point x="168" y="301"/>
			<point x="158" y="250"/>
			<point x="154" y="210"/>
			<point x="154" y="190" type="qcurve"/>
			<point x="154" y="165"/>
			<point name="iv01" x="158" y="148" type="qcurve"/>
			<point name="iv07" x="549" y="600" type="line"/>
			<point x="533" y="627"/>
			<point x="475" y="658"/>
		</contour>
		<contour>
			<point name="sv01" x="296" y="40" type="qcurve"/>
			<point x="341" y="40"/>
			<point x="416" y="77"/>
			<point x="474" y="143"/>
			<point x="517" y="232"/>
			<point x="529" y="284" type="qcurve"/>
			<point x="541" y="330"/>
			<point x="557" y="397"/>
			<point x="567" y="448"/>
			<point x="571" y="488"/>
			<point x="571" y="508" type="qcurve"/>
			<point x="571" y="519"/>
			<point x="569" y="541"/>
			<point name="iv05" x="567" y="551" type="qcurve"/>
			<point name="iv08" x="176" y="99" type="line"/>
			<point x="192" y="72"/>
			<point x="251" y="40"/>
		</contour>
	</outline>
	<anchor name="top" x="438" y="698"/>
</glyph>
<glyph name="Thorn" format="2">
	<unicode hex="00DE"/>
	<advance width="585"/>
	<outline>
		<contour>
			<point name="sv01" x="-10" y="45" type="line"/>
			<point x="61" y="45" type="line"/>
			<point x="213" y="653" type="line"/>
			<point name="sv02" x="143" y="653" type="line"/>
			<point name="at01" x="154" y="698" type="line"/>
			<point x="392" y="698" type="line"/>
			<point x="381" y="653" type="line"/>
			<point name="sv03" x="311" y="653" type="line"/>
			<point name="sv04" x="283" y="540" type="line"/>
			<point x="425" y="540" type="line"/>
			<point x="497" y="540"/>
			<point x="581" y="473"/>
			<point x="581" y="408" type="qcurve"/>
			<point x="581" y="379"/>
			<point x="562" y="295"/>
			<point x="509" y="218"/>
			<point x="414" y="163"/>
			<point x="339" y="163" type="qcurve"/>
			<point name="sv05" x="189" y="163" type="line"/>
			<point name="sv06" x="159" y="45" type="line"/>
			<point x="229" y="45" type="line"/>
			<point x="218" y="0" type="line"/>
			<point name="ab01" x="-21" y="0" type="line"/>
		</contour>
		<contour>
			<point name="sv07" x="201" y="212" type="line"/>
			<point x="333" y="212" type="line"/>
			<point x="383" y="212"/>
			<point x="454" y="276"/>
			<point x="468" y="328" type="qcurve"/>
			<point x="469" y="334"/>
			<point x="475" y="355"/>
			<point x="480" y="379"/>
			<point x="484" y="403"/>
			<point x="484" y="412" type="qcurve"/>
			<point x="484" y="448"/>
			<point x="445" y="491"/>
			<point x="404" y="491" type="qcurve"/>
			<point name="sv08" x="270" y="491" type="line"/>
		</contour>
	</outline>
</glyph>
<glyph name="germandbls" format="2">
	<unicode hex="00DF"/>
	<advance width="581"/>
	<outline>
		<contour>
			<point name="ab01" x="-83" y="-212" type="qcurve"/>
			<point x="-134" y="-212"/>
			<point x="-178" y="-173"/>
			<point x="-178" y="-145" type="qcurve"/>
			<point x="-178" y="-119"/>
			<point x="-146" y="-83"/>
			<point name="iv01" x="-120" y="-83" type="qcurve"/>
			<point x="-96" y="-83"/>
			<point x="-69" y="-111"/>
			<point x="-69" y="-131" type="qcurve"/>
			<point x="-69" y="-142"/>
			<point x="-81" y="-168"/>
			<point x="-96" y="-177" type="qcurve"/>
			<point name="sv01" x="-91" y="-184" type="line"/>
			<point x="-46" y="-184"/>
			<point x="0" y="-123"/>
			<point x="14" y="-67" type="qcurve"/>
			<point x="147" y="469" type="line"/>
			<point name="sv02" x="58" y="469" type="line"/>
			<point name="at02" x="69" y="518" type="line"/>
			<point x="160" y="518" type="line"/>
			<point x="170" y="559" type="line"/>
			<point x="194" y="656"/>
			<point x="317" y="760"/>
			<point name="at01" x="412" y="760" type="qcurve"/>
			<point x="494" y="760"/>
			<point x="575" y="680"/>
			<point x="575" y="614" type="qcurve"/>
			<point x="575" y="597"/>
			<point x="572" y="570"/>
			<point x="567" y="550" type="qcurve"/>
			<point x="552" y="491" type="line"/>
			<point name="sv03" x="512" y="491" type="line"/>
			<point x="463" y="491"/>
			<point x="395" y="447"/>
			<point x="395" y="400" type="qcurve"/>
			<point x="395" y="381"/>
			<point x="406" y="350"/>
			<point x="426" y="319"/>
			<point x="453" y="288"/>
			<point name="iv02" x="469" y="269" type="qcurve"/>
			<point x="489" y="246"/>
			<point x="523" y="192"/>
			<point x="523" y="151" type="qcurve"/>
			<point x="523" y="114"/>
			<point x="493" y="54"/>
			<point x="440" y="11"/>
			<point x="368" y="-12"/>
			<point name="ab02" x="326" y="-12" type="qcurve"/>
			<point x="270" y="-12"/>
			<point x="218" y="27"/>
			<point x="218" y="58" type="qcurve"/>
			<point x="218" y="81"/>
			<point x="248" y="117"/>
			<point name="iv04" x="275" y="117" type="qcurve"/>
			<point x="297" y="117"/>
			<point x="325" y="92"/>
			<point x="325" y="68" type="qcurve"/>
			<point x="325" y="57"/>
			<point x="315" y="31"/>
			<point x="306" y="23" type="qcurve"/>
			<point name="sv04" x="311" y="16" type="line"/>
			<point x="332" y="17"/>
			<point x="376" y="26"/>
			<point x="412" y="49"/>
			<point x="435" y="86"/>
			<point x="435" y="115" type="qcurve"/>
			<point x="435" y="135"/>
			<point x="424" y="168"/>
			<point x="403" y="199"/>
			<point x="375" y="230"/>
			<point name="iv03" x="359" y="249" type="qcurve"/>
			<point x="336" y="275"/>
			<point x="306" y="328"/>
			<point x="306" y="366" type="qcurve"/>
			<point x="306" y="399"/>
			<point x="331" y="453"/>
			<point x="375" y="492"/>
			<point x="436" y="514"/>
			<point name="at03" x="471" y="516" type="qcurve"/>
			<point x="484" y="568" type="line"/>
			<point x="489" y="587"/>
			<point x="492" y="615"/>
			<point name="hr01" x="492" y="629" type="qcurve"/>
			<point x="492" y="674"/>
			<point x="448" y="719"/>
			<point name="sv05" x="409" y="719" type="qcurve"/>
			<point x="351" y="719"/>
			<point x="284" y="648"/>
			<point x="265" y="573" type="qcurve"/>
			<point x="113" y="-40" type="line"/>
			<point x="93" y="-119"/>
			<point x="-9" y="-212"/>
		</contour>
	</outline>
</glyph>
<glyph name="ae" format="2">
	<unicode hex="00E6"/>
	<advance width="700"/>
	<outline>
		<contour>
			<point name="ab02" x="114" y="-12" type="qcurve"/>
			<point x="69" y="-12"/>
			<point x="14" y="46"/>
			<point x="14" y="90" type="qcurve"/>
			<point x="14" y="128"/>
			<point x="45" y="196"/>
			<point x="115" y="248"/>
			<point x="231" y="282"/>
			<point name="iv01" x="315" y="287" type="qcurve"/>
			<point x="317" y="296"/>
			<point x="325" y="327"/>
			<point x="332" y="361"/>
			<point x="337" y="393"/>
			<point x="337" y="405" type="qcurve"/>
			<point x="337" y="448"/>
			<point x="294" y="488"/>
			<point name="sv01" x="259" y="488" type="qcurve"/>
			<point x="227" y="488"/>
			<point x="193" y="472" type="qcurve"/>
			<point x="190" y="465" type="line"/>
			<point x="198" y="459"/>
			<point x="211" y="437"/>
			<point x="211" y="422" type="qcurve"/>
			<point x="211" y="393"/>
			<point x="178" y="355"/>
			<point name="iv02" x="149" y="355" type="qcurve"/>
			<point x="127" y="355"/>
			<point x="99" y="382"/>
			<point x="99" y="408" type="qcurve"/>
			<point x="99" y="430"/>
			<point x="128" y="474"/>
			<point x="179" y="509"/>
			<point x="246" y="530"/>
			<point name="at01" x="285" y="530" type="qcurve"/>
			<point x="333" y="530"/>
			<point x="392" y="486"/>
			<point name="iv03" x="400" y="450" type="qcurve"/>
			<point x="408" y="450" type="line"/>
			<point x="432" y="486"/>
			<point x="511" y="530"/>
			<point name="at02" x="558" y="530" type="qcurve"/>
			<point x="581" y="530"/>
			<point x="627" y="520"/>
			<point x="664" y="497"/>
			<point x="687" y="458"/>
			<point x="687" y="429" type="qcurve"/>
			<point x="687" y="401"/>
			<point x="661" y="345"/>
			<point x="596" y="298"/>
			<point x="485" y="265"/>
			<point name="sv04" x="400" y="260" type="qcurve"/>
			<point x="394" y="230"/>
			<point x="383" y="163"/>
			<point x="383" y="136" type="qcurve"/>
			<point x="383" y="94"/>
			<point x="415" y="49"/>
			<point name="sv05" x="450" y="49" type="qcurve"/>
			<point x="495" y="49"/>
			<point x="578" y="125"/>
			<point name="iv04" x="615" y="193" type="qcurve"/>
			<point x="647" y="178" type="line"/>
			<point x="599" y="82"/>
			<point x="496" y="-12"/>
			<point name="ab01" x="421" y="-12" type="qcurve"/>
			<point x="382" y="-12"/>
			<point x="335" y="13"/>
			<point x="309" y="53"/>
			<point x="300" y="101"/>
			<point name="hr01" x="300" y="124" type="qcurve"/>
			<point name="iv05" x="292" y="124" type="line"/>
			<point x="277" y="89"/>
			<point x="237" y="38"/>
			<point x="190" y="5"/>
			<point x="139" y="-12"/>
		</contour>
		<contour>
			<point name="sv02" x="152" y="47" type="qcurve"/>
			<point x="172" y="47"/>
			<point x="217" y="76"/>
			<point x="258" y="123"/>
			<point x="290" y="182"/>
			<point x="297" y="212" type="qcurve"/>
			<point name="sv03" x="308" y="256" type="line"/>
			<point x="215" y="245"/>
			<point x="122" y="185"/>
			<point x="109" y="139" type="qcurve"/>
			<point x="103" y="121"/>
			<point x="103" y="102" type="qcurve"/>
			<point x="103" y="76"/>
			<point x="126" y="47"/>
		</contour>
		<contour>
			<point name="sv06" x="408" y="293" type="qcurve"/>
			<point x="511" y="305"/>
			<point x="602" y="370"/>
			<point x="602" y="425" type="qcurve"/>
			<point x="602" y="451"/>
			<point x="578" y="486"/>
			<point name="sv07" x="546" y="486" type="qcurve"/>
			<point x="524" y="486"/>
			<point x="486" y="467"/>
			<point x="453" y="422"/>
			<point x="422" y="348"/>
		</contour>
	</outline>
	<anchor name="top" x="424" y="540"/>
</glyph>
<glyph name="ccedilla" format="2">
	<unicode hex="00E7"/>
	<advance width="436"/>
	<outline>
		<contour>
			<point name="sv04" x="145" y="-206" type="qcurve"/>
			<point x="113" y="-206"/>
			<point x="73" y="-181"/>
			<point x="65" y="-164" type="qcurve"/>
			<point x="87" y="-143" type="line"/>
			<point x="103" y="-167"/>
			<point name="sv03" x="140" y="-167" type="qcurve"/>
			<point x="159" y="-167"/>
			<point x="182" y="-154"/>
			<point x="194" y="-137"/>
			<point x="198" y="-120"/>
			<point x="198" y="-116" type="qcurve"/>
			<point x="198" y="-102"/>
			<point x="178" y="-83"/>
			<point name="sv02" x="152" y="-81" type="qcurve"/>
			<point x="126" y="-78" type="line"/>
			<point name="sv05" x="155" y="-11" type="line"/>
			<point x="96" y="-6"/>
			<point x="41" y="73"/>
			<point x="41" y="144" type="qcurve"/>
			<point x="41" y="182"/>
			<point x="55" y="269"/>
			<point x="82" y="355"/>
			<point x="125" y="434"/>
			<point x="183" y="494"/>
			<point x="257" y="530"/>
			<point name="at01" x="303" y="530" type="qcurve"/>
			<point x="362" y="530"/>
			<point x="430" y="473"/>
			<point x="430" y="428" type="qcurve"/>
			<point x="430" y="393"/>
			<point x="392" y="346"/>
			<point name="iv01" x="357" y="346" type="qcurve"/>
			<point x="331" y="346"/>
			<point x="306" y="375"/>
			<point x="306" y="395" type="qcurve"/>
			<point x="306" y="407"/>
			<point x="314" y="430"/>
			<point x="332" y="450"/>
			<point x="359" y="462"/>
			<point x="378" y="463" type="qcurve"/>
			<point x="378" y="471" type="line"/>
			<point x="355" y="488"/>
			<point name="sv06" x="311" y="488" type="qcurve"/>
			<point x="288" y="488"/>
			<point x="247" y="471"/>
			<point x="210" y="427"/>
			<point x="177" y="352"/>
			<point x="163" y="294" type="qcurve"/>
			<point x="153" y="257"/>
			<point x="137" y="168"/>
			<point x="137" y="135" type="qcurve"/>
			<point x="137" y="94"/>
			<point x="169" y="49"/>
			<point name="sv07" x="204" y="49" type="qcurve"/>
			<point x="249" y="49"/>
			<point x="329" y="125"/>
			<point x="367" y="193" type="qcurve"/>
			<point x="399" y="178" type="line"/>
			<point x="354" y="87"/>
			<point x="261" y="-5"/>
			<point name="ab01" x="195" y="-11" type="qcurve"/>
			<point x="173" y="-61" type="line"/>
			<point x="175" y="-64" type="line"/>
			<point x="184" y="-61"/>
			<point x="201" y="-59"/>
			<point name="sv01" x="209" y="-59" type="qcurve"/>
			<point x="234" y="-59"/>
			<point x="265" y="-85"/>
			<point x="265" y="-109" type="qcurve"/>
			<point x="265" y="-132"/>
			<point x="245" y="-168"/>
			<point x="211" y="-193"/>
			<point x="168" y="-206"/>
		</contour>
	</outline>
</glyph>
<glyph name="eth" format="2">
	<unicode hex="00F0"/>
	<advance width="519"/>
	<outline>
		<contour>
			<point name="ab01" x="198" y="-12" type="qcurve"/>
			<point x="118" y="-12"/>
			<point x="38" y="87"/>
			<point x="38" y="171" type="qcurve"/>
			<point x="38" y="229"/>
			<point x="74" y="348"/>
			<point x="141" y="444"/>
			<point x="238" y="505"/>
			<point name="av01" x="298" y="505" type="qcurve"/>
			<point x="344" y="505"/>
			<point x="396" y="456"/>
			<point name="iv01" x="400" y="411" type="qcurve"/>
			<point x="407" y="413" type="line"/>
			<point x="407" y="469"/>
			<point x="379" y="584"/>
			<point name="iv02" x="354" y="629" type="qcurve"/>
			<point name="sv02" x="257" y="568" type="line"/>
			<point x="235" y="608" type="line"/>
			<point name="iv04" x="329" y="668" type="line"/>
			<point x="310" y="692"/>
			<point x="270" y="730"/>
			<point name="at01" x="244" y="748" type="qcurve"/>
			<point x="315" y="748" type="line"/>
			<point x="331" y="737"/>
			<point x="363" y="710"/>
			<point name="iv03" x="375" y="697" type="qcurve"/>
			<point name="at02" x="473" y="760" type="line"/>
			<point x="497" y="720" type="line"/>
			<point name="iv05" x="406" y="662" type="line"/>
			<point x="449" y="602"/>
			<point x="488" y="471"/>
			<point x="488" y="408" type="qcurve"/>
			<point x="488" y="324"/>
			<point x="449" y="172"/>
			<point x="374" y="57"/>
			<point x="267" y="-12"/>
		</contour>
		<contour>
			<point name="sv03" x="202" y="32" type="qcurve"/>
			<point x="231" y="32"/>
			<point x="278" y="58"/>
			<point x="314" y="102"/>
			<point x="341" y="162"/>
			<point x="350" y="197" type="qcurve"/>
			<point x="361" y="239"/>
			<point x="374" y="294"/>
			<point x="382" y="331"/>
			<point x="384" y="354"/>
			<point x="384" y="365" type="qcurve"/>
			<point x="384" y="407"/>
			<point x="351" y="459"/>
			<point name="sv01" x="309" y="459" type="qcurve"/>
			<point x="280" y="459"/>
			<point x="233" y="433"/>
			<point x="197" y="389"/>
			<point x="170" y="328"/>
			<point x="161" y="294" type="qcurve"/>
			<point x="150" y="252"/>
			<point x="137" y="197"/>
			<point x="129" y="160"/>
			<point x="127" y="137"/>
			<point x="127" y="126" type="qcurve"/>
			<point x="127" y="84"/>
			<point x="160" y="32"/>
		</contour>
	</outline>
</glyph>
<glyph name="divide" format="2">
	<unicode hex="00F7"/>
	<advance width="550"/>
	<outline>
		<contour>
			<point name="sv03" x="233" y="61" type="qcurve"/>
			<point x="207" y="61"/>
			<point x="181" y="91"/>
			<point x="181" y="109" type="qcurve"/>
			<point x="181" y="114"/>
			<point x="181" y="124"/>
			<point x="183" y="130" type="qcurve"/>
			<point x="189" y="153"/>
			<point x="222" y="179"/>
			<point name="sv02" x="248" y="179" type="qcurve"/>
			<point x="274" y="179"/>
			<point x="300" y="149"/>
			<point x="300" y="131" type="qcurve"/>
			<point x="300" y="126"/>
			<point x="300" y="116"/>
			<point x="298" y="110" type="qcurve"/>
			<point x="292" y="87"/>
			<point x="259" y="61"/>
		</contour>
		<contour>
			<point name="sv04" x="324" y="431" type="qcurve"/>
			<point x="298" y="431"/>
			<point x="272" y="461"/>
			<point x="272" y="479" type="qcurve"/>
			<point x="272" y="484"/>
			<point x="272" y="494"/>
			<point x="274" y="500" type="qcurve"/>
			<point x="280" y="523"/>
			<point x="313" y="549"/>
			<point name="sv05" x="339" y="549" type="qcurve"/>
			<point x="365" y="549"/>
			<point x="391" y="519"/>
			<point x="391" y="501" type="qcurve"/>
			<point x="391" y="496"/>
			<point x="391" y="486"/>
			<point x="389" y="480" type="qcurve"/>
			<point x="383" y="457"/>
			<point x="350" y="431"/>
		</contour>
		<contour>
			<point name="av01" x="78" y="332" type="line"/>
			<point x="507" y="332" type="line"/>
			<point x="494" y="278" type="line"/>
			<point name="sv01" x="65" y="278" type="line"/>
		</contour>
	</outline>
</glyph>
<glyph name="oslash" format="2">
	<unicode hex="00F8"/>
	<advance width="510"/>
	<outline>
		<contour>
			<point x="-25" y="-8" type="line"/>
			<point name="iv03" x="55" y="75" type="line"/>
			<point x="38" y="117"/>
			<point x="38" y="171" type="qcurve"/>
			<point x="38" y="229"/>
			<point x="75" y="355"/>
			<point x="145" y="461"/>
			<point x="249" y="530"/>
			<point name="at01" x="315" y="530" type="qcurve"/>
			<point x="354" y="530"/>
			<point x="412" y="504"/>
			<point name="iv04" x="432" y="481" type="qcurve"/>
			<point x="505" y="557" type="line"/>
			<point x="536" y="526" type="line"/>
			<point name="iv06" x="455" y="443" type="line"/>
			<point x="472" y="401"/>
			<point x="472" y="347" type="qcurve"/>
			<point x="472" y="289"/>
			<point x="435" y="163"/>
			<point x="365" y="57"/>
			<point x="261" y="-12"/>
			<point name="ab01" x="195" y="-12" type="qcurve"/>
			<point x="119" y="-12"/>
			<point name="iv02" x="78" y="37" type="qcurve"/>
			<point x="6" y="-39" type="line"/>
		</contour>
		<contour>
			<point name="sv01" x="199" y="32" type="qcurve"/>
			<point x="227" y="32"/>
			<point x="272" y="58"/>
			<point x="308" y="103"/>
			<point x="333" y="163"/>
			<point x="342" y="198" type="qcurve"/>
			<point x="361" y="269"/>
			<point x="378" y="344"/>
			<point name="iv05" x="381" y="365" type="qcurve"/>
			<point name="iv07" x="130" y="92" type="line"/>
			<point x="135" y="65"/>
			<point x="168" y="32"/>
		</contour>
		<contour>
			<point name="sv02" x="311" y="486" type="qcurve"/>
			<point x="283" y="486"/>
			<point x="238" y="460"/>
			<point x="202" y="415"/>
			<point x="177" y="354"/>
			<point x="168" y="320" type="qcurve"/>
			<point x="149" y="248"/>
			<point x="132" y="173"/>
			<point name="iv01" x="129" y="151" type="qcurve"/>
			<point name="iv08" x="380" y="425" type="line"/>
			<point x="375" y="453"/>
			<point x="343" y="486"/>
		</contour>
	</outline>
	<anchor name="top" x="322" y="540"/>
</glyph>
<glyph name="thorn" format="2">
	<unicode hex="00FE"/>
	<advance width="527"/>
	<outline>
		<contour>
			<point name="sv01" x="-91" y="-156" type="line"/>
			<point x="-21" y="-156" type="line"/>
			<point x="189" y="681" type="line"/>
			<point name="sv02" x="101" y="681" type="line"/>
			<point name="sv03" x="111" y="721" type="line"/>
			<point name="at01" x="301" y="760" type="line"/>
			<point name="iv01" x="189" y="339" type="line"/>
			<point x="198" y="336" type="line"/>
			<point x="217" y="377"/>
			<point x="257" y="448"/>
			<point x="303" y="500"/>
			<point x="356" y="530"/>
			<point name="at02" x="388" y="530" type="qcurve"/>
			<point x="442" y="530"/>
			<point x="489" y="453"/>
			<point x="489" y="382" type="qcurve"/>
			<point x="489" y="320"/>
			<point x="453" y="182"/>
			<point x="386" y="65"/>
			<point x="290" y="-12"/>
			<point name="ab02" x="230" y="-12" type="qcurve"/>
			<point x="148" y="-12"/>
			<point x="131" y="59" type="qcurve"/>
			<point name="iv02" x="121" y="59" type="line"/>
			<point name="sv06" x="72" y="-156" type="line"/>
			<point x="162" y="-156" type="line"/>
			<point x="151" y="-200" type="line"/>
			<point name="ab01" x="-102" y="-200" type="line"/>
		</contour>
		<contour>
			<point name="sv05" x="205" y="44" type="qcurve"/>
			<point x="255" y="44"/>
			<point x="341" y="137"/>
			<point x="366" y="228" type="qcurve"/>
			<point x="370" y="244"/>
			<point x="380" y="287"/>
			<point x="388" y="330"/>
			<point x="393" y="371"/>
			<point x="393" y="385" type="qcurve"/>
			<point x="393" y="421"/>
			<point x="377" y="461"/>
			<point name="sv04" x="354" y="461" type="qcurve"/>
			<point x="334" y="461"/>
			<point x="292" y="431"/>
			<point x="252" y="382"/>
			<point x="214" y="320"/>
			<point x="183" y="256"/>
			<point x="159" y="194"/>
			<point x="153" y="171" type="qcurve"/>
			<point x="148" y="154" type="line"/>
			<point x="135" y="106"/>
			<point x="163" y="44"/>
		</contour>
	</outline>
</glyph>
<glyph name="Aogonek" format="2">
	<unicode hex="0104"/>
	<advance width="648"/>
	<outline>
		<contour>
			<point name="ab03" x="477" y="-206" type="qcurve"/>
			<point x="445" y="-206"/>
			<point x="404" y="-172"/>
			<point x="404" y="-142" type="qcurve"/>
			<point x="404" y="-118"/>
			<point x="426" y="-79"/>
			<point x="463" y="-45"/>
			<point x="509" y="-17"/>
			<point x="533" y="-5" type="qcurve"/>
			<point x="532" y="0" type="line"/>
			<point name="ab02" x="349" y="0" type="line"/>
			<point name="sv01" x="359" y="45" type="line"/>
			<point x="434" y="45" type="line"/>
			<point x="422" y="229" type="line"/>
			<point name="sv02" x="179" y="229" type="line"/>
			<point name="sv04" x="77" y="45" type="line"/>
			<point x="152" y="45" type="line"/>
			<point x="141" y="0" type="line"/>
			<point name="ab01" x="-52" y="0" type="line"/>
			<point name="sv03" x="-41" y="45" type="line"/>
			<point x="10" y="45" type="line"/>
			<point name="at01" x="388" y="698" type="line"/>
			<point x="481" y="698" type="line"/>
			<point name="sv05" x="530" y="45" type="line"/>
			<point x="581" y="45" type="line"/>
			<point name="sv06" x="570" y="0" type="line"/>
			<point x="554" y="-12"/>
			<point x="520" y="-43"/>
			<point x="491" y="-76"/>
			<point x="472" y="-111"/>
			<point x="472" y="-128" type="qcurve"/>
			<point x="472" y="-160"/>
			<point name="sv07" x="501" y="-160" type="qcurve"/>
			<point x="517" y="-160"/>
			<point x="541" y="-145"/>
			<point name="sv08" x="555" y="-133" type="qcurve"/>
			<point x="579" y="-156" type="line"/>
			<point x="560" y="-176"/>
			<point x="509" y="-206"/>
		</contour>
		<contour>
			<point name="iv01" x="204" y="275" type="line"/>
			<point x="420" y="275" type="line"/>
			<point x="400" y="612" type="line"/>
			<point name="sv09" x="393" y="612" type="line"/>
		</contour>
	</outline>
</glyph>
<glyph name="aogonek" format="2">
	<unicode hex="0105"/>
	<advance width="556"/>
	<outline>
		<contour>
			<point name="ab03" x="339" y="-206" type="qcurve"/>
			<point x="307" y="-206"/>
			<point x="267" y="-172"/>
			<point x="267" y="-142" type="qcurve"/>
			<point x="267" y="-119"/>
			<point x="288" y="-81"/>
			<point x="322" y="-50"/>
			<point x="364" y="-24"/>
			<point x="386" y="-13" type="qcurve"/>
			<point x="384" y="-8" type="line"/>
			<point x="373" y="-12"/>
			<point name="ab02" x="362" y="-12" type="qcurve"/>
			<point x="333" y="-12"/>
			<point x="309" y="25"/>
			<point x="309" y="48" type="qcurve"/>
			<point x="309" y="60"/>
			<point x="315" y="91"/>
			<point x="317" y="100" type="qcurve"/>
			<point x="338" y="179" type="line"/>
			<point name="iv01" x="329" y="182" type="line"/>
			<point x="309" y="140"/>
			<point x="269" y="68"/>
			<point x="223" y="17"/>
			<point x="170" y="-12"/>
			<point name="ab01" x="139" y="-12" type="qcurve"/>
			<point x="86" y="-12"/>
			<point x="38" y="65"/>
			<point x="38" y="135" type="qcurve"/>
			<point x="38" y="176"/>
			<point x="54" y="266"/>
			<point x="85" y="354"/>
			<point x="130" y="434"/>
			<point x="187" y="494"/>
			<point x="257" y="530"/>
			<point name="at01" x="297" y="530" type="qcurve"/>
			<point x="383" y="530"/>
			<point name="iv02" x="407" y="443" type="qcurve"/>
			<point name="hr01" x="416" y="443" type="line"/>
			<point name="at02" x="460" y="518" type="line"/>
			<point x="508" y="518" type="line"/>
			<point x="391" y="57" type="line"/>
			<point name="sv03" x="409" y="49" type="line"/>
			<point name="sv04" x="519" y="164" type="line"/>
			<point x="545" y="145" type="line"/>
			<point x="436" y="15" type="line"/>
			<point x="422" y="-2"/>
			<point x="387" y="-37"/>
			<point x="356" y="-73"/>
			<point x="335" y="-109"/>
			<point x="335" y="-128" type="qcurve"/>
			<point x="335" y="-160"/>
			<point name="sv05" x="363" y="-160" type="qcurve"/>
			<point x="380" y="-160"/>
			<point x="405" y="-144"/>
			<point name="sv06" x="418" y="-133" type="qcurve"/>
			<point x="442" y="-156" type="line"/>
			<point x="423" y="-176"/>
			<point x="372" y="-206"/>
		</contour>
		<contour>
			<point name="sv01" x="173" y="57" type="qcurve"/>
			<point x="193" y="57"/>
			<point x="235" y="87"/>
			<point x="275" y="136"/>
			<point x="313" y="198"/>
			<point x="344" y="262"/>
			<point x="368" y="323"/>
			<point x="374" y="347" type="qcurve"/>
			<point x="379" y="364" type="line"/>
			<point x="392" y="412"/>
			<point x="364" y="474"/>
			<point name="sv02" x="322" y="474" type="qcurve"/>
			<point x="272" y="474"/>
			<point x="186" y="381"/>
			<point x="161" y="290" type="qcurve"/>
			<point x="156" y="273"/>
			<point x="147" y="231"/>
			<point x="139" y="187"/>
			<point x="134" y="147"/>
			<point x="134" y="133" type="qcurve"/>
			<point x="134" y="97"/>
			<point x="150" y="57"/>
		</contour>
	</outline>
</glyph>
<glyph name="Dcroat" format="2">
	<unicode hex="0110"/>
	<advance width="674"/>
	<outline>
		<contour>
			<point name="sv01" x="-10" y="45" type="line"/>
			<point x="60" y="45" type="line"/>
			<point x="131" y="327" type="line"/>
			<point name="sv02" x="47" y="327" type="line"/>
			<point name="iv01" x="59" y="374" type="line"/>
			<point x="142" y="374" type="line"/>
			<point x="212" y="653" type="line"/>
			<point name="sv03" x="142" y="653" type="line"/>
			<point name="at01" x="153" y="698" type="line"/>
			<point x="425" y="698" type="line"/>
			<point x="534" y="698"/>
			<point x="657" y="577"/>
			<point x="657" y="464" type="qcurve"/>
			<point x="657" y="428"/>
			<point x="642" y="332"/>
			<point x="606" y="229"/>
			<point x="548" y="128"/>
			<point x="462" y="49"/>
			<point x="346" y="0"/>
			<point x="271" y="0" type="qcurve"/>
			<point name="ab01" x="-21" y="0" type="line"/>
		</contour>
		<contour>
			<point name="sv04" x="159" y="49" type="line"/>
			<point x="261" y="49" type="line"/>
			<point x="308" y="49"/>
			<point x="390" y="84"/>
			<point x="457" y="147"/>
			<point x="506" y="237"/>
			<point x="520" y="291" type="qcurve"/>
			<point x="532" y="338"/>
			<point x="547" y="402"/>
			<point x="556" y="447"/>
			<point x="560" y="480"/>
			<point x="560" y="497" type="qcurve"/>
			<point x="560" y="568"/>
			<point x="485" y="649"/>
			<point name="hr01" x="410" y="649" type="qcurve"/>
			<point name="sv05" x="309" y="649" type="line"/>
			<point name="sv06" x="240" y="374" type="line"/>
			<point x="363" y="374" type="line"/>
			<point name="hr03" x="351" y="327" type="line"/>
			<point name="sv07" x="229" y="327" type="line"/>
		</contour>
	</outline>
</glyph>
<glyph name="dcroat" format="2">
	<unicode hex="0111"/>
	<advance width="556"/>
	<outline>
		<contour>
			<point name="ab01" x="139" y="-12" type="qcurve"/>
			<point x="86" y="-12"/>
			<point x="38" y="65"/>
			<point x="38" y="135" type="qcurve"/>
			<point x="38" y="176"/>
			<point x="54" y="266"/>
			<point x="85" y="354"/>
			<point x="130" y="434"/>
			<point x="187" y="494"/>
			<point x="257" y="530"/>
			<point name="at01" x="297" y="530" type="qcurve"/>
			<point x="342" y="530"/>
			<point x="385" y="490"/>
			<point name="iv01" x="395" y="459" type="qcurve"/>
			<point x="404" y="459" type="line"/>
			<point x="441" y="617" type="line"/>
			<point name="iv02" x="275" y="617" type="line"/>
			<point name="sv02" x="287" y="664" type="line"/>
			<point x="452" y="664" type="line"/>
			<point x="468" y="739" type="line"/>
			<point name="at02" x="568" y="760" type="line"/>
			<point name="sv03" x="544" y="664" type="line"/>
			<point x="614" y="664" type="line"/>
			<point x="602" y="617" type="line"/>
			<point name="sv04" x="532" y="617" type="line"/>
			<point x="391" y="57" type="line"/>
			<point name="sv05" x="409" y="49" type="line"/>
			<point name="sv06" x="519" y="164" type="line"/>
			<point x="546" y="145" type="line"/>
			<point x="478" y="61" type="line"/>
			<point x="441" y="17"/>
			<point x="394" y="-12"/>
			<point name="ab02" x="372" y="-12" type="qcurve"/>
			<point x="339" y="-12"/>
			<point x="310" y="24"/>
			<point x="310" y="48" type="qcurve"/>
			<point x="310" y="60"/>
			<point x="315" y="91"/>
			<point x="317" y="100" type="qcurve"/>
			<point x="338" y="179" type="line"/>
			<point name="iv03" x="329" y="182" type="line"/>
			<point x="309" y="140"/>
			<point x="269" y="68"/>
			<point x="223" y="17"/>
			<point x="170" y="-12"/>
		</contour>
		<contour>
			<point name="sv07" x="173" y="57" type="qcurve"/>
			<point x="193" y="57"/>
			<point x="236" y="88"/>
			<point x="276" y="138"/>
			<point x="314" y="202"/>
			<point x="345" y="266"/>
			<point x="368" y="326"/>
			<point name="hr01" x="374" y="347" type="qcurve"/>
			<point x="379" y="364" type="line"/>
			<point x="392" y="412"/>
			<point x="364" y="474"/>
			<point name="sv01" x="322" y="474" type="qcurve"/>
			<point x="272" y="474"/>
			<point x="186" y="381"/>
			<point x="161" y="290" type="qcurve"/>
			<point x="156" y="273"/>
			<point x="147" y="231"/>
			<point x="139" y="187"/>
			<point x="134" y="147"/>
			<point x="134" y="133" type="qcurve"/>
			<point x="134" y="97"/>
			<point x="150" y="57"/>
		</contour>
	</outline>
</glyph>
